<?xml version="1.0" encoding="UTF-8"?>
<svg width="253px" height="287px" viewBox="0 0 253 287" version="1.1" xmlns="http://www.w3.org/2000/svg" xmlns:xlink="http://www.w3.org/1999/xlink">
    <title>castle</title>
    <defs>
        <path d="M49.6636299,4.862 C52.0198612,5.56171069 53.1182954,6.37384277 53.2416441,7.47467296 L53.2416441,7.47467296 C53.2551495,7.59338994 53.2479466,7.71300629 53.2308399,7.83172327 L53.2308399,7.83172327 C52.7995694,10.8787925 42.7155836,14.7613774 30.0358719,15.7389937 L30.0358719,15.7389937 C17.1247687,16.7363962 6.32319929,14.3710503 5.56239858,11.3437673 L5.56239858,11.3437673 C5.54619217,11.2790126 5.52818505,11.216956 5.52098221,11.1522013 L5.52098221,11.1522013 C5.38772954,9.9632327 7.14432384,8.65914465 9.63740925,7.54572327 L9.63740925,7.54572327 L9.1692242,4.21715094 C3.61042705,6.54472327 0.255701068,9.43530189 0.498797153,12.2602264 L0.498797153,12.2602264 C0.511402135,12.3654528 0.53211032,12.472478 0.551017794,12.5804025 L0.551017794,12.5804025 C1.5098968,17.7508868 14.6100747,21.8924906 30.2618612,20.6288742 L30.2618612,20.6288742 C46.9166441,19.2762201 57.8856797,12.4625849 58.3727722,7.2867044 L58.3727722,7.2867044 C58.3943808,7.0816478 58.3988826,6.87838994 58.3826762,6.67603145 L58.3826762,6.67603145 C58.1539858,4.0318805 54.7875552,1.99300629 49.5519858,0.73208805 L49.5519858,0.73208805 L49.6636299,4.862 Z" id="path-1"></path>
        <path d="M29.1517224,1.16198742 C12.8660854,3.26471698 -0.0198078292,8.94334591 0.36194306,13.8422201 L0.36194306,13.8422201 C0.744594306,18.7410943 14.6577936,23.8827987 30.9398292,21.7791698 L30.9398292,21.7791698 C47.2263665,19.6755409 59.7179039,11.1207233 59.3352527,6.22184906 L59.3352527,6.22184906 C59.0471388,2.56590566 51.4436335,0.376836478 40.8338399,0.376836478 L40.8338399,0.376836478 C37.2297153,0.376836478 33.2807544,0.628660377 29.1517224,1.16198742" id="path-3"></path>
        <path d="M0.765302491,6.67603145 C0.74819573,6.87838994 0.754498221,7.0816478 0.776106762,7.2867044 L0.776106762,7.2867044 C1.26319929,12.4625849 12.2304342,19.2762201 28.8870178,20.6288742 L28.8870178,20.6288742 C44.5388043,21.8924906 57.6389822,17.7508868 58.5969609,12.5804025 L58.5969609,12.5804025 C58.617669,12.472478 58.6383772,12.3654528 58.6482811,12.2602264 L58.6482811,12.2602264 C58.8922776,9.43530189 55.538452,6.54472327 49.9787544,4.21715094 L49.9787544,4.21715094 L49.5123701,7.54572327 C52.0036548,8.65914465 53.7602491,9.9632327 53.6278968,11.1522013 L53.6278968,11.1522013 C53.620694,11.216956 53.6026868,11.2790126 53.5873808,11.3437673 L53.5873808,11.3437673 C52.8256797,14.3710503 42.02321,16.7363962 29.1112064,15.7389937 L29.1112064,15.7389937 C16.432395,14.7613774 6.34930961,10.8787925 5.91713879,7.83172327 L5.91713879,7.83172327 C5.90003203,7.71300629 5.89282918,7.59338994 5.90723488,7.47467296 L5.90723488,7.47467296 C6.02968327,6.37384277 7.12721708,5.56171069 9.48434875,4.862 L9.48434875,4.862 L9.59599288,0.73208805 C4.36042349,1.99300629 0.993992883,4.0318805 0.765302491,6.67603145" id="path-5"></path>
        <path d="M0.713081851,6.22184906 C0.332231317,11.1207233 12.8210676,19.6755409 29.1085053,21.7791698 L29.1085053,21.7791698 C45.3896406,23.8827987 59.3028399,18.7410943 59.6863915,13.8422201 L59.6863915,13.8422201 C60.0690427,8.94334591 47.1822491,3.26471698 30.8975125,1.16198742 L30.8975125,1.16198742 C26.7684804,0.628660377 22.8186192,0.376836478 19.2144947,0.376836478 L19.2144947,0.376836478 C8.60470107,0.376836478 1.00119573,2.56590566 0.713081851,6.22184906" id="path-7"></path>
        <polygon id="path-9" points="0.128350455 0.272616029 51.3391083 0.272616029 51.3391083 58.4591195 0.128350455 58.4591195"></polygon>
        <path d="M1.70077224,11.5092516 L0.701377224,24.7434969 C0.701377224,24.7434969 11.7001246,37.228566 12.450121,37.4785912 L12.450121,37.4785912 C13.2001174,37.7286164 57.4481068,22.9960189 57.4481068,22.9960189 L57.4481068,22.9960189 L57.1987082,14.7550818 L56.6990107,13.0076038 C59.948395,4.51574214 51.6984342,0.0215849057 51.6984342,0.0215849057 L51.6984342,0.0215849057 L1.70077224,11.5092516 Z" id="path-11"></path>
        <path d="M1.70077224,11.5092516 L0.701377224,24.7434969 C0.701377224,24.7434969 11.7001246,37.228566 12.450121,37.4785912 L12.450121,37.4785912 C13.2001174,37.7286164 57.4481068,22.9960189 57.4481068,22.9960189 L57.4481068,22.9960189 L57.1987082,14.7550818 L56.6990107,13.0076038 C59.948395,4.51574214 51.6984342,0.0215849057 51.6984342,0.0215849057 L51.6984342,0.0215849057 L1.70077224,11.5092516 Z" id="path-13"></path>
        <path d="M1.70077224,11.5092516 L0.701377224,24.7434969 C0.701377224,24.7434969 11.7001246,37.228566 12.450121,37.4785912 L12.450121,37.4785912 C13.2001174,37.7286164 57.4481068,22.9960189 57.4481068,22.9960189 L57.4481068,22.9960189 L57.1987082,14.7550818 L56.6990107,13.0076038 C59.948395,4.51574214 51.6984342,0.0215849057 51.6984342,0.0215849057 L51.6984342,0.0215849057 L1.70077224,11.5092516 Z" id="path-15"></path>
        <path d="M1.70077224,11.5092516 L0.701377224,24.7434969 C0.701377224,24.7434969 11.7001246,37.228566 12.450121,37.4785912 L12.450121,37.4785912 C13.2001174,37.7286164 57.4481068,22.9960189 57.4481068,22.9960189 L57.4481068,22.9960189 L57.1987082,14.7550818 L56.6990107,13.0076038 C59.948395,4.51574214 51.6984342,0.0215849057 51.6984342,0.0215849057 L51.6984342,0.0215849057 L1.70077224,11.5092516 Z" id="path-17"></path>
        <path d="M1.70077224,11.5092516 L0.701377224,24.7434969 C0.701377224,24.7434969 11.7001246,37.228566 12.450121,37.4785912 L12.450121,37.4785912 C13.2001174,37.7286164 57.4481068,22.9960189 57.4481068,22.9960189 L57.4481068,22.9960189 L57.1987082,14.7550818 L56.6990107,13.0076038 C59.948395,4.51574214 51.6984342,0.0215849057 51.6984342,0.0215849057 L51.6984342,0.0215849057 L1.70077224,11.5092516 Z" id="path-19"></path>
        <path d="M1.70077224,11.5092516 L0.701377224,24.7434969 C0.701377224,24.7434969 11.7001246,37.228566 12.450121,37.4785912 L12.450121,37.4785912 C13.2001174,37.7286164 57.4481068,22.9960189 57.4481068,22.9960189 L57.4481068,22.9960189 L57.1987082,14.7550818 L56.6990107,13.0076038 C59.948395,4.51574214 51.6984342,0.0215849057 51.6984342,0.0215849057 L51.6984342,0.0215849057 L1.70077224,11.5092516 Z" id="path-21"></path>
        <path d="M1.70077224,11.5092516 L0.701377224,24.7434969 C0.701377224,24.7434969 11.7001246,37.228566 12.450121,37.4785912 L12.450121,37.4785912 C13.2001174,37.7286164 57.4481068,22.9960189 57.4481068,22.9960189 L57.4481068,22.9960189 L57.1987082,14.7550818 L56.6990107,13.0076038 C59.948395,4.51574214 51.6984342,0.0215849057 51.6984342,0.0215849057 L51.6984342,0.0215849057" id="path-23"></path>
        <path d="M1.70077224,11.5092516 L0.701377224,24.7434969 C0.701377224,24.7434969 11.7001246,37.228566 12.450121,37.4785912 L12.450121,37.4785912 C13.2001174,37.7286164 57.4481068,22.9960189 57.4481068,22.9960189 L57.4481068,22.9960189 L57.1987082,14.7550818 L56.6990107,13.0076038 C59.948395,4.51574214 51.6984342,0.0215849057 51.6984342,0.0215849057 L51.6984342,0.0215849057 L1.70077224,11.5092516 Z" id="path-25"></path>
        <path d="M1.70077224,11.5092516 L0.701377224,24.7434969 C0.701377224,24.7434969 11.7001246,37.228566 12.450121,37.4785912 L12.450121,37.4785912 C13.2001174,37.7286164 57.4481068,22.9960189 57.4481068,22.9960189 L57.4481068,22.9960189 L57.1987082,14.7550818 L56.6990107,13.0076038 C59.948395,4.51574214 51.6984342,0.0215849057 51.6984342,0.0215849057 L51.6984342,0.0215849057 L1.70077224,11.5092516 Z" id="path-27"></path>
        <path d="M1.70077224,11.5092516 L0.701377224,24.7434969 C0.701377224,24.7434969 11.7001246,37.228566 12.450121,37.4785912 L12.450121,37.4785912 C13.2001174,37.7286164 57.4481068,22.9960189 57.4481068,22.9960189 L57.4481068,22.9960189 L57.1987082,14.7550818 L56.6990107,13.0076038 C59.948395,4.51574214 51.6984342,0.0215849057 51.6984342,0.0215849057 L51.6984342,0.0215849057 L1.70077224,11.5092516 Z" id="path-29"></path>
        <path d="M1.70077224,11.5092516 L0.701377224,24.7434969 C0.701377224,24.7434969 11.7001246,37.228566 12.450121,37.4785912 L12.450121,37.4785912 C13.2001174,37.7286164 57.4481068,22.9960189 57.4481068,22.9960189 L57.4481068,22.9960189 L57.1987082,14.7550818 L56.6990107,13.0076038 C59.948395,4.51574214 51.6984342,0.0215849057 51.6984342,0.0215849057 L51.6984342,0.0215849057" id="path-31"></path>
        <path d="M0.917462633,13.0076038 L0.417765125,14.7550818 L0.168366548,22.9960189 C0.168366548,22.9960189 44.4154555,37.7286164 45.1663523,37.4785912 L45.1663523,37.4785912 C45.914548,37.228566 56.9141957,24.7434969 56.9141957,24.7434969 L56.9141957,24.7434969 L55.9148007,11.5092516 L5.91713879,0.0215849057 C5.91713879,0.0215849057 -2.33282206,4.51574214 0.917462633,13.0076038 L0.917462633,13.0076038 Z" id="path-33"></path>
        <path d="M0.917462633,13.0076038 L0.417765125,14.7550818 L0.168366548,22.9960189 C0.168366548,22.9960189 44.4154555,37.7286164 45.1663523,37.4785912 L45.1663523,37.4785912 C45.914548,37.228566 56.9141957,24.7434969 56.9141957,24.7434969 L56.9141957,24.7434969 L55.9148007,11.5092516 L5.91713879,0.0215849057 C5.91713879,0.0215849057 -2.33282206,4.51574214 0.917462633,13.0076038 L0.917462633,13.0076038 Z" id="path-35"></path>
        <path d="M0.917462633,13.0076038 L0.417765125,14.7550818 L0.168366548,22.9960189 C0.168366548,22.9960189 44.4154555,37.7286164 45.1663523,37.4785912 L45.1663523,37.4785912 C45.914548,37.228566 56.9141957,24.7434969 56.9141957,24.7434969 L56.9141957,24.7434969 L55.9148007,11.5092516 L5.91713879,0.0215849057 C5.91713879,0.0215849057 -2.33282206,4.51574214 0.917462633,13.0076038 L0.917462633,13.0076038 Z" id="path-37"></path>
        <path d="M0.917462633,13.0076038 L0.417765125,14.7550818 L0.168366548,22.9960189 C0.168366548,22.9960189 44.4154555,37.7286164 45.1663523,37.4785912 L45.1663523,37.4785912 C45.914548,37.228566 56.9141957,24.7434969 56.9141957,24.7434969 L56.9141957,24.7434969 L55.9148007,11.5092516 L5.91713879,0.0215849057 C5.91713879,0.0215849057 -2.33282206,4.51574214 0.917462633,13.0076038 L0.917462633,13.0076038 Z" id="path-39"></path>
        <path d="M0.917462633,13.0076038 L0.417765125,14.7550818 L0.168366548,22.9960189 C0.168366548,22.9960189 44.4154555,37.7286164 45.1663523,37.4785912 L45.1663523,37.4785912 C45.914548,37.228566 56.9141957,24.7434969 56.9141957,24.7434969 L56.9141957,24.7434969 L55.9148007,11.5092516 L5.91713879,0.0215849057 C5.91713879,0.0215849057 -2.33282206,4.51574214 0.917462633,13.0076038 L0.917462633,13.0076038 Z" id="path-41"></path>
        <path d="M0.917462633,13.0076038 L0.417765125,14.7550818 L0.168366548,22.9960189 C0.168366548,22.9960189 44.4154555,37.7286164 45.1663523,37.4785912 L45.1663523,37.4785912 C45.914548,37.228566 56.9141957,24.7434969 56.9141957,24.7434969 L56.9141957,24.7434969 L55.9148007,11.5092516 L5.91713879,0.0215849057 C5.91713879,0.0215849057 -2.33282206,4.51574214 0.917462633,13.0076038 L0.917462633,13.0076038 Z" id="path-43"></path>
        <path d="M0.917462633,13.0076038 L0.417765125,14.7550818 L0.168366548,22.9960189 C0.168366548,22.9960189 44.4154555,37.7286164 45.1663523,37.4785912 L45.1663523,37.4785912 C45.914548,37.228566 56.9141957,24.7434969 56.9141957,24.7434969 L56.9141957,24.7434969 L55.9148007,11.5092516 L5.91713879,0.0215849057 C5.91713879,0.0215849057 -2.33282206,4.51574214 0.917462633,13.0076038" id="path-45"></path>
        <path d="M0.917462633,13.0076038 L0.417765125,14.7550818 L0.168366548,22.9960189 C0.168366548,22.9960189 44.4154555,37.7286164 45.1663523,37.4785912 L45.1663523,37.4785912 C45.914548,37.228566 56.9141957,24.7434969 56.9141957,24.7434969 L56.9141957,24.7434969 L55.9148007,11.5092516 L5.91713879,0.0215849057 C5.91713879,0.0215849057 -2.33282206,4.51574214 0.917462633,13.0076038 L0.917462633,13.0076038 Z" id="path-47"></path>
        <path d="M0.917462633,13.0076038 L0.417765125,14.7550818 L0.168366548,22.9960189 C0.168366548,22.9960189 44.4154555,37.7286164 45.1663523,37.4785912 L45.1663523,37.4785912 C45.914548,37.228566 56.9141957,24.7434969 56.9141957,24.7434969 L56.9141957,24.7434969 L55.9148007,11.5092516 L5.91713879,0.0215849057 C5.91713879,0.0215849057 -2.33282206,4.51574214 0.917462633,13.0076038 L0.917462633,13.0076038 Z" id="path-49"></path>
        <path d="M0.917462633,13.0076038 L0.417765125,14.7550818 L0.168366548,22.9960189 C0.168366548,22.9960189 44.4154555,37.7286164 45.1663523,37.4785912 L45.1663523,37.4785912 C45.914548,37.228566 56.9141957,24.7434969 56.9141957,24.7434969 L56.9141957,24.7434969 L55.9148007,11.5092516 L5.91713879,0.0215849057 C5.91713879,0.0215849057 -2.33282206,4.51574214 0.917462633,13.0076038 L0.917462633,13.0076038 Z" id="path-51"></path>
        <path d="M0.917462633,13.0076038 L0.417765125,14.7550818 L0.168366548,22.9960189 C0.168366548,22.9960189 44.4154555,37.7286164 45.1663523,37.4785912 L45.1663523,37.4785912 C45.914548,37.228566 56.9141957,24.7434969 56.9141957,24.7434969 L56.9141957,24.7434969 L55.9148007,11.5092516 L5.91713879,0.0215849057 C5.91713879,0.0215849057 -2.33282206,4.51574214 0.917462633,13.0076038 L0.917462633,13.0076038 Z" id="path-53"></path>
    </defs>
    <g id="rã„r" stroke="none" stroke-width="1" fill="none" fill-rule="evenodd">
        <g id="02_info" transform="translate(-80.000000, -152.000000)">
            <g id="castle" transform="translate(80.000000, 152.000000)">
                <g id="Group-7" transform="translate(32.412811, 118.542503)">
                    <path d="M53.4165833,11.5087119 C53.0357327,7.85726541 41.739868,5.78511447 28.1877114,6.8814478 C14.6346544,7.97418365 3.95643381,11.8216931 4.33548363,15.4704415 C4.34448719,15.5459887 4.36609573,15.6179384 4.37960107,15.6898881 C5.18091779,19.2037308 16.2868075,21.1724541 29.5688573,20.0995044 C42.6069107,19.0445421 52.9817114,15.4461585 53.4075797,11.9242214 C53.4246865,11.7848189 53.4300886,11.6454164 53.4165833,11.5087119" id="Fill-1" fill="#131E36"></path>
                    <path d="M49.3315786,0.691166667 L51.6166819,53.689305 C51.6166819,53.689305 49.8141694,61.5803868 34.4631018,63.4240975 C34.4631018,63.4240975 22.2398705,64.484456 17.4760875,57.7859403 L8.21772811,4.39657547 L49.3315786,0.691166667 Z" id="Fill-3" fill="#E1E1E2"></path>
                    <path d="M58.1416509,11.3417887 C57.6617612,16.2973233 45.5321669,21.3023233 30.263932,22.702644 C14.7156865,24.1290465 1.69654057,21.2861346 0.735860854,16.3350969 L0.698045907,16.337795 C5.02245516,27.0726881 12.8492488,32.8457509 12.8492488,32.8457509 C21.0478893,36.716644 31.8683662,34.8477509 31.8683662,34.8477509 C47.2185335,33.5211786 50.7938466,27.0376126 50.7938466,27.0376126 C57.6437541,19.7086377 58.3172203,11.3291975 58.3172203,11.3291975 L58.1416509,11.3417887 Z" id="Fill-5" fill="#A1A1A2"></path>
                </g>
                <g id="Group-10" transform="translate(32.412811, 123.039358)">
                    <mask id="mask-2" fill="white">
                        <use xlink:href="#path-1"></use>
                    </mask>
                    <g id="Clip-9"></g>
                    <path d="M49.6636299,4.862 C52.0198612,5.56171069 53.1182954,6.37384277 53.2416441,7.47467296 L53.2416441,7.47467296 C53.2551495,7.59338994 53.2479466,7.71300629 53.2308399,7.83172327 L53.2308399,7.83172327 C52.7995694,10.8787925 42.7155836,14.7613774 30.0358719,15.7389937 L30.0358719,15.7389937 C17.1247687,16.7363962 6.32319929,14.3710503 5.56239858,11.3437673 L5.56239858,11.3437673 C5.54619217,11.2790126 5.52818505,11.216956 5.52098221,11.1522013 L5.52098221,11.1522013 C5.38772954,9.9632327 7.14432384,8.65914465 9.63740925,7.54572327 L9.63740925,7.54572327 L9.1692242,4.21715094 C3.61042705,6.54472327 0.255701068,9.43530189 0.498797153,12.2602264 L0.498797153,12.2602264 C0.511402135,12.3654528 0.53211032,12.472478 0.551017794,12.5804025 L0.551017794,12.5804025 C1.5098968,17.7508868 14.6100747,21.8924906 30.2618612,20.6288742 L30.2618612,20.6288742 C46.9166441,19.2762201 57.8856797,12.4625849 58.3727722,7.2867044 L58.3727722,7.2867044 C58.3943808,7.0816478 58.3988826,6.87838994 58.3826762,6.67603145 L58.3826762,6.67603145 C58.1539858,4.0318805 54.7875552,1.99300629 49.5519858,0.73208805 L49.5519858,0.73208805 L49.6636299,4.862 Z" id="Fill-8" mask="url(#mask-2)"></path>
                </g>
                <path d="M89.6778758,105.90517 C89.6778758,105.90517 89.4545875,115.730799 81.5044452,121.96524 C81.5044452,121.96524 63.5909648,132.906988 41.3872886,126.674347 C41.3872886,126.674347 33.5731,122.361862 31.0142886,114.19917 L89.6778758,105.90517 Z" id="Fill-11" fill="#B6B7B7"></path>
                <g id="Group-15" transform="translate(30.612100, 99.655711)">
                    <mask id="mask-4" fill="white">
                        <use xlink:href="#path-3"></use>
                    </mask>
                    <g id="Clip-14"></g>
                    <path d="M29.1517224,1.16198742 C12.8660854,3.26471698 -0.0198078292,8.94334591 0.36194306,13.8422201 L0.36194306,13.8422201 C0.744594306,18.7410943 14.6577936,23.8827987 30.9398292,21.7791698 L30.9398292,21.7791698 C47.2263665,19.6755409 59.7179039,11.1207233 59.3352527,6.22184906 L59.3352527,6.22184906 C59.0471388,2.56590566 51.4436335,0.376836478 40.8338399,0.376836478 L40.8338399,0.376836478 C37.2297153,0.376836478 33.2807544,0.628660377 29.1517224,1.16198742" id="Fill-13" mask="url(#mask-4)"></path>
                </g>
                <g id="Group-32" transform="translate(36.914591, 59.184013)">
                    <path d="M45.9833352,42.478105 L43.3200826,39.9068031 L38.4266484,35.1797088 L35.7742,32.6165013 L32.3321395,29.290627 L29.3447587,26.4036459 L26.5869687,23.7415075 L24.4369189,21.6639604 C24.4369189,21.6639604 22.7208406,19.7851742 21.0254705,19.8013629 C21.0254705,19.8013629 19.8252961,19.5765201 17.8409117,22.5714258 L16.1527445,25.1004572 L13.8865488,28.4991805 L11.4087694,32.2126836 L8.72210747,36.2391679 L6.23532456,39.9652623 L2.60418932,45.4037591 L1.04567331,47.7421239 C-0.966622064,50.6659792 0.673826335,51.8576459 0.673826335,51.8576459 C2.6086911,53.346105 7.23111815,57.2169981 20.6437196,57.2169981 C20.6437196,57.2169981 38.0079829,56.9921553 47.1492961,46.3687843 C47.1492961,46.3687843 48.3656769,44.4135516 45.9833352,42.478105" id="Fill-16" fill="#31BBDD"></path>
                    <path d="M28.9442804,74.5555233 C28.9442804,76.7239069 27.1849851,78.481278 25.0133267,78.481278 C22.8425687,78.481278 21.082373,76.7239069 21.082373,74.5555233 C21.082373,72.3862403 22.8425687,70.6288692 25.0133267,70.6288692 C27.1849851,70.6288692 28.9442804,72.3862403 28.9442804,74.5555233" id="Fill-18" fill="#131E36"></path>
                    <path d="M33.3211804,8.19354025 C33.3211804,8.19354025 20.5928495,3.68319434 18.3077463,1.01476038 L20.5838459,16.2941755 C20.5838459,16.2941755 23.3272302,11.9367226 33.3211804,8.19354025" id="Fill-20" fill="#31BBDD"></path>
                    <path d="M30.4503957,7.36665849 C30.4503957,7.36665849 20.4690505,3.9094761 18.8754206,1.74558931 L20.2484633,10.9983189 C20.2484633,10.9983189 24.0290577,7.89728742 30.4503957,7.36665849" id="Fill-22" fill="#31BBDD"></path>
                    <path d="M20.7250217,23.9931516 C20.1127797,24.0848874 19.5437548,23.6639818 19.4537192,23.0551075 L16.2484523,1.50617673 C16.1593171,0.896403145 16.5806836,0.326201887 17.1884238,0.23626478 C17.8006658,0.147227044 18.3696907,0.563635849 18.4597263,1.17970503 L21.6676943,22.7250384 C21.7595306,23.3357113 21.3363633,23.9032145 20.7250217,23.9931516" id="Fill-24" fill="#FEFEFE"></path>
                    <path d="M125.478456,70.8672025 C125.859307,67.215756 137.155172,65.143605 150.707328,66.2399384 C164.261285,67.3326742 174.938606,71.1801836 174.559556,74.8289321 C174.550552,74.9044792 174.528944,74.9764289 174.516339,75.0483786 C173.715022,78.5622214 162.609132,80.5309447 149.327083,79.457995 C136.288129,78.4030327 125.913328,74.8046491 125.48836,71.2827119 C125.470353,71.1433094 125.464951,71.0039069 125.478456,70.8672025" id="Fill-26" fill="#131E36"></path>
                    <path d="M129.563461,60.0496572 L127.278358,113.047796 C127.278358,113.047796 129.08177,120.938877 144.432838,122.782588 C144.432838,122.782588 156.655169,123.842947 161.419852,117.144431 L170.679112,63.755066 L129.563461,60.0496572 Z" id="Fill-28" fill="#E1E1E2"></path>
                    <path d="M120.754199,70.7002792 C121.233188,75.6558138 133.362783,80.6608138 148.631017,82.0611346 C164.180163,83.4875371 177.199309,80.6446252 178.159989,75.6935874 L178.197804,75.6962855 C173.873395,86.4311786 166.045701,92.2042415 166.045701,92.2042415 C157.84796,96.0751346 147.027484,94.2062415 147.027484,94.2062415 C131.676416,92.8796692 128.101103,86.3961031 128.101103,86.3961031 C121.252096,79.0671283 120.577729,70.6876881 120.577729,70.6876881 L120.754199,70.7002792 Z" id="Fill-30" fill="#A1A1A2"></path>
                </g>
                <g id="Group-35" transform="translate(156.661922, 123.039358)">
                    <mask id="mask-6" fill="white">
                        <use xlink:href="#path-5"></use>
                    </mask>
                    <g id="Clip-34"></g>
                    <path d="M0.765302491,6.67603145 C0.74819573,6.87838994 0.754498221,7.0816478 0.776106762,7.2867044 L0.776106762,7.2867044 C1.26319929,12.4625849 12.2304342,19.2762201 28.8870178,20.6288742 L28.8870178,20.6288742 C44.5388043,21.8924906 57.6389822,17.7508868 58.5969609,12.5804025 L58.5969609,12.5804025 C58.617669,12.472478 58.6383772,12.3654528 58.6482811,12.2602264 L58.6482811,12.2602264 C58.8922776,9.43530189 55.538452,6.54472327 49.9787544,4.21715094 L49.9787544,4.21715094 L49.5123701,7.54572327 C52.0036548,8.65914465 53.7602491,9.9632327 53.6278968,11.1522013 L53.6278968,11.1522013 C53.620694,11.216956 53.6026868,11.2790126 53.5873808,11.3437673 L53.5873808,11.3437673 C52.8256797,14.3710503 42.02321,16.7363962 29.1112064,15.7389937 L29.1112064,15.7389937 C16.432395,14.7613774 6.34930961,10.8787925 5.91713879,7.83172327 L5.91713879,7.83172327 C5.90003203,7.71300629 5.89282918,7.59338994 5.90723488,7.47467296 L5.90723488,7.47467296 C6.02968327,6.37384277 7.12721708,5.56171069 9.48434875,4.862 L9.48434875,4.862 L9.59599288,0.73208805 C4.36042349,1.99300629 0.993992883,4.0318805 0.765302491,6.67603145" id="Fill-33" mask="url(#mask-6)"></path>
                </g>
                <path d="M158.545376,105.90517 C158.545376,105.90517 158.767764,115.730799 166.717906,121.96524 C166.717906,121.96524 184.632287,132.906988 206.835963,126.674347 C206.835963,126.674347 214.649252,122.361862 217.208963,114.19917 L158.545376,105.90517 Z" id="Fill-36" fill="#B6B7B7"></path>
                <g id="Group-40" transform="translate(157.562278, 99.655711)">
                    <mask id="mask-8" fill="white">
                        <use xlink:href="#path-7"></use>
                    </mask>
                    <g id="Clip-39"></g>
                    <path d="M0.713081851,6.22184906 C0.332231317,11.1207233 12.8210676,19.6755409 29.1085053,21.7791698 L29.1085053,21.7791698 C45.3896406,23.8827987 59.3028399,18.7410943 59.6863915,13.8422201 L59.6863915,13.8422201 C60.0690427,8.94334591 47.1822491,3.26471698 30.8975125,1.16198742 L30.8975125,1.16198742 C26.7684804,0.628660377 22.8186192,0.376836478 19.2144947,0.376836478 L19.2144947,0.376836478 C8.60470107,0.376836478 1.00119573,2.56590566 0.713081851,6.22184906" id="Fill-38" mask="url(#mask-8)"></path>
                </g>
                <g id="Group-140" transform="translate(0.000000, 0.724893)">
                    <path d="M165.325326,100.937225 L167.987678,98.3659226 L172.882013,93.6388283 L175.534461,91.0756208 L178.976522,87.7497465 L181.963902,84.8627654 L184.720792,82.200627 L186.870842,80.1230799 C186.870842,80.1230799 188.58692,78.2442937 190.284091,78.2604824 C190.284091,78.2604824 191.483365,78.0356396 193.467749,81.0305453 L195.155917,83.5595767 L197.423013,86.9583 L199.899892,90.6718031 L202.586554,94.6982874 L205.073337,98.4243818 L208.704472,103.862879 L210.262988,106.201243 C212.275283,109.125099 210.634835,110.316765 210.634835,110.316765 C208.69907,111.805225 204.076643,115.676118 190.664942,115.676118 C190.664942,115.676118 173.299778,115.451275 164.159365,104.827904 C164.159365,104.827904 162.942084,102.872671 165.325326,100.937225" id="Fill-41" fill="#118F69"></path>
                    <path d="M182.364381,133.014643 C182.364381,135.183026 184.123676,136.940397 186.295335,136.940397 C188.465192,136.940397 190.226288,135.183026 190.226288,133.014643 C190.226288,130.84536 188.465192,129.087989 186.295335,129.087989 C184.123676,129.087989 182.364381,130.84536 182.364381,133.014643" id="Fill-43" fill="#131E36"></path>
                    <path d="M207.35808,70.0315069 C207.35808,70.0315069 196.917553,61.4739912 195.675962,58.1876893 L192.624656,73.3312994 C192.624656,73.3312994 196.685261,70.1628151 207.35808,70.0315069" id="Fill-45" fill="#118F69"></path>
                    <path d="M204.939274,68.2801616 C204.939274,68.2801616 196.725327,61.6437025 195.959124,59.0688031 L194.109793,68.2369918 C194.109793,68.2369918 198.719615,66.6010358 204.939274,68.2801616" id="Fill-47" fill="#118F69"></path>
                    <path d="M190.140484,80.6215113 C189.533644,80.5000962 189.14199,79.9119075 189.263538,79.3084296 L193.571741,57.9519642 C193.695089,57.3484862 194.284822,56.955461 194.88716,57.0768761 C195.4922,57.2000899 195.886556,57.7846811 195.763207,58.3953541 L191.457705,79.748222 C191.337057,80.3534987 190.746424,80.7447252 190.140484,80.6215113" id="Fill-49" fill="#FEFEFE"></path>
                    <path d="M159.884475,139.895641 C159.878173,134.524597 143.751899,129.812792 123.863938,129.371201 C103.975077,128.926911 87.8578064,132.921018 87.8605075,138.288465 C87.8623082,138.398188 87.8812157,138.507911 87.8911196,138.614936 C88.5276712,143.849276 104.393742,148.381207 123.883746,148.815603 C143.018109,149.240106 158.65729,145.560779 159.807045,140.500018 C159.853863,140.298559 159.881774,140.0971 159.884475,139.895641" id="Fill-51" fill="#131E36"></path>
                    <path d="M155.785425,97.5255503 C155.781824,92.7786698 141.52829,88.6136824 123.952443,88.2242547 C106.375696,87.8312296 92.1311655,91.361261 92.1329662,96.1054434 C92.1347669,96.2034748 92.1518737,96.2988082 92.1599769,96.3941415 C92.7226993,101.018708 106.744842,105.025406 123.96955,105.409437 C140.880034,105.783575 154.702297,102.532349 155.718799,98.0588774 C155.759315,97.8817013 155.784525,97.7036258 155.785425,97.5255503" id="Fill-53" fill="#131E36"></path>
                    <path d="M151.971248,83.0705887 L144.435269,176.520639 C144.435269,176.520639 140.560137,193.041186 120.4777,194.585255 C120.4777,194.585255 104.571112,194.943356 99.7749167,179.946343 L98.4297851,84.5779346 L151.971248,83.0705887 Z" id="Fill-55" fill="#E1E1E2"></path>
                    <path d="M129.396355,105.954906 C129.396355,105.954906 130.078825,92.664 124.22201,92.9491006 C124.22201,92.9491006 119.190821,92.3609119 119.427615,105.911736 C119.427615,105.911736 127.480398,106.367717 129.396355,105.954906" id="Fill-57" fill="#131E36"></path>
                    <path d="M131.140794,161.230252 C131.140794,161.230252 132.448111,132.630252 124.928339,133.559302 C124.928339,133.559302 118.163065,131.605868 118.160364,161.244642 C118.160364,161.244642 123.524684,163.109937 131.140794,161.230252" id="Fill-59" fill="#131E36"></path>
                    <path d="M161.884796,97.9388113 C160.608091,104.247899 144.343163,109.073925 124.518227,108.849082 C104.330447,108.619742 87.9637783,103.234308 87.3884509,96.7399497 L87.3389313,96.7381509 C91.4724651,111.118195 100.771341,119.582176 100.771341,119.582176 C110.799504,125.650233 124.966604,124.68161 124.966604,124.68161 C144.886077,125.014377 150.346736,117.150277 150.346736,117.150277 C160.130903,108.632333 162.113486,97.9442075 162.113486,97.9442075 L161.884796,97.9388113 Z" id="Fill-61" fill="#B6B7B7"></path>
                    <path d="M151.24412,94.2635314 C154.183782,95.4740849 155.486597,96.6648522 155.498302,98.0975503 C155.501003,98.2522421 155.474893,98.4051352 155.437078,98.5562296 C154.477298,102.41633 140.990868,106.072274 124.553971,105.645972 C107.815455,105.214274 94.2371879,100.738104 93.6609601,96.7430975 C93.6492555,96.6585566 93.6339495,96.5767138 93.6330491,96.4930723 C93.6213445,94.9461541 96.054106,93.5008648 99.4070313,92.3991352 L99.249469,88.0578711 C91.7891203,90.3134937 87.0892626,93.5845063 87.0288932,97.2503428 C87.0280384,97.3879465 87.0406434,97.5291478 87.0514477,97.6694497 C87.5970633,104.446211 103.893505,111.514368 124.192928,111.964053 C145.794266,112.435324 160.808601,105.128833 162.12312,98.5364434 C162.178042,98.2765252 162.211355,98.0148082 162.218282,97.7539906 C162.276181,94.3210912 158.216476,91.2515377 151.650181,88.9356572 L151.24412,94.2635314 Z" id="Fill-63" fill="#FEFEFE"></path>
                    <path d="M163.947511,66.9812 C163.947511,66.9812 162.352981,79.589483 151.297511,86.5524138 C151.297511,86.5524138 126.80333,98.2460365 99.0759705,87.2827031 C99.0759705,87.2827031 89.5988246,80.6993069 87.3929527,69.8609862 L163.947511,66.9812 Z" id="Fill-65" fill="#B6B7B7"></path>
                    <path d="M87.4357196,68.9533409 C87.2754562,75.3046994 104.485759,83.7641836 125.708047,83.2200642 C146.934837,82.676844 164.136136,73.333278 164.2973,66.9819195 C164.453962,60.630561 147.376011,55.9232528 126.151022,56.4673723 C104.925132,57.0087937 87.5950826,62.601083 87.4357196,68.9533409" id="Fill-67" fill="#FEFEFE"></path>
                    <path d="M155.790737,60.6236358 L152.70972,56.9631956 L147.04468,50.2341013 L143.974467,46.5844535 L139.989492,41.8501642 L136.529424,37.7409377 L133.338563,33.9509881 L130.849079,30.993856 C130.849079,30.993856 128.891705,28.3488057 126.709243,28.1446484 C126.709243,28.1446484 125.196645,27.6958623 122.245278,31.2843528 L119.736887,34.314334 L116.368656,38.3839881 L112.689801,42.8304786 L108.698524,47.6529063 L105.003463,52.1146862 L99.6121324,58.6279314 L97.293716,61.4276736 C94.3189402,64.9217302 96.269111,66.6728057 96.269111,66.6728057 C98.5605167,68.8429881 103.990563,74.4352774 121.241381,76.2160321 C121.241381,76.2160321 143.60352,78.2315226 156.773926,65.7824283 C156.773926,65.7824283 158.599848,63.4296736 155.790737,60.6236358" id="Fill-69" fill="#EA5F49"></path>
                    <path d="M166.784893,140.362954 C165.340722,147.502162 146.935647,152.963143 124.505081,152.708621 C101.663053,152.448703 83.1436331,146.355464 82.4908751,139.006703 L82.435053,139.004904 C81.3312167,156.887998 85.05869,190.408457 85.05869,190.408457 C96.4058751,197.272457 125.011982,195.699457 125.011982,195.699457 C147.551491,196.076294 153.729733,187.177916 153.729733,187.177916 C164.799608,177.540256 167.042395,140.370149 167.042395,140.370149 L166.784893,140.362954 Z" id="Fill-71" fill="#A1A1A2"></path>
                    <path d="M146.129469,13.9551811 C146.129469,13.9551811 130.076123,5.44173459 127.565931,1.43053962 L127.565931,22.2239987 C127.565931,22.2239987 132.081216,16.9608792 146.129469,13.9551811" id="Fill-73" fill="#EA5F49"></path>
                    <path d="M142.468262,12.2877472 C142.468262,12.2877472 129.866881,5.71244528 128.17061,2.5160805 L128.17061,15.1072755 C128.17061,15.1072755 133.815842,11.7283384 142.468262,12.2877472" id="Fill-75" fill="#EA5F49"></path>
                    <path d="M126.227552,32.4972447 C125.397424,32.4972447 124.723958,31.8254145 124.723958,30.9979931 L124.723958,1.67579811 C124.723958,0.84837673 125.397424,0.174747799 126.227552,0.174747799 C127.061282,0.174747799 127.737449,0.84837673 127.737449,1.67579811 L127.737449,30.9979931 C127.737449,31.8254145 127.061282,32.4972447 126.227552,32.4972447" id="Fill-77" fill="#FEFEFE"></path>
                    <path d="M155.204246,130.175598 C153.404434,129.495674 148.289512,128.32829 148.289512,128.32829 L147.792516,134.504271 C150.614231,134.80646 153.682644,135.815554 154.746865,136.187894 L154.745064,136.205881 C158.070078,137.574724 159.544861,138.922881 159.557466,140.543548 C159.560167,140.718026 159.532256,140.890705 159.489039,141.061586 C158.40231,145.429831 143.143078,149.567837 124.544427,149.084875 C105.604541,148.595617 90.2408683,143.531258 89.5890107,139.011019 C89.5755053,138.914787 89.5583986,138.822152 89.5574982,138.727718 C89.5439929,137.049491 92.076694,135.477391 95.6303986,134.251548 L95.6303986,134.256944 L99.1994093,133.426825 L99.1156762,128.494674 C99.1156762,128.494674 97.2573416,128.707825 95.7321388,129.238453 C87.3966441,131.78907 82.1529715,135.466598 82.0836441,139.584818 C82.0836441,139.73951 82.0989502,139.900497 82.1106548,140.057887 C82.7273986,147.726825 101.166687,155.724032 124.136566,156.233076 C148.578527,156.765504 165.567342,148.499384 167.05563,141.040001 C167.115053,140.745906 167.154669,140.450013 167.161687,140.153221 C167.227598,136.270636 162.633982,132.797265 155.204246,130.175598" id="Fill-79" fill="#FEFEFE"></path>
                    <path d="M16.1476125,189.375979 C16.1476125,189.375979 34.1286196,237.02196 36.6964345,252.785237 C39.2633491,268.542218 37.4293242,280.640558 41.0991747,280.640558 L85.8621676,280.640558 C85.8621676,280.640558 62.7500324,177.278539 57.9763456,177.278539 C53.2071605,177.278539 16.1476125,189.375979 16.1476125,189.375979" id="Fill-81" fill="#C8C9C9"></path>
                    <path d="M233.095563,189.375979 C233.095563,189.375979 215.118157,237.02196 212.549442,252.785237 C209.979826,268.542218 211.816552,280.640558 208.145801,280.640558 L163.381908,280.640558 C163.381908,280.640558 186.498545,177.278539 191.26683,177.278539 C196.036015,177.278539 233.095563,189.375979 233.095563,189.375979" id="Fill-83" fill="#C8C9C9"></path>
                    <path d="M23.4287004,203.924925 L8.57372883,173.88863 L41.5429601,160.346799 L51.9006541,191.62063 C51.9006541,191.62063 51.7340883,198.728359 39.1453125,203.5319 C39.1453125,203.5319 28.900163,207.76434 23.4287004,203.924925" id="Fill-85" fill="#C8C9C9"></path>
                    <path d="M34.349927,205.050848 C34.349927,205.050848 26.0900623,183.839181 30.7935214,181.829986 C30.7935214,181.829986 35.0873185,178.797307 43.5344573,201.545099 C43.5344573,201.545099 39.7520623,204.255804 34.349927,205.050848" id="Fill-87" fill="#131E36"></path>
                    <path d="M48.7336523,156.430398 C50.7612537,161.728593 41.5533142,170.165593 28.1776274,175.270423 C14.7974388,180.376153 2.30680178,180.220562 0.280100712,174.921467 C-1.74660036,169.621474 7.45683737,161.185373 20.8379263,156.078744 C34.2145135,150.974813 46.7069512,151.129505 48.7336523,156.430398" id="Fill-89" fill="#904590"></path>
                    <path d="M41.0753153,153.330896 C42.1440377,158.11555 35.9207779,165.053298 24.9985609,169.060896 C14.44639,172.936286 4.93232954,172.570242 3.28377794,168.258657 L11.1816996,142.149914 C11.1816996,142.149914 11.982116,138.802455 13.2111018,138.654958 C13.2111018,138.654958 13.6963936,137.827537 16.8971587,139.490474 L41.0753153,153.330896 Z" id="Fill-91" fill="#B16CA9"></path>
                    <path d="M12.8433964,138.954089 L16.4268128,171.370121 C16.4268128,171.370121 23.9907025,170.997781 33.8577025,164.560083 L13.770763,138.441448 C13.770763,138.441448 13.1900335,138.182429 12.8433964,138.954089" id="Fill-93" fill="#B16CA9"></path>
                    <path d="M21.5189555,126.257578 C21.5189555,126.257578 9.93047509,124.914817 7.49231139,123.103484 L12.3551335,135.533691 C12.3551335,135.533691 13.8236139,131.333628 21.5189555,126.257578" id="Fill-95" fill="#B16CA9"></path>
                    <path d="M18.9401562,126.115297 C18.9401562,126.115297 9.86907082,125.12509 8.10707438,123.610549 L11.0521384,131.137386 C11.0521384,131.137386 13.6361598,127.800719 18.9401562,126.115297" id="Fill-97" fill="#B16CA9"></path>
                    <path d="M13.9583071,141.987758 C13.462211,142.181123 12.9021897,141.936494 12.7077128,141.442739 L5.84970214,123.913097 C5.65612562,123.418443 5.90192278,122.858135 6.39711851,122.66477 C6.89591566,122.469607 7.45773772,122.715135 7.65041388,123.209789 L14.5093249,140.738531 C14.7038018,141.233186 14.4571043,141.793494 13.9583071,141.987758" id="Fill-99" fill="#FEFEFE"></path>
                    <path d="M226.017595,204.493148 L240.871666,174.455953 L207.903335,160.915022 L197.544741,192.188852 C197.544741,192.188852 197.711307,199.296582 210.300983,204.100123 C210.300983,204.100123 220.544332,208.331664 226.017595,204.493148" id="Fill-101" fill="#C8C9C9"></path>
                    <path d="M215.096368,205.61916 C215.096368,205.61916 223.356233,184.406594 218.651874,182.398299 C218.651874,182.398299 214.358077,179.36472 205.910938,202.114311 C205.910938,202.114311 209.692432,204.823217 215.096368,205.61916" id="Fill-103" fill="#131E36"></path>
                    <path d="M200.711743,156.997362 C198.685042,162.296456 207.892081,170.733456 221.268668,175.838286 C234.648857,180.944915 247.138593,180.787525 249.165294,175.48933 C251.191995,170.187538 241.988558,161.753236 228.607469,156.647506 C215.231782,151.542676 202.738444,151.697368 200.711743,156.997362" id="Fill-105" fill="#E99919"></path>
                    <path d="M208.37098,153.898669 C207.302258,158.683323 213.526418,165.62197 224.445934,169.628669 C234.999005,173.504058 244.513065,173.138014 246.162517,168.82643 L238.264596,142.717687 C238.264596,142.717687 237.463279,139.370228 236.234293,139.222731 C236.234293,139.222731 235.749902,138.396209 232.548236,140.058247 L208.37098,153.898669 Z" id="Fill-107" fill="#F3D224"></path>
                    <path d="M236.602899,139.521503 L233.019483,171.938433 C233.019483,171.938433 225.455593,171.565194 215.587693,165.128396 L235.674632,139.00976 C235.674632,139.00976 236.256262,138.749842 236.602899,139.521503" id="Fill-109" fill="#F3D224"></path>
                    <path d="M252.308977,136.444844 C252.308977,136.444844 245.519393,126.967272 245.225877,123.946284 L239.273625,135.895328 C239.273625,135.895328 243.374746,134.160442 252.308977,136.444844" id="Fill-111" fill="#F3D224"></path>
                    <path d="M250.682394,134.440596 C250.682394,134.440596 245.321675,127.063055 245.262252,124.742677 L241.659027,131.978118 C241.659027,131.978118 245.869091,131.648948 250.682394,134.440596" id="Fill-113" fill="#F3D224"></path>
                    <path d="M235.564519,141.417736 C235.08733,141.180303 234.892853,140.602007 235.129647,140.12624 L243.520963,123.275623 C243.758657,122.799856 244.337586,122.604692 244.813874,122.842126 C245.293764,123.07956 245.489141,123.659655 245.253248,124.136321 L236.861031,140.986038 C236.625138,141.462705 236.043508,141.65517 235.564519,141.417736" id="Fill-115" fill="#FEFEFE"></path>
                    <path d="M124.622938,166.409999 C110.444134,166.049352 83.8161089,168.423691 47.2625609,184.938842 C47.2625609,184.938842 56.5578349,213.040591 58.0254149,213.771779 C59.0338135,214.274528 89.7026356,209.057276 124.622938,209.057276 C159.54234,209.057276 190.210262,214.274528 191.219561,213.771779 C192.687141,213.040591 201.981515,184.938842 201.981515,184.938842 C165.428867,168.423691 138.803543,166.049352 124.622938,166.409999" id="Fill-117" fill="#FEFEFE"></path>
                    <path d="M124.622938,200.303697 C89.8268847,200.303697 64.3873295,213.72771 64.3873295,213.72771 C64.3873295,213.72771 80.52981,276.993968 80.2885146,280.167848 C80.0427174,283.34083 169.204059,283.34083 168.957362,280.167848 C168.715166,276.993968 184.857646,213.72771 184.857646,213.72771 C184.857646,213.72771 159.419892,200.303697 124.622938,200.303697" id="Fill-119" fill="#FEFEFE"></path>
                    <path d="M134.236668,155.729518 C134.069202,157.193694 135.124419,158.517569 136.590198,158.683053 L148.886358,160.079776 C150.352138,160.247059 151.675661,159.194795 151.843127,157.729719 L153.49528,143.21387 C153.661846,141.749694 152.60933,140.426719 151.14175,140.260336 L138.84739,138.863613 C137.37981,138.697229 136.056287,139.749493 135.890622,141.213669 L134.236668,155.729518 Z" id="Fill-121" fill="#FEFEFE"></path>
                    <path d="M161.225375,159.224204 C160.827418,160.644311 161.656646,162.117481 163.076507,162.515003 L174.990916,165.855267 C176.411678,166.252789 177.887361,165.426267 178.286219,164.00616 L182.23698,149.939997 C182.634938,148.521689 181.80661,147.047619 180.385849,146.649198 L168.47234,143.309833 C167.050678,142.911412 165.574995,143.738833 165.177037,145.15894 L161.225375,159.224204 Z" id="Fill-123" fill="#FEFEFE"></path>
                    <path d="M187.158956,169.954781 C186.593532,171.315529 187.238187,172.877736 188.600426,173.44434 L200.024141,178.194818 C201.38728,178.760523 202.951198,178.116573 203.518422,176.755825 L210.664547,160.009535 C211.231771,158.647887 210.587116,157.08568 209.225778,156.519975 L197.800262,151.769497 C196.438924,151.201994 194.875006,151.845944 194.306881,153.207592 L187.158956,169.954781 Z" id="Fill-125" fill="#FEFEFE"></path>
                    <path d="M114.983638,155.335144 C115.150204,156.79932 114.095887,158.121396 112.630108,158.288679 L100.333948,159.685402 C98.8681683,159.851786 97.5446452,158.799521 97.377179,157.334446 L95.725026,142.819496 C95.5584601,141.35532 96.6118765,140.032345 98.0785562,139.865062 L110.372916,138.469238 C111.839595,138.302855 113.164019,139.354219 113.329684,140.819295 L114.983638,155.335144 Z" id="Fill-127" fill="#FEFEFE"></path>
                    <path d="M88.3360754,159.512273 C88.7349331,160.931481 87.904805,162.40465 86.4849438,162.803072 L74.5714349,166.143336 C73.1506733,166.540858 71.6740897,165.713436 71.2761324,164.294229 L67.3244705,150.228065 C66.9265132,148.808858 67.7548406,147.334789 69.1756021,146.937267 L81.0900114,143.597902 C82.510773,143.198581 83.9864562,144.026902 84.3844135,145.446109 L88.3360754,159.512273 Z" id="Fill-129" fill="#FEFEFE"></path>
                    <path d="M61.9461947,169.673277 C62.5134189,171.034925 61.8687641,172.597133 60.5056253,173.162837 L49.08191,177.913315 C47.7196715,178.479919 46.154853,177.83507 45.5876288,176.475221 L38.4415043,159.728032 C37.8742801,158.367284 38.5180345,156.804177 39.8811733,156.238472 L51.305789,151.487994 C52.6680274,150.921391 54.2319456,151.56534 54.7991698,152.926089 L61.9461947,169.673277 Z" id="Fill-131" fill="#FEFEFE"></path>
                    <path d="M44.315426,179.309858 C44.421668,179.964601 45.0077996,183.604355 46.6698566,184.066632 C49.7940915,184.934525 51.6056075,186.059638 53.2955754,185.967003 C65.6259491,178.546292 89.8131093,167.506513 124.618166,167.506513 C155.094312,167.506513 177.372718,176.187242 190.688081,183.455959 C192.653558,184.474047 193.885244,185.198041 194.296707,185.444469 C196.597116,186.816909 198.432042,185.216028 202.570077,184.066632 C203.727935,183.745557 204.363586,180.282978 204.67781,179.873764 C200.547878,176.391399 172.843928,154.656299 124.618166,154.656299 C76.0736786,154.656299 48.1797534,176.130582 44.315426,179.309858" id="Fill-133" fill="#FEFEFE"></path>
                    <path d="M209.753116,162.23368 C210.321241,160.872931 209.676586,159.310724 208.314348,158.74412 L196.889732,153.993642 C195.527494,153.427038 193.962675,154.070988 193.396351,155.432636 L186.949803,170.535774 C184.10828,169.115667 180.939928,167.676674 177.45375,166.289843 L181.32618,152.506082 C181.724138,151.086875 180.89581,149.612806 179.475049,149.215284 L167.56064,145.875919 C166.139878,145.477497 164.664195,146.304919 164.266237,147.724126 L160.575679,160.86034 C157.758465,160.154334 154.813401,159.513082 151.742287,158.951875 L153.26749,145.553045 C153.434056,144.08707 152.38064,142.764994 150.91396,142.597711 L138.6187,141.201887 C137.152921,141.035504 135.829398,142.087768 135.662832,143.551944 L134.149333,156.830258 C131.067415,156.643189 127.89186,156.539762 124.618166,156.539762 C121.357978,156.539762 118.192326,156.639592 115.118511,156.821265 L113.575301,143.27134 C113.407835,141.807164 112.084312,140.7549 110.618533,140.921284 L98.323273,142.317108 C96.8556929,142.483491 95.8031769,143.806466 95.9697427,145.271542 L97.5201555,158.883523 C94.4553441,159.426743 91.5174829,160.050007 88.7056715,160.734428 L84.9718957,147.443523 C84.5730381,146.024315 83.0982552,145.196894 81.6774936,145.594416 L69.7630843,148.933781 C68.3414224,149.332202 67.5139954,150.806271 67.912853,152.224579 L71.7870843,166.019133 C68.2856004,167.372686 65.1055434,168.776604 62.2478139,170.161636 L55.8417819,155.151133 C55.2745577,153.790384 53.7106395,153.146435 52.3475007,153.713038 L40.9237854,158.462617 C39.5606466,159.029221 38.9168922,160.592328 39.4841164,161.953076 L46.6302409,178.700265 C46.7058708,178.881038 46.8004082,179.048321 46.9084509,179.203913 C45.6686609,180.103284 44.8016181,180.793101 44.315426,181.193321 C44.421668,181.848963 45.0068993,185.487818 46.6698566,185.949196 C49.7940915,186.817988 51.6056075,187.943101 53.2955754,187.850466 C65.6259491,180.429755 89.8131093,169.390875 124.618166,169.390875 C155.094312,169.390875 177.372718,178.069806 190.688081,185.338523 C192.653558,186.35751 193.885244,187.080604 194.296707,187.327931 C196.597116,188.700372 198.432042,187.099491 202.569177,185.949196 C203.727935,185.62812 204.363586,182.166441 204.67781,181.757227 C204.174511,181.333623 203.319173,180.636611 202.1208,179.742636 C202.319778,179.523189 202.487244,179.268667 202.606992,178.980869 L209.753116,162.23368 Z" id="Fill-135" fill="#9B9D9B"></path>
                    <g id="Group-139" transform="translate(99.939502, 226.641509)">
                        <mask id="mask-10" fill="white">
                            <use xlink:href="#path-9"></use>
                        </mask>
                        <g id="Clip-138"></g>
                        <path d="M0.135503559,55.6534415 C0.135503559,55.6534415 -1.13669929,-4.71594214 30.2515071,0.604737107 C30.2515071,0.604737107 53.7228843,0.795403774 51.1406637,56.2335358 C51.1406637,56.2335358 26.4421014,61.6081774 0.135503559,55.6534415" id="Fill-137" fill="#131E36" mask="url(#mask-10)"></path>
                    </g>
                </g>
                <g id="Group-174" transform="translate(13.505338, 207.580239)">
                    <g id="Group-143">
                        <mask id="mask-12" fill="white">
                            <use xlink:href="#path-11"></use>
                        </mask>
                        <g id="Clip-142"></g>
                        <path d="M66.5121694,13.6447182 C66.4086285,14.5566805 67.0640875,15.3805044 67.976148,15.4830327 L75.6255715,16.3518252 C76.5385324,16.4552528 77.362358,15.8005107 77.4658989,14.8885484 L78.4941053,5.85796352 C78.5985466,4.94600126 77.9430875,4.12307673 77.031027,4.01964906 L69.3807032,3.1508566 C68.4677423,3.0483283 67.6439167,3.70217107 67.5412762,4.61323396 L66.5121694,13.6447182 Z" id="Fill-141" fill="#FEFEFE" mask="url(#mask-12)"></path>
                    </g>
                    <g id="Group-146">
                        <mask id="mask-14" fill="white">
                            <use xlink:href="#path-13"></use>
                        </mask>
                        <g id="Clip-145"></g>
                        <path d="M83.3041665,15.8202069 C83.0565687,16.7015906 83.5715722,17.6198484 84.4557217,17.8662761 L91.869252,19.9447226 C92.7525011,20.1920497 93.6708641,19.6776094 93.9184619,18.7953264 L96.3773338,10.0426472 C96.6249317,9.16036415 96.1099281,8.24210629 95.2248783,7.99567862 L87.8122484,5.91723208 C86.9280989,5.66990503 86.0115367,6.18434528 85.7621381,7.06842704 L83.3041665,15.8202069 Z" id="Fill-144" fill="#FEFEFE" mask="url(#mask-14)"></path>
                    </g>
                    <g id="Group-149">
                        <mask id="mask-16" fill="white">
                            <use xlink:href="#path-15"></use>
                        </mask>
                        <g id="Clip-148"></g>
                        <path d="M99.4401644,22.4952491 C99.0872249,23.3415572 99.4887836,24.3146767 100.336019,24.6663308 L107.444328,27.6225635 C108.292463,27.975117 109.265748,27.5730981 109.618688,26.7276893 L114.064645,16.3084755 C114.417584,15.4603686 114.016026,14.4890478 113.168791,14.1364943 L106.060481,11.1802616 C105.213246,10.8277082 104.239962,11.2288277 103.887022,12.0760352 L99.4401644,22.4952491 Z" id="Fill-147" fill="#FEFEFE" mask="url(#mask-16)"></path>
                    </g>
                    <g id="Group-152">
                        <mask id="mask-18" fill="white">
                            <use xlink:href="#path-17"></use>
                        </mask>
                        <g id="Clip-151"></g>
                        <path d="M54.5314039,13.3996396 C54.6349448,14.3116019 53.9803861,15.1345264 53.0674253,15.2379541 L45.4171014,16.1058472 C44.5041406,16.2092748 43.6812153,15.5545327 43.5776744,14.6434698 L42.5485676,5.61198553 C42.4450267,4.70092264 43.1013861,3.87799811 44.0125463,3.77367107 L51.6628701,2.90577799 C52.575831,2.80235031 53.3996566,3.45619308 53.5031975,4.36815535 L54.5314039,13.3996396 Z" id="Fill-150" fill="#FEFEFE" mask="url(#mask-18)"></path>
                    </g>
                    <g id="Group-155">
                        <mask id="mask-20" fill="white">
                            <use xlink:href="#path-19"></use>
                        </mask>
                        <g id="Clip-154"></g>
                        <path d="M37.9531512,15.9984623 C38.1998488,16.8807453 37.6848452,17.7981038 36.8006957,18.0445314 L29.3871655,20.1238774 C28.5039164,20.3712044 27.584653,19.8567642 27.3379555,18.9744811 L24.8790836,10.2218019 C24.6314858,9.3386195 25.1464893,8.42126101 26.0306388,8.17393396 L33.4432687,6.09638679 C34.3283185,5.84816038 35.2457811,6.3635 35.4951797,7.24668239 L37.9531512,15.9984623 Z" id="Fill-153" fill="#FEFEFE" mask="url(#mask-20)"></path>
                    </g>
                    <g id="Group-158">
                        <mask id="mask-22" fill="white">
                            <use xlink:href="#path-21"></use>
                        </mask>
                        <g id="Clip-157"></g>
                        <path d="M21.5321907,22.3213107 C21.8860306,23.1676189 21.4844719,24.1389396 20.6363367,24.4914931 L13.528027,27.4468264 C12.6807922,27.7993799 11.7075075,27.3991597 11.3536676,26.5528516 L6.90771032,16.1327384 C6.55477082,15.2864302 6.95722989,14.3142101 7.80356441,13.9616566 L14.9109737,11.0063233 C15.7591089,10.6528704 16.733294,11.0548893 17.0862335,11.9002981 L21.5321907,22.3213107 Z" id="Fill-156" fill="#FEFEFE" mask="url(#mask-22)"></path>
                    </g>
                    <g id="Group-161">
                        <mask id="mask-24" fill="white">
                            <use xlink:href="#path-23"></use>
                        </mask>
                        <g id="Clip-160"></g>
                        <path d="M10.5626149,28.3174176 C10.6292413,28.7239333 10.9929851,30.9885497 12.0283943,31.2754491 C13.9713623,31.8168704 15.0995082,32.5165811 16.1493231,32.458122 C23.8221559,27.8416503 38.8707039,20.9731535 60.5269637,20.9731535 C79.4893587,20.9731535 93.3503374,26.3738767 101.634512,30.8959145 C102.858095,31.5299711 103.625199,31.9796566 103.8809,32.1334491 C105.311565,32.9869522 106.453216,31.9922478 109.027334,31.2754491 C109.748519,31.0757887 110.144675,28.9226943 110.339152,28.6681723 C107.769537,26.4997887 90.5331238,12.9768453 60.5269637,12.9768453 C30.3236256,12.9768453 12.9674655,26.3379019 10.5626149,28.3174176" id="Fill-159" fill="#FEFEFE" mask="url(#mask-24)"></path>
                    </g>
                    <g id="Group-164">
                        <mask id="mask-26" fill="white">
                            <use xlink:href="#path-25"></use>
                        </mask>
                        <g id="Clip-163"></g>
                        <path d="M66.3706335,15.0999906 C66.2670925,16.0110535 66.9216512,16.833978 67.8337117,16.9374057 L75.4840356,17.8070975 C76.3978968,17.9105252 77.2208221,17.2548836 77.324363,16.3447201 L78.3525694,7.31323585 C78.4561103,6.40127358 77.8006512,5.57834906 76.8894911,5.47492138 L69.2391673,4.60612893 C68.3262064,4.50270126 67.5023808,5.15654403 67.3988399,6.06760692 L66.3706335,15.0999906 Z" id="Fill-162" fill="#B2B6B6" mask="url(#mask-26)"></path>
                    </g>
                    <g id="Group-167">
                        <mask id="mask-28" fill="white">
                            <use xlink:href="#path-27"></use>
                        </mask>
                        <g id="Clip-166"></g>
                        <path d="M82.7370324,17.4160509 C82.4894345,18.298334 83.0053384,19.2156925 83.8885875,19.4630195 L91.3021178,21.541466 C92.1853669,21.7887931 93.1037299,21.2734535 93.3522281,20.3920698 L95.8111,11.6393906 C96.0586979,10.7571075 95.542794,9.83884969 94.6586445,9.59152264 L87.2451142,7.5130761 C86.3609648,7.26664843 85.4444025,7.78108868 85.1950039,8.66427107 L82.7370324,17.4160509 Z" id="Fill-165" fill="#B2B6B6" mask="url(#mask-28)"></path>
                    </g>
                    <g id="Group-170">
                        <mask id="mask-30" fill="white">
                            <use xlink:href="#path-29"></use>
                        </mask>
                        <g id="Clip-169"></g>
                        <path d="M98.8731203,23.8794711 C98.5201808,24.7257792 98.9226399,25.6988987 99.7689744,26.0505528 L106.878184,29.0058862 C107.725419,29.359339 108.698704,28.9582195 109.051643,28.1119113 L113.497601,17.6908987 C113.851441,16.8463893 113.448981,15.8732698 112.601747,15.5207164 L105.494337,12.5644836 C104.646202,12.2119302 103.672917,12.6130497 103.319978,13.4602572 L98.8731203,23.8794711 Z" id="Fill-168" fill="#B2B6B6" mask="url(#mask-30)"></path>
                    </g>
                    <g id="Group-173">
                        <mask id="mask-32" fill="white">
                            <use xlink:href="#path-31"></use>
                        </mask>
                        <g id="Clip-172"></g>
                        <path d="M60.5270537,14.1488157 C58.498552,14.1488157 56.5294737,14.209973 54.6162174,14.3241931 L53.6555377,5.89258931 C53.5519968,4.98242579 52.7290715,4.32768365 51.8161107,4.43111132 L44.1657868,5.29990377 C43.252826,5.40423082 42.5982673,6.22625597 42.7027085,7.13821824 L43.6660893,15.6066962 C41.7600359,15.9457591 39.9323135,16.3333881 38.1829221,16.7578912 L35.8591036,8.48907358 C35.6106053,7.60679057 34.6940431,7.09145094 33.8098936,7.33967736 L26.3963633,9.41632516 C25.5113135,9.66455157 24.99631,10.5819101 25.2448082,11.4659918 L27.6550609,20.0486899 C25.4761996,20.8896019 23.4990181,21.7628912 21.7199149,22.6253881 L17.7340395,13.2854195 C17.3811,12.4382119 16.4078153,12.0379918 15.5614808,12.3896459 L8.45227082,15.3458786 C7.60503594,15.6975327 7.20347722,16.6706522 7.55731708,17.516061 L12.0032744,27.9370736 C12.0509932,28.049495 12.1095164,28.153822 12.1770431,28.2509541 C11.4045377,28.8103629 10.8652246,29.2393629 10.562705,29.4884887 C10.6293313,29.8959038 10.9921747,32.1605201 12.0284843,32.4474195 C13.9714523,32.9879415 15.0995982,33.6885516 16.1494132,33.6309918 C23.8213456,29.0136208 38.870794,22.1442245 60.5270537,22.1442245 C79.4894488,22.1442245 93.3504274,27.5458472 101.634602,32.0678849 C102.858185,32.7010421 103.625289,33.151627 103.880089,33.3045201 C105.311655,34.1589226 106.453306,33.1633189 109.027424,32.4474195 C109.748609,32.2477591 110.143865,30.0937654 110.339242,29.8392434 C107.769627,27.6726585 90.5332139,14.1488157 60.5270537,14.1488157" id="Fill-171" fill="#9B9D9B" mask="url(#mask-32)"></path>
                    </g>
                </g>
                <g id="Group-208" transform="translate(175.569395, 207.580239)">
                    <g id="Group-177">
                        <mask id="mask-34" fill="white">
                            <use xlink:href="#path-33"></use>
                        </mask>
                        <g id="Clip-176"></g>
                        <path d="M-8.89614626,13.6447182 C-8.79350569,14.5566805 -9.44806441,15.3805044 -10.3610253,15.4830327 L-18.0113491,16.3518252 C-18.9234096,16.4552528 -19.7463349,15.8005107 -19.8507762,14.8885484 L-20.8789826,5.85796352 C-20.9825235,4.94600126 -20.3270644,4.12307673 -19.4150039,4.01964906 L-11.7646801,3.1508566 C-10.8526196,3.0483283 -10.028794,3.70217107 -9.92525302,4.61323396 L-8.89614626,13.6447182 Z" id="Fill-175" fill="#FEFEFE" mask="url(#mask-34)"></path>
                    </g>
                    <g id="Group-180">
                        <mask id="mask-36" fill="white">
                            <use xlink:href="#path-35"></use>
                        </mask>
                        <g id="Clip-179"></g>
                        <path d="M-25.6881434,15.8202069 C-25.4405456,16.7015906 -25.9555491,17.6198484 -26.8396986,17.8662761 L-34.2541292,19.9447226 C-35.1373783,20.1920497 -36.0557413,19.6776094 -36.3033391,18.7953264 L-38.7613107,10.0426472 C-39.0098089,9.16036415 -38.493905,8.24210629 -37.6097555,7.99567862 L-30.1971256,5.91723208 C-29.3120758,5.66990503 -28.3955135,6.18434528 -28.1470153,7.06842704 L-25.6881434,15.8202069 Z" id="Fill-178" fill="#FEFEFE" mask="url(#mask-36)"></path>
                    </g>
                    <g id="Group-183">
                        <mask id="mask-38" fill="white">
                            <use xlink:href="#path-37"></use>
                        </mask>
                        <g id="Clip-182"></g>
                        <path d="M-41.8251317,22.4952491 C-41.4712918,23.3415572 -41.8728505,24.3146767 -42.7200854,24.6663308 L-49.8292954,27.6225635 C-50.6765302,27.975117 -51.6498149,27.5730981 -52.0027544,26.7276893 L-56.4496121,16.3084755 C-56.8016512,15.4603686 -56.4009929,14.4890478 -55.553758,14.1364943 L-48.4463488,11.1802616 C-47.5973132,10.8277082 -46.6240285,11.2288277 -46.271089,12.0760352 L-41.8251317,22.4952491 Z" id="Fill-181" fill="#FEFEFE" mask="url(#mask-38)"></path>
                    </g>
                    <g id="Group-186">
                        <mask id="mask-40" fill="white">
                            <use xlink:href="#path-39"></use>
                        </mask>
                        <g id="Clip-185"></g>
                        <path d="M3.08452918,13.3996396 C2.9800879,14.3116019 3.63554698,15.1345264 4.54760747,15.2379541 L12.1979313,16.1058472 C13.1108922,16.2092748 13.9347178,15.5545327 14.0382587,14.6434698 L15.0664651,5.61198553 C15.1709064,4.70092264 14.514547,3.87799811 13.6033868,3.77367107 L5.95306299,2.90577799 C5.03920178,2.80235031 4.21627651,3.45619308 4.11363594,4.36815535 L3.08452918,13.3996396 Z" id="Fill-184" fill="#FEFEFE" mask="url(#mask-40)"></path>
                    </g>
                    <g id="Group-189">
                        <mask id="mask-42" fill="white">
                            <use xlink:href="#path-41"></use>
                        </mask>
                        <g id="Clip-188"></g>
                        <path d="M19.6628719,15.9984623 C19.415274,16.8807453 19.9311779,17.7981038 20.8153274,18.0445314 L28.2288577,20.1238774 C29.1112064,20.3712044 30.0304698,19.8567642 30.2780676,18.9744811 L32.7369395,10.2218019 C32.9854377,9.3386195 32.4686335,8.42126101 31.5835836,8.17393396 L24.1718541,6.09638679 C23.2868043,5.84816038 22.370242,6.3635 22.1217438,7.24668239 L19.6628719,15.9984623 Z" id="Fill-187" fill="#FEFEFE" mask="url(#mask-42)"></path>
                    </g>
                    <g id="Group-192">
                        <mask id="mask-44" fill="white">
                            <use xlink:href="#path-43"></use>
                        </mask>
                        <g id="Clip-191"></g>
                        <path d="M36.082932,22.3213107 C35.7299925,23.1676189 36.1315512,24.1389396 36.9787861,24.4914931 L44.0870957,27.4468264 C44.9361313,27.7993799 45.9085157,27.3991597 46.2614552,26.5528516 L50.7074125,16.1327384 C51.060352,15.2864302 50.6596936,14.3142101 49.8124587,13.9616566 L42.7032488,11.0063233 C41.8560139,10.6528704 40.8827292,11.0548893 40.5297897,11.9002981 L36.082932,22.3213107 Z" id="Fill-190" fill="#FEFEFE" mask="url(#mask-44)"></path>
                    </g>
                    <g id="Group-195">
                        <mask id="mask-46" fill="white">
                            <use xlink:href="#path-45"></use>
                        </mask>
                        <g id="Clip-194"></g>
                        <path d="M47.0534082,28.3174176 C46.9867819,28.7239333 46.6221377,30.9885497 45.5885292,31.2754491 C43.6437605,31.8168704 42.5174153,32.5165811 41.4648993,32.458122 C33.7938673,27.8416503 18.7444189,20.9731535 -2.91094057,20.9731535 C-21.8733356,20.9731535 -35.7343142,26.3738767 -44.019389,30.8959145 C-45.2429726,31.5299711 -46.0091754,31.9796566 -46.2648765,32.1334491 C-47.695542,32.9869522 -48.8380936,31.9922478 -51.412211,31.2754491 C-52.1324957,31.0757887 -52.5286523,28.9226943 -52.7231292,28.6681723 C-50.1544139,26.4997887 -32.9171007,12.9768453 -2.91094057,12.9768453 C27.2923975,12.9768453 44.6485577,26.3379019 47.0534082,28.3174176" id="Fill-193" fill="#FEFEFE" mask="url(#mask-46)"></path>
                    </g>
                    <g id="Group-198">
                        <mask id="mask-48" fill="white">
                            <use xlink:href="#path-47"></use>
                        </mask>
                        <g id="Clip-197"></g>
                        <path d="M-8.75461032,15.0999906 C-8.65196975,16.0110535 -9.30562811,16.833978 -10.2194893,16.9374057 L-17.8689128,17.8070975 C-18.7818737,17.9105252 -19.6047989,17.2548836 -19.7083399,16.3447201 L-20.7374466,7.31323585 C-20.8409875,6.40127358 -20.1846281,5.57834906 -19.273468,5.47492138 L-11.6231441,4.60612893 C-10.7110836,4.50270126 -9.88635765,5.15654403 -9.78371708,6.06760692 L-8.75461032,15.0999906 Z" id="Fill-196" fill="#B2B6B6" mask="url(#mask-48)"></path>
                    </g>
                    <g id="Group-201">
                        <mask id="mask-50" fill="white">
                            <use xlink:href="#path-49"></use>
                        </mask>
                        <g id="Clip-200"></g>
                        <path d="M-25.1210093,17.4160509 C-24.8734114,18.298334 -25.3893153,19.2156925 -26.2725644,19.4630195 L-33.686995,21.541466 C-34.5702441,21.7887931 -35.4877068,21.2734535 -35.736205,20.3920698 L-38.1950769,11.6393906 C-38.4426747,10.7571075 -37.9267708,9.83884969 -37.0426214,9.59152264 L-29.6299915,7.5130761 C-28.745842,7.26664843 -27.8283794,7.78108868 -27.5789808,8.66427107 L-25.1210093,17.4160509 Z" id="Fill-199" fill="#B2B6B6" mask="url(#mask-50)"></path>
                    </g>
                    <g id="Group-204">
                        <mask id="mask-52" fill="white">
                            <use xlink:href="#path-51"></use>
                        </mask>
                        <g id="Clip-203"></g>
                        <path d="M-41.2579975,23.8794711 C-40.9041577,24.7257792 -41.3066167,25.6988987 -42.1538516,26.0505528 L-49.2621612,29.0058862 C-50.1093961,29.359339 -51.0826808,28.9582195 -51.4356203,28.1119113 L-55.8824779,17.6908987 C-56.2354174,16.8463893 -55.8329584,15.8732698 -54.9866238,15.5207164 L-47.8783142,12.5644836 C-47.030179,12.2119302 -46.0577947,12.6130497 -45.7048552,13.4602572 L-41.2579975,23.8794711 Z" id="Fill-202" fill="#B2B6B6" mask="url(#mask-52)"></path>
                    </g>
                    <g id="Group-207">
                        <mask id="mask-54" fill="white">
                            <use xlink:href="#path-53"></use>
                        </mask>
                        <g id="Clip-206"></g>
                        <path d="M50.058706,17.5161509 C50.4125459,16.6707421 50.0109872,15.6976226 49.1637523,15.3459686 L42.0545423,12.3897358 C41.2073075,12.0380818 40.2340228,12.4383019 39.8810833,13.2855094 L35.8952078,22.625478 C34.117005,21.7629811 32.1389231,20.8896918 29.9609623,20.0478805 L32.3703146,11.4651824 C32.6197132,10.582 32.1038093,9.66464151 31.2196598,9.41641509 L23.8061295,7.3397673 C22.9219801,7.09154088 22.0045174,7.60598113 21.7560192,8.48916352 L19.4322007,16.7579811 C17.6837096,16.333478 15.8550868,15.9458491 13.9499338,15.6067862 L14.9133146,7.13830818 C15.0168555,6.22634591 14.3622968,5.40432075 13.4502363,5.29999371 L5.7990121,4.43120126 C4.88605125,4.32777358 4.06402633,4.98161635 3.95958505,5.89267925 L2.99980569,14.324283 C1.08654947,14.2100629 -0.882528826,14.1489057 -2.9110306,14.1489057 C-32.9171907,14.1489057 -50.1545039,27.6727484 -52.7232192,29.8393333 C-52.527842,30.092956 -52.1325858,32.2478491 -51.4123011,32.4475094 C-48.8381836,33.1625094 -47.695632,34.1590126 -46.2649665,33.3046101 C-46.0092655,33.151717 -45.2430626,32.7011321 -44.019479,32.0679748 C-35.7344043,27.5450377 -21.8734256,22.1443145 -2.9110306,22.1443145 C18.7443288,22.1443145 33.7946776,29.0137107 41.4648093,33.6310818 C42.5173253,33.6877421 43.6436705,32.9880314 45.5884391,32.4475094 C46.622948,32.1606101 46.9866918,29.8959937 47.0533181,29.4885786 C46.7507986,29.2394528 46.2114854,28.8104528 45.4398804,28.251044 C45.5065068,28.1539119 45.5659302,28.0495849 45.6136491,27.9371635 L50.058706,17.5161509 Z" id="Fill-205" fill="#9B9D9B" mask="url(#mask-54)"></path>
                    </g>
                </g>
                <g id="Group-263" transform="translate(8.103203, 34.001623)">
                    <path d="M73.4679587,171.718807 C73.4679587,172.527342 72.8097986,173.183882 72.0003786,173.183882 L64.2942327,173.183882 C63.4839125,173.183882 62.827553,172.527342 62.827553,171.718807 L62.827553,161.457882 C62.827553,160.644851 63.4839125,159.98831 64.2942327,159.98831 L72.0003786,159.98831 C72.8097986,159.98831 73.4679587,160.644851 73.4679587,161.457882 L73.4679587,171.718807 Z" id="Fill-209" fill="#131E36"></path>
                    <path d="M121.841829,167.318544 C121.841829,168.129777 121.184569,168.784519 120.371548,168.784519 L112.664501,168.784519 C111.856882,168.784519 111.197822,168.129777 111.197822,167.318544 L111.197822,157.05672 C111.197822,156.245487 111.856882,155.588947 112.664501,155.588947 L120.371548,155.588947 C121.184569,155.588947 121.841829,156.245487 121.841829,157.05672 L121.841829,167.318544 Z" id="Fill-211" fill="#131E36"></path>
                    <path d="M170.214889,171.718807 C170.214889,172.527342 169.557629,173.183882 168.746408,173.183882 L161.041163,173.183882 C160.229942,173.183882 159.573583,172.527342 159.573583,171.718807 L159.573583,161.457882 C159.573583,160.644851 160.229942,159.98831 161.041163,159.98831 L168.746408,159.98831 C169.557629,159.98831 170.214889,160.644851 170.214889,161.457882 L170.214889,171.718807 Z" id="Fill-213" fill="#131E36"></path>
                    <path d="M125.961137,161.654485 C125.961137,167.091183 121.549393,171.498101 116.106742,171.498101 C110.664991,171.498101 106.252347,167.091183 106.252347,161.654485 C106.252347,156.217787 110.664991,151.810869 116.106742,151.810869 C121.549393,151.810869 125.961137,156.217787 125.961137,161.654485" id="Fill-215" fill="#131E36"></path>
                    <path d="M92.208326,34.9028824 L95.2209167,36.7501906 L95.3640733,40.2424484 C95.3559701,41.1085428 95.9916214,40.5149579 95.9916214,40.5149579 L98.6683794,38.2341528 L102.007799,39.1245302 C102.851433,39.3250899 102.395853,38.4374107 102.395853,38.4374107 L101.147059,35.4137252 L102.885646,32.7300019 C103.72928,31.707417 102.461579,31.937656 102.461579,31.937656 L99.2266,32.1912786 L97.3043402,29.8187377 C97.3043402,29.8187377 96.575052,28.5695113 96.3256534,29.8529138 L95.565753,33.0160019 L92.3901979,34.2373478 C91.4853402,34.5269453 92.208326,34.9028824 92.208326,34.9028824" id="Fill-217" fill="#FEFEFE"></path>
                    <path d="M114.926465,21.2502497 L114.585231,23.2810296 L112.727796,24.1219415 C112.25691,24.3081113 112.716992,24.5212623 112.716992,24.5212623 L114.538412,25.4665013 L114.787811,27.4658031 C114.864341,27.9640547 115.245191,27.5251616 115.245191,27.5251616 L116.605629,26.1877969 L118.438754,26.5394509 C119.178846,26.7696899 118.775487,26.1365327 118.775487,26.1365327 L117.930053,24.4448157 L118.793494,22.8889038 C118.793494,22.8889038 119.309398,22.2215704 118.559401,22.3672686 L116.682159,22.6496711 L115.326223,21.2016836 C114.972384,20.7771805 114.926465,21.2502497 114.926465,21.2502497" id="Fill-219" fill="#FEFEFE"></path>
                    <path d="M142.271264,27.3991597 L141.93183,29.4317384 L140.074395,30.2726503 C139.602609,30.4579208 140.062691,30.6710717 140.062691,30.6710717 L141.884111,31.6181094 L142.13441,33.6156126 C142.21004,34.1147635 142.58999,33.6749711 142.58999,33.6749711 L143.952228,32.3385057 L145.785353,32.6901597 C146.524545,32.9203987 146.120285,32.2863421 146.120285,32.2863421 L145.276652,30.5955245 L146.140093,29.0387132 C146.140093,29.0387132 146.654196,28.3704805 145.906,28.5179774 L144.027858,28.8003799 L142.671922,27.3523925 C142.318983,26.9269899 142.271264,27.3991597 142.271264,27.3991597" id="Fill-221" fill="#FEFEFE"></path>
                    <path d="M105.550159,10.2325044 L105.335875,11.5195044 L104.158209,12.0528314 C103.859291,12.1706491 104.151907,12.3055547 104.151907,12.3055547 L105.304362,12.9045358 L105.462825,14.1699509 C105.511444,14.4865296 105.75274,14.2068252 105.75274,14.2068252 L106.61528,13.360517 L107.77674,13.5844604 C108.244024,13.7292591 107.989223,13.3281396 107.989223,13.3281396 L107.452611,12.2569887 L108.000028,11.271278 C108.000028,11.271278 108.326857,10.8485736 107.852369,10.9412088 L106.662999,11.1201836 L105.80496,10.2028252 C105.579871,9.93301384 105.550159,10.2325044 105.550159,10.2325044" id="Fill-223" fill="#FEFEFE"></path>
                    <path d="M133.885889,19.2661472 L133.670704,20.5531472 L132.492138,21.0855748 C132.195021,21.2033925 132.486736,21.3382981 132.486736,21.3382981 L133.640092,21.9372792 L133.797654,23.2026943 C133.846274,23.519273 134.088469,23.2404679 134.088469,23.2404679 L134.95011,22.3950591 L136.110669,22.6163044 C136.577953,22.7629019 136.324053,22.3617824 136.324053,22.3617824 L135.788341,21.2906314 L136.334857,20.3040214 C136.334857,20.3040214 136.660786,19.881317 136.188099,19.9748516 L134.997829,20.152927 L134.138889,19.2355686 C133.914701,18.9666566 133.885889,19.2661472 133.885889,19.2661472" id="Fill-225" fill="#FEFEFE"></path>
                    <path d="M116.261243,5.70489057 L118.968613,7.36333082 L119.096464,10.4994377 C119.089261,11.2782931 119.659186,10.7440667 119.659186,10.7440667 L122.064037,8.69529937 L125.061321,9.49573962 C125.819421,9.67651321 125.41246,8.87877107 125.41246,8.87877107 L124.288816,6.16446918 L125.851834,3.75325535 C126.608133,2.83409811 125.470983,3.0427522 125.470983,3.0427522 L122.564635,3.26939371 L120.838652,1.13878365 C120.838652,1.13878365 120.182293,0.0181672956 119.959005,1.17116101 L119.279236,4.01047547 L116.426008,5.10680881 C115.612987,5.36672704 116.261243,5.70489057 116.261243,5.70489057" id="Fill-227" fill="#FEFEFE"></path>
                    <path d="M121.887567,35.5739031 L125.577225,35.9993057 L127.25909,39.2613245 C127.636339,40.0905447 127.978474,39.2433371 127.978474,39.2433371 L129.516282,35.8877836 L133.091595,35.2582239 C133.983848,35.0765509 133.156421,34.4317019 133.156421,34.4317019 L130.627321,32.1068277 L131.094606,28.7791547 C131.441243,27.4327962 130.337407,28.2125509 130.337407,28.2125509 L127.369834,29.8853811 L124.488695,28.4760667 C124.488695,28.4760667 123.239001,27.6108717 123.570332,28.9428403 L124.2483,32.2911987 L121.766019,34.8580038 C121.032229,35.5343308 121.887567,35.5739031 121.887567,35.5739031" id="Fill-229" fill="#FEFEFE"></path>
                    <path d="M34.0879235,71.5847208 L37.5768025,73.7225258 L37.7415676,77.7660981 C37.7325641,78.7679975 38.4690552,78.080878 38.4690552,78.080878 L41.5680801,75.4403245 L45.4333078,76.4719031 C46.410194,76.7039409 45.8834858,75.6759597 45.8834858,75.6759597 L44.4366139,72.1774063 L46.4498096,69.0691799 C47.424895,67.8856075 45.9582153,68.1527208 45.9582153,68.1527208 L42.2136352,68.4459157 L39.9888559,65.6992365 C39.9888559,65.6992365 39.1434217,64.2548465 38.8562082,65.7388088 L37.9765605,69.4010478 L34.2995071,70.8148591 C33.2523932,71.1494252 34.0879235,71.5847208 34.0879235,71.5847208" id="Fill-231" fill="#FEFEFE"></path>
                    <path d="M63.3723584,63.2084283 L62.9780025,65.5602836 L60.8270523,66.5334031 C60.282337,66.7483528 60.816248,66.9947805 60.816248,66.9947805 L62.9230808,68.0911138 L63.2111947,70.4033969 C63.3003299,70.9807931 63.7415043,70.4726484 63.7415043,70.4726484 L65.3153263,68.9248308 L67.4392658,69.3322459 C68.2946039,69.5984597 67.8282196,68.8654723 67.8282196,68.8654723 L66.8486324,66.9075415 L67.8498281,65.1043025 C67.8498281,65.1043025 68.4458637,64.3326421 67.578821,64.5026233 L65.4062623,64.829095 L63.8351413,63.1526673 C63.4263797,62.6616107 63.3723584,63.2084283 63.3723584,63.2084283" id="Fill-233" fill="#FEFEFE"></path>
                    <path d="M52.4361858,72.6422013 L52.0427302,74.994956 L49.8917801,75.9680755 C49.3452641,76.1830252 49.8791751,76.4294528 49.8791751,76.4294528 L51.9860078,77.5248868 L52.2759224,79.8380692 C52.3650577,80.4163648 52.8044313,79.9064214 52.8044313,79.9064214 L54.3800541,78.3586038 L56.5039936,78.7669182 C57.3584313,79.0331321 56.8911466,78.3001447 56.8911466,78.3001447 L55.9133601,76.3422138 L56.9136555,74.5389748 C56.9136555,74.5389748 57.5096911,73.7664151 56.6426484,73.9363962 L54.4691893,74.2628679 L52.8989687,72.5873396 C52.4911075,72.0953836 52.4361858,72.6422013 52.4361858,72.6422013" id="Fill-235" fill="#FEFEFE"></path>
                    <path d="M48.2958093,56.0595975 L48.047311,57.5498553 L46.6832719,58.1659245 C46.3375352,58.3035283 46.676069,58.4582201 46.676069,58.4582201 L48.0094961,59.1525346 L48.1931687,60.6176101 C48.2498911,60.9836541 48.5299018,60.6607799 48.5299018,60.6607799 L49.5274961,59.6804654 L50.8726278,59.9385849 C51.4137416,60.1067673 51.1193253,59.6426918 51.1193253,59.6426918 L50.4980797,58.4033585 L51.1310299,57.2611572 C51.1310299,57.2611572 51.508279,56.7718994 50.9599623,56.8798239 L49.5833181,57.0866792 L48.5893253,56.024522 C48.3291224,55.7133396 48.2958093,56.0595975 48.2958093,56.0595975" id="Fill-237" fill="#FEFEFE"></path>
                    <path d="M22.8985708,117.11718 L18.8298626,117.563268 L16.219731,114.47123 C15.6110904,113.672589 15.4517274,114.667293 15.4517274,114.667293 L14.6234,118.649708 L10.9373431,120.202023 C10.0225815,120.617532 11.068795,121.10679 11.068795,121.10679 L14.3595957,122.984677 L14.676521,126.672997 C14.6306028,128.207325 15.6272968,127.097501 15.6272968,127.097501 L18.4048947,124.572067 L21.8478555,125.380601 C21.8478555,125.380601 23.4036705,126.003865 22.7194,124.653909 L21.1662861,121.223708 L23.2046918,117.854664 C23.8259374,116.948997 22.8985708,117.11718 22.8985708,117.11718" id="Fill-239" fill="#FEFEFE"></path>
                    <path d="M11.9958014,112.725731 L11.2241964,111.291234 L11.976894,109.86753 C12.1803744,109.52397 11.7896199,109.613008 11.7896199,109.613008 L10.193289,109.903504 L9.06874448,108.775693 C8.77882989,108.501385 8.75271957,108.960064 8.75271957,108.960064 L8.55284057,110.453919 L7.23652028,111.122152 C6.66389395,111.337102 7.22211459,111.536762 7.22211459,111.536762 L8.57084769,112.18341 L8.7869331,113.573838 C8.7869331,113.573838 8.78783345,114.241171 9.18579075,113.786089 L10.2202996,112.701448 L11.7707125,112.949674 C12.1974811,113.043209 11.9958014,112.725731 11.9958014,112.725731" id="Fill-241" fill="#FEFEFE"></path>
                    <path d="M7.75341459,127.516158 L6.6207669,125.417026 L7.72280249,123.330485 C8.022621,122.826837 7.44909431,122.958145 7.44909431,122.958145 L5.11177046,123.382648 L3.46321886,121.732303 C3.03915125,121.330284 3.00403737,122.003013 3.00403737,122.003013 L2.70782028,124.190284 L0.781959075,125.1679 C-0.0571725979,125.479982 0.76125089,125.774076 0.76125089,125.774076 L2.73483096,126.722913 L3.05085587,128.759089 C3.05085587,128.759089 3.0544573,129.734007 3.63608719,129.069372 L5.15228648,127.480183 L7.42118327,127.84263 C8.04603025,127.981133 7.75341459,127.516158 7.75341459,127.516158" id="Fill-243" fill="#FEFEFE"></path>
                    <path d="M11.8770445,134.158193 L11.1594609,132.828023 L11.858137,131.505948 C12.0472117,131.186671 11.6843683,131.270313 11.6843683,131.270313 L10.205984,131.539225 L9.16067082,130.494155 C8.89236477,130.239633 8.86895552,130.665036 8.86895552,130.665036 L8.68168149,132.050967 L7.46079893,132.670633 C6.93048932,132.868495 7.44819395,133.054665 7.44819395,133.054665 L8.69878826,133.654545 L8.89956762,134.944243 C8.89956762,134.944243 8.90136833,135.562111 9.26961388,135.141206 L10.2293932,134.13391 L11.6672616,134.365048 C12.0634181,134.452287 11.8770445,134.158193 11.8770445,134.158193" id="Fill-245" fill="#FEFEFE"></path>
                    <path d="M176.600032,73.9604994 L176.258798,75.9921786 L174.400463,76.8330906 C173.929577,77.018361 174.390559,77.2315119 174.390559,77.2315119 L176.211079,78.1785497 L176.460477,80.1769522 C176.537007,80.6761031 176.918758,80.2363107 176.918758,80.2363107 L178.278296,78.8989459 L180.11142,79.2514994 C180.851513,79.480839 180.448153,78.8476818 180.448153,78.8476818 L179.601819,77.1568642 L180.46616,75.5991535 C180.46616,75.5991535 180.982064,74.9318201 180.232068,75.0784176 L178.354826,75.3617195 L176.99889,73.9119333 C176.645951,73.4883296 176.600032,73.9604994 176.600032,73.9604994" id="Fill-247" fill="#FEFEFE"></path>
                    <path d="M167.223636,62.9436535 L167.008451,64.2306535 L165.830786,64.7630811 C165.532768,64.8817981 165.824483,65.0158044 165.824483,65.0158044 L166.976939,65.6147855 L167.135401,66.8802006 C167.184021,67.1967792 167.425316,66.9179742 167.425316,66.9179742 L168.287857,66.0725654 L169.450216,66.2956094 C169.916601,66.4395088 169.6618,66.0383893 169.6618,66.0383893 L169.125188,64.9681377 L169.673505,63.982427 C169.673505,63.982427 169.999433,63.5588233 169.524946,63.6514585 L168.335576,63.8313327 L167.477537,62.9139742 C167.252448,62.6441629 167.223636,62.9436535 167.223636,62.9436535" id="Fill-249" fill="#FEFEFE"></path>
                    <path d="M195.558466,71.9769365 L195.344181,73.2648358 L194.164715,73.7963642 C193.867598,73.9141818 194.159313,74.0490874 194.159313,74.0490874 L195.313569,74.6471692 L195.470231,75.9134836 C195.51885,76.2300623 195.761046,75.9512572 195.761046,75.9512572 L196.623587,75.1058484 L197.784146,75.3279931 C198.25143,75.4736912 197.99663,75.0725717 197.99663,75.0725717 L197.460918,74.0023201 L198.008334,73.0157101 C198.008334,73.0157101 198.334263,72.5930057 197.861576,72.6856409 L196.670405,72.8637164 L195.812366,71.9472572 C195.586377,71.6774459 195.558466,71.9769365 195.558466,71.9769365" id="Fill-251" fill="#FEFEFE"></path>
                    <path d="M177.93382,58.4164893 L180.64119,60.0749296 L180.76904,63.2110365 C180.762738,63.9889925 181.331763,63.4556654 181.331763,63.4556654 L183.736613,61.4068981 L186.734798,62.206439 C187.491998,62.3872126 187.085037,61.5894704 187.085037,61.5894704 L185.961393,58.8751686 L187.52441,56.4639547 C188.280709,55.5456969 187.14356,55.7534516 187.14356,55.7534516 L184.238111,55.9800931 L182.511229,53.849483 C182.511229,53.849483 181.854869,52.729766 181.632481,53.8818604 L180.951812,56.7211748 L178.098585,57.8175082 C177.285563,58.0774264 177.93382,58.4164893 177.93382,58.4164893" id="Fill-253" fill="#FEFEFE"></path>
                    <path d="M220.654985,120.455555 L219.512434,118.739555 L220.292142,116.858071 C220.509128,116.401191 220.026537,116.560379 220.026537,116.560379 L218.050256,117.113492 L216.500743,115.826492 C216.102786,115.513511 216.126195,116.095404 216.126195,116.095404 L216.048765,118.000272 L214.470441,118.995876 C213.772665,119.332241 214.501053,119.51931 214.501053,119.51931 L216.276555,120.175851 L216.712327,121.901744 C216.712327,121.901744 216.791558,122.741757 217.239936,122.12209 L218.4149,120.633631 L220.396583,120.76314 C220.9449,120.830593 220.654985,120.455555 220.654985,120.455555" id="Fill-255" fill="#FEFEFE"></path>
                    <path d="M227.575571,118.469294 L226.528457,117.690439 L226.590581,116.399842 C226.621194,116.081464 226.368194,116.279326 226.368194,116.279326 L225.308475,117.030301 L224.1083,116.594106 C223.805781,116.492477 223.943535,116.834238 223.943535,116.834238 L224.303678,117.987231 L223.57529,118.91898 C223.232254,119.267036 223.705841,119.223867 223.705841,119.223867 L224.904215,119.236458 L225.532663,120.171804 C225.532663,120.171804 225.761354,120.655665 225.895507,120.19159 L226.279058,119.052087 L227.487336,118.708527 C227.829471,118.631181 227.575571,118.469294 227.575571,118.469294" id="Fill-257" fill="#FEFEFE"></path>
                    <path d="M211.494945,123.274904 L210.769258,122.189363 L211.265354,120.995897 C211.401308,120.7063 211.096988,120.807929 211.096988,120.807929 L209.845493,121.157784 L208.863205,120.342954 C208.611105,120.145992 208.62461,120.513835 208.62461,120.513835 L208.575991,121.719891 L207.576596,122.35035 C207.135422,122.563501 207.596404,122.683118 207.596404,122.683118 L208.720948,123.098627 L208.997358,124.191363 C208.997358,124.191363 209.047778,124.721992 209.330489,124.330765 L210.075984,123.388225 L211.33018,123.470967 C211.678617,123.513237 211.494945,123.274904 211.494945,123.274904" id="Fill-259" fill="#FEFEFE"></path>
                    <path d="M229.87661,126.962775 L226.766781,127.602228 L224.527596,125.403265 C223.999087,124.828567 223.947767,125.609221 223.947767,125.609221 L223.596628,128.745328 L220.862247,130.210404 C220.18518,130.596234 221.029714,130.899322 221.029714,130.899322 L223.705571,132.112574 L224.217874,134.939297 C224.294404,136.125567 224.981375,135.197416 224.981375,135.197416 L226.946852,133.04702 L229.665027,133.422058 C229.665027,133.422058 230.910219,133.7908 230.283571,132.797894 L228.8376,130.260769 L230.167425,127.511391 C230.582489,126.766712 229.87661,126.962775 229.87661,126.962775" id="Fill-261" fill="#FEFEFE"></path>
                </g>
            </g>
        </g>
    </g>
</svg>