<?xml version="1.0" encoding="UTF-8"?>
<svg width="288px" height="32px" viewBox="0 0 288 32" version="1.1" xmlns="http://www.w3.org/2000/svg" xmlns:xlink="http://www.w3.org/1999/xlink">
    <title>Group 24</title>
    <defs>
        <polygon id="path-1" points="0.103974917 0.216545343 24.1804097 0.216545343 24.1804097 17.4137345 0.103974917 17.4137345"></polygon>
        <polygon id="path-3" points="0 0.0663344538 27.5339193 0.0663344538 27.5339193 6.66761176 0 6.66761176"></polygon>
    </defs>
    <g id="2021桃園兒童節" stroke="none" stroke-width="1" fill="none" fill-rule="evenodd">
        <g id="01_index" transform="translate(-40.000000, -22.000000)">
            <g id="Group-24" transform="translate(40.000000, 22.000000)">
                <g id="Group-20" transform="translate(66.000000, 0.000000)" fill="#1AAD85">
                    <path d="M12.0650717,9.50492484 C12.0224404,9.96868579 12.1232456,10.3632287 12.3634908,10.6903993 L12.3799216,10.7167022 L12.3990169,10.7291615 L14.1033808,11.923865 L14.1469002,11.9326327 C14.5847592,11.973702 14.945349,11.8666448 15.2215643,11.6128453 L15.2486529,11.5925413 L15.4915626,11.0900182 C15.4951152,10.8251438 15.4977796,10.5611923 15.5,10.2986252 L15.482681,10.1449611 L15.4493753,10.0914325 L14.7912546,9.3549524 L14.7783764,9.3549524 L14.7286399,9.30142377 C14.361389,8.96456258 13.964385,8.70753289 13.5562791,8.54556264 L13.5345194,8.5400252 C13.4581383,8.53264194 13.3933032,8.52941176 13.3315766,8.52941176 C12.971875,8.52941176 12.6650184,8.63416175 12.3927998,8.84966062 L12.3621586,8.87411766 L12.0650717,9.4864667 L12.0650717,9.50492484 Z" id="Fill-1"></path>
                    <path d="M12.5702084,12.2300187 L12.9451591,11.541846 L12.9451591,11.5231202 C12.9984829,11.00452 12.8733122,10.5618633 12.5746988,10.1946298 L12.565718,10.1868274 L9.87482957,7.40136677 L10.2054373,7.3836813 C10.6017174,7.36235471 11.0131528,7.35143134 11.4290786,7.35143134 C12.1149914,7.35143134 12.7554385,7.19278232 13.3313358,6.88016573 L13.3812918,6.85259722 L13.4116022,6.80526259 L13.7657846,6.10564643 C13.8196697,5.56936074 13.6922538,5.15479265 13.377924,4.82501076 L13.3543492,4.79484144 L12.595467,4.44685392 L12.539898,4.44685392 L9.05757186,4.56284976 L9.18386512,1.71080858 C9.22652417,1.19116803 9.09910831,0.780761228 8.79488187,0.450459176 L8.77299104,0.421330176 L7.89398995,0.0109233749 L7.87378303,0.0109233749 C7.77499364,0.00364112498 7.69192074,0 7.61221566,0 C7.14015952,0 6.76240234,0.121197446 6.45761461,0.370354427 L6.43123335,0.394281819 C6.20053766,0.655922657 6.04674054,0.984664227 5.98219065,1.36386139 L5.98219065,4.68248673 L3.17511245,4.44633376 C3.02805097,4.4260475 2.89389946,4.41616444 2.76536099,4.41616444 C2.30060179,4.41616444 1.88972772,4.54412398 1.54452614,4.79588176 L1.50298969,4.82501076 L1.48446668,4.85778089 L1.12691643,5.51682451 L1.12691643,5.53503013 C1.0719087,6.08588033 1.19539544,6.52905725 1.5041123,6.90201248 L1.52937095,6.93426245 L1.57371392,6.95038743 C2.10077779,7.17821782 2.66993941,7.32334266 3.27502445,7.38420146 C3.71059588,7.42633448 4.15627076,7.45806428 4.59857782,7.47835055 L4.83825436,7.48927393 L4.73497454,7.69005596 C3.87449646,9.35717104 3.07632306,11.0747417 2.36234516,12.7954333 C1.63321207,14.5691814 0.876013816,16.3959858 0.0492139402,18.3788384 L0.0492139402,18.4168102 L0.0267618051,18.4594633 C-0.0613628253,19.011874 0.0677369517,19.4633735 0.420235473,19.8384094 L0.483662755,19.8867843 L1.18641458,20.2155259 L1.20718281,20.2155259 C1.30260438,20.2228082 1.38230946,20.2269694 1.45864672,20.2269694 C1.90768943,20.2269694 2.28769181,20.1021309 2.58798912,19.8560948 L2.63962903,19.798357 C2.81924611,19.4436074 2.99381146,19.0935392 3.16332508,18.749713 C3.33676783,18.3954836 3.50010711,18.0428146 3.6477299,17.7026295 C3.79198487,17.3692065 3.93792374,17.0253803 4.09172087,16.6508645 C4.22811759,16.3153609 4.35890128,15.9699742 4.49024627,15.5959786 C4.83095742,14.6466853 5.24800583,13.687509 5.72904282,12.7428971 L6.03326925,12.8079172 L5.84579393,26.9874982 C5.84579393,27.1825585 5.86487824,27.3724171 5.90192426,27.5513524 C5.93784768,27.7318482 5.99566193,27.9149448 6.07312179,28.0949204 C6.15002036,28.2712548 6.24263541,28.4418676 6.34984436,28.6015569 L6.3734191,28.6301657 L6.43347856,28.663456 L7.13454648,28.9916774 L7.15587601,28.9916774 C7.23951021,28.996879 7.31023444,29 7.37927475,29 C7.58807961,29 7.78397449,28.9776331 7.96134636,28.9339396 C8.19484856,28.8756816 8.39467257,28.7773712 8.57092183,28.6332867 L8.60460003,28.6109198 L8.97898938,27.9170254 L8.97898938,27.8722916 L9.11819262,11.0310482 L11.1198005,12.6029739 L11.1815438,12.6123368 C11.2522681,12.6185787 11.3330958,12.6216997 11.4105556,12.6216997 C11.8635274,12.6216997 12.2328651,12.5010224 12.5376528,12.2518654 L12.5702084,12.2300187 Z" id="Fill-3"></path>
                    <path d="M18.4678457,2.06819365 L17.7697868,1.71658353 L17.7524374,1.71658353 C17.6656903,1.70893983 17.5927207,1.70588235 17.5233231,1.70588235 C17.1089782,1.70588235 16.7737262,1.82410489 16.4966458,2.06819365 L16.4721525,2.09316306 C16.364484,2.21902929 16.2705931,2.3683362 16.1996646,2.52987302 C16.1287361,2.68886195 16.084342,2.85498499 16.0629103,3.03894332 L16.0629103,3.07716182 C16.132308,5.16796807 16.1573116,7.38209266 16.1369005,9.65227103 L16.1874179,10.3142153 L16.1879282,10.4451773 L16.1256744,10.5939747 C16.1037325,12.1160898 16.0624001,13.6978257 16.0011668,15.2968874 L15.9975949,15.3886118 L15.9133992,15.4247919 C15.0551133,15.7916895 14.2049919,16.1769318 13.3865076,16.5708371 C12.4940332,17.0009225 11.6250315,17.4733031 10.8034855,17.9752392 L10.7478653,18.0083619 L10.7249029,18.0389367 L10.3442363,18.7396091 L10.3442363,18.767636 C10.2952497,19.2930128 10.4110825,19.699148 10.6968376,20.0217121 L10.7182693,20.0522868 L11.4188796,20.4018586 L11.4648045,20.394215 C11.8648617,20.3244025 12.2582852,20.2173907 12.6343593,20.0762371 C13.0063513,19.9350835 13.3686479,19.7516347 13.7100232,19.5314962 C14.2340777,19.1854915 14.8249784,18.8940118 15.465376,18.6626625 L15.6802026,18.5857159 L15.658771,18.812479 C15.5347737,20.1429921 15.19646,21.437325 14.6514842,22.6598071 C14.3509311,23.3151268 14.0258847,23.9729945 13.6845094,24.6171034 C13.3446649,25.2596837 12.9716524,25.9078693 12.5756775,26.5428058 L12.5328142,26.6115991 L12.3991216,26.6115991 L12.3480939,26.7058714 L12.0225372,27.3489612 L12.0225372,27.3657773 C11.9740609,27.890135 12.0893835,28.2962702 12.3756489,28.6218917 L12.39606,28.6499186 L12.4236149,28.6636773 L13.07779,28.990318 L13.0890161,28.990318 C13.1732118,28.9969425 13.2441403,29 13.3120072,29 C13.7732975,29 14.1519231,28.8619039 14.4698256,28.5770487 L14.5004422,28.5480026 C16.2476306,26.3537517 17.4197368,23.9042012 17.9830826,21.2676349 C18.1172855,20.6087481 18.2397519,19.8958458 18.3463998,19.1503305 C18.4520272,18.4190833 18.5469387,17.6124184 18.6265419,16.751738 C18.704104,15.90023 18.7638064,14.9982736 18.8046286,14.0744053 C18.8454507,13.1250579 18.8714748,12.1293388 18.8821907,11.1152749 C18.9204614,7.18539483 18.9444444,4.6176218 18.9444444,3.96179249 C18.9444444,3.29831948 18.7928922,2.67867035 18.495911,2.12118996 L18.4678457,2.06819365 Z" id="Fill-5"></path>
                    <path d="M30.9771919,27.7994043 C30.9354127,27.4473041 30.895091,27.095712 30.8567125,26.7334501 C30.8173623,26.3732206 30.7780122,26.0180719 30.7376905,25.668004 C30.6609334,24.9373834 30.4986748,24.2250537 30.2567444,23.5503219 L30.2334258,23.4924007 L30.170757,23.4548027 L29.5615587,23.1331873 L29.5435839,23.1331873 C29.4609972,23.1255661 29.3915272,23.1225176 29.3259437,23.1225176 C28.9314707,23.1225176 28.61084,23.2403924 28.3475341,23.4837633 L28.3198433,23.5056108 L27.9943545,24.1920284 L27.9943545,24.2575708 L28.1502977,26.0577022 L27.9321716,25.9515133 C27.4356798,25.7076344 26.9056675,25.3087907 26.3567088,24.7646358 C25.6445199,24.0751697 25.2466463,23.3298147 25.1742615,22.5534668 C25.1047915,21.8172572 25.0994477,20.0100127 25.1592016,17.1825413 L25.1669745,16.817231 L25.4006463,17.0890544 C25.9340592,17.7119618 26.3902293,18.2210591 26.7939325,18.6478472 C27.202008,19.0792081 27.5741339,19.4394376 27.8996227,19.7198984 C28.2251115,20.0008672 28.5054205,20.2030835 28.732291,20.3219745 L28.757067,20.3372169 L28.7740702,20.3372169 C28.8586001,20.3448382 28.9280701,20.3483947 28.9965685,20.3483947 C29.3837543,20.3483947 29.7286753,20.2295037 30.0225868,19.9952783 L30.0561073,19.9683501 L30.3820818,19.2926022 L30.3820818,19.2748193 C30.4277474,18.7535281 30.3194131,18.3496036 30.0502776,18.0274802 L26.9144119,14.6954842 L26.3061852,14.3743769 L26.2882104,14.3743769 C26.2080527,14.3667557 26.1414976,14.3631992 26.0773714,14.3631992 C25.9641791,14.3631992 25.8524441,14.3743769 25.7445956,14.3957164 C25.5755357,14.4292497 25.4113339,14.4886952 25.2587914,14.5740528 L25.0542679,14.6883711 L25.0693278,11.8492138 C25.0620408,11.838036 25.0571827,11.8263501 25.0508673,11.8151724 L25.0528105,11.6881521 C25.1791196,11.7684289 25.3374917,11.8415926 25.5342424,11.9025623 L26.0341348,12.1662564 L26.051138,12.1662564 C26.1351821,12.1743857 26.2051379,12.1779423 26.2716931,12.1779423 C26.6559641,12.1779423 26.9702794,12.0646402 27.2301846,11.831939 L29.6601769,9.34488196 L29.9681767,8.7087644 L29.9681767,8.68945732 C30.0148139,8.16664185 29.9040506,7.76220928 29.6320003,7.43957777 L29.5843915,7.38572117 L29.0189154,7.0620735 L28.9373003,7.0376856 C28.6288147,7.00110376 28.3349032,7.03108055 28.0623671,7.12558364 C27.7893452,7.22059481 27.5449857,7.38521309 27.3351183,7.61435767 C26.9571627,7.98932154 26.6350746,8.32313083 26.3741977,8.61172091 C26.1123493,8.90081906 25.8752769,9.17924751 25.6702676,9.43989313 C25.5507597,9.59231746 25.4448544,9.7366125 25.3559523,9.87074592 L25.3559523,9.87227016 C25.28211,9.93171565 25.1776622,10.0180894 25.0737001,10.1105602 L25.0771007,9.78488021 C25.0780723,9.78335596 25.0790439,9.7823398 25.0795297,9.78081556 L25.0795297,9.78030748 L25.0814729,9.46631335 L25.08876,8.92266655 C25.0873026,8.92368271 25.086331,8.92469887 25.0843878,8.92520696 L25.1149934,3.15950243 C25.0668988,2.76370724 24.9357317,2.40347773 24.7253785,2.08846743 L24.7035173,2.05798257 L24.6729117,2.04172397 L24.009789,1.71655206 C23.9272023,1.70893084 23.8582181,1.70588235 23.7926346,1.70588235 C23.3981616,1.70588235 23.0785025,1.82375717 22.814225,2.06712803 L22.7918781,2.09100784 C22.6893734,2.2159958 22.5994996,2.36537164 22.5310012,2.5279576 C22.4644461,2.68495467 22.4212095,2.85516184 22.4017773,3.03451448 L22.4017773,3.05737813 C22.4411275,11.6017783 22.4411275,16.7938592 22.4017773,18.4893259 C22.362913,20.1929219 22.4119792,21.6963339 22.5484902,22.9568832 C22.6262189,23.6087513 22.8064522,24.2448688 23.0843321,24.8454207 C23.3622121,25.4474968 23.7479406,26.0292497 24.2293725,26.5728965 C25.2048672,27.653585 26.0618257,28.3222198 26.7745003,28.561526 C27.4706577,28.7937191 28.2251115,28.9319171 29.0179438,28.9715475 C29.2078933,28.9913626 29.3837543,29 29.5450413,29 C29.9006499,29 30.2052491,28.9542727 30.451066,28.8643423 C30.7794696,28.7439271 30.9553307,28.5127502 30.9888512,28.1586177 C31.0073118,28.0432833 31.0024537,27.9264246 30.9771919,27.7994043" id="Fill-7"></path>
                    <path d="M40.3597191,11.9223434 L40.3999839,11.9411765 L40.4275336,11.9411765 L43.269383,11.8752606 C43.9544149,11.8162833 45.2476578,11.7860512 47.102489,11.7860512 L56.0449903,11.5783915 L56.0767783,11.5630277 C56.4290956,11.4227706 56.666976,11.1997471 56.8137307,10.8790888 L56.8333333,10.8419182 L56.8333333,10.2937758 L56.8253863,10.2704823 C56.6796912,9.89828075 56.4137314,9.64898999 56.0132023,9.51220221 L55.9920103,9.5052637 L55.9517454,9.5052637 L49.2963926,9.56771029 L49.2010285,8.68404143 L52.2055267,8.6196124 L52.2378445,8.60424856 C52.4132084,8.53684588 52.5557247,8.44862768 52.6823471,8.32918618 C52.8073799,8.21222272 52.902744,8.0793998 52.9721479,7.92179649 L52.9933399,7.88214786 L52.9933399,7.34639573 L52.9769161,7.31566805 C52.9032738,7.14914379 52.8079097,7.01632088 52.6823471,6.89886181 C52.5567844,6.78041153 52.414268,6.69169771 52.2468511,6.62677308 L52.2055267,6.60744437 L49.1925517,6.60744437 L49.1846047,6.47313463 C49.1761279,6.28678607 49.1406312,6.10935844 49.0807638,5.94580784 C49.0214262,5.78423967 48.9355985,5.63208805 48.8269894,5.49430905 L48.801559,5.46060772 L48.769771,5.4467307 L48.0963946,5.12855043 L48.0778516,5.12855043 C47.9861961,5.12062071 47.9099049,5.11764706 47.8362626,5.11764706 C47.4134819,5.11764706 47.0373236,5.23262809 46.7167943,5.46110333 L46.6897745,5.48786615 C46.6214303,5.56072051 46.5620926,5.63704413 46.5128212,5.71584578 C46.4635497,5.79514304 46.4211657,5.87840517 46.3877883,5.96414533 C46.3528214,6.05434597 46.3284506,6.14603343 46.314146,6.23772089 C46.2993116,6.34080733 46.2918944,6.44092012 46.2918944,6.54251974 L46.2918944,6.6783163 L42.9181253,6.78834125 L42.8847479,6.8037051 C42.7088542,6.87209898 42.5663378,6.9608128 42.4391857,7.07975869 C42.3168019,7.19424411 42.2193186,7.3315275 42.1488551,7.48665277 L42.1266035,7.55306422 C42.1080605,7.72553577 42.1154777,7.8910688 42.1504445,8.04569847 C42.1827623,8.20181495 42.2484576,8.35000171 42.3448813,8.48728509 L42.3761395,8.52346447 L42.4148149,8.55171412 L43.1528269,8.92193321 L43.2195818,8.92193321 L46.3242122,8.74747924 L46.3242122,9.69805517 L40.4005137,9.86755306 L40.3676661,9.88341252 C40.017468,10.0231739 39.7790578,10.2461975 39.6312435,10.567847 L39.6111111,10.6050176 L39.6111111,11.2032163 L39.6275349,11.233944 C39.778528,11.5620364 40.017468,11.78506 40.3597191,11.9223434" id="Fill-9"></path>
                    <path d="M59.1290567,26.1261913 L51.1656791,26.175911 C50.9355383,26.1739222 50.6527938,26.175911 50.3574043,26.1778998 C50.4772799,25.910408 50.5217906,25.5375105 50.4297343,25.027884 C50.4135486,24.9354055 50.391799,24.855854 50.3680262,24.7832633 L50.0953979,22.286342 L50.3326199,22.4066636 C51.2091782,22.8526489 52.1029338,23.3324436 52.9880908,23.8336178 C54.040163,24.4401976 55.1726581,24.8891662 56.3542161,25.1666019 L56.3977153,25.1775402 L57.102806,25.1775402 L57.1346717,25.1631215 C57.4664791,25.0229121 57.6925734,24.8016596 57.8336927,24.4829566 L57.8579713,24.4093715 C57.9019763,24.0498983 57.8311637,23.7615243 57.6414872,23.5303279 L57.6131622,23.4925409 L57.5818024,23.4781222 C57.3541906,23.366253 57.1498458,23.270294 56.9551113,23.1847762 C56.7360981,23.0878229 56.5165792,22.9933555 56.3036357,22.9053517 C56.0729891,22.8113816 55.8554934,22.7283498 55.6400209,22.6502899 C55.3704274,22.5593029 55.1018455,22.455886 54.8448971,22.3440168 C54.576821,22.22817 54.3203784,22.10934 54.0841679,21.992996 L53.9192759,21.9119529 L55.4220194,20.1946359 L55.4220194,19.628329 L55.4063395,19.5984972 C55.3375502,19.4349195 55.2434706,19.2976932 55.1246067,19.1798576 C55.005237,19.062022 54.8651293,18.9710351 54.7103533,18.9078911 L54.6552206,18.8815397 C54.194939,18.7955247 53.813057,18.889992 53.4898483,19.1699137 L51.9623203,20.7350886 L49.808607,19.734729 L49.7018824,18.8377864 L49.8748673,18.5444404 L53.8408762,18.5444404 C54.1994912,18.535988 54.501962,18.4594198 54.7351376,18.3162271 C54.9571856,18.1804925 55.0866714,17.9865858 55.1321938,17.7235688 C55.165071,17.4774565 55.1979483,17.1960432 55.2293081,16.8927533 C55.2637028,16.5735531 55.2970859,16.1817621 55.3299631,15.6935151 L55.3299631,15.6875487 C55.3400792,15.1391409 55.2849466,14.6916639 55.1676,14.3565534 C55.0608754,14.0502803 54.8691757,13.8727811 54.5803616,13.8126204 C54.3451628,13.7648895 53.7963655,13.7275997 52.9501555,13.7017455 C52.071574,13.6763885 50.8212266,13.6584894 49.2335079,13.6495399 C48.7853656,13.6460595 48.3655483,13.6450651 47.971527,13.6450651 L47.9487658,13.6450651 L44.297367,13.7340633 C44.1026325,13.7519624 43.9529145,13.7728446 43.8633872,13.7962129 C43.3383627,13.9294616 43.1016464,14.3575478 43.1395817,15.1048343 L43.1400875,15.1127895 L43.1395817,15.1207446 C43.0591589,16.4462707 43.1269366,17.3347611 43.3398801,17.7608585 C43.5740673,18.2217598 43.9782047,18.4788104 44.5745476,18.5444404 L46.7606323,18.5444404 L46.462208,18.7940331 C46.2472413,18.9730238 46.0398617,19.1425679 45.8269182,19.3106203 C45.5770511,19.5099962 45.3686598,19.6720823 45.1688673,19.820744 C44.9250697,20.005204 44.7045392,20.1672901 44.4966538,20.3149575 C43.5948053,20.9528607 42.7227993,21.6474444 41.9059259,22.3793177 L41.8452294,22.4310262 L41.8452294,23.0137406 L41.8604035,23.0440696 C41.9317219,23.2131164 42.0207434,23.3468623 42.1355609,23.4642007 C42.253919,23.5860139 42.3945325,23.6889336 42.5533549,23.7714682 L42.6064644,23.7928477 L42.6828408,23.7744514 C43.678263,23.4701671 44.5988262,22.9605406 45.4116532,22.2589962 C46.0793144,21.6931864 46.8102011,21.1547225 47.584587,20.6575259 L47.7864028,20.5277576 L47.8066349,20.7649204 C47.837489,21.138315 47.8678372,21.5171788 47.8986913,21.9005174 C47.9270163,22.2450747 47.9523065,22.6174749 47.9765851,23.040092 C48.0236248,23.7704738 48.144512,24.4829566 48.3346943,25.1666019 C48.3341885,25.1675963 48.3321653,25.1685907 48.3321653,25.1685907 C48.3321653,25.1685907 48.4419247,25.7368864 48.6351418,26.1913241 L39.5423039,26.2485017 L39.0122214,6.15778152 L59.1922822,6.2189367 L59.1290567,26.1261913 Z M46.0403675,16.4666558 L45.9614621,15.7576534 L52.3932653,15.8207974 L52.4812752,16.4035118 L46.0403675,16.4666558 Z M61.9914013,7.345087 C61.9868491,6.41831254 61.9721808,5.70234944 61.9463848,5.21658836 C61.9210946,4.74126841 61.8937812,4.4509056 61.8669736,4.35345506 C61.6909538,3.78416496 61.1487319,3.5146844 60.2210875,3.53407507 L37.9105803,3.4127591 C37.8797263,3.4122619 37.8514013,3.41176471 37.8225705,3.41176471 C36.850921,3.41176471 36.3274139,3.71057986 36.2201835,4.32461766 C36.1701089,4.75618431 36.1549348,5.88631218 36.1756727,7.67572273 C36.1948933,9.40944727 36.2505317,12.1380622 36.3456229,16.0176873 C36.5191136,23.2429482 36.6688316,27.2553248 36.7902246,27.9449365 C36.8635661,28.3267835 37.0517252,28.5967612 37.3653237,28.7692884 C37.6890382,28.9472848 38.125547,29.0228587 38.6586644,28.9940213 L60.2787491,28.8120473 L60.3505733,28.8130417 C60.7800008,28.8130417 61.1345694,28.7260323 61.4036571,28.5549967 C61.6732506,28.3819723 61.8234744,28.1239272 61.8619155,27.7654485 L61.8619155,27.7420803 C61.8892289,25.3918319 61.9124959,23.0545107 61.9312107,20.7902774 C61.9463848,18.8119321 61.9610531,16.9240767 61.976733,15.1262138 C61.9924129,13.2333863 62,11.7502489 62,10.592278 C62,9.37215753 61.997471,8.27931941 61.9914013,7.345087 L61.9914013,7.345087 Z" id="Fill-11"></path>
                </g>
                <g id="Group-21" transform="translate(133.000000, 1.000000)">
                    <path d="M25.7978359,24.6311198 C25.7978359,23.8851462 25.6719373,23.1871681 25.4251758,22.5540351 L25.3984853,22.4932748 L25.3335216,22.4549805 L24.7010065,22.1317763 L24.6833807,22.1317763 C24.5987768,22.1241174 24.5272663,22.1210539 24.4602882,22.1210539 C24.0498585,22.1210539 23.7174859,22.239511 23.4430268,22.4840841 L23.4223794,22.5060396 C23.2043228,22.7751211 23.0653307,23.0973041 23.016482,23.458292 L23.016482,23.4950546 L23.0673451,25.19277 L22.9218062,25.195323 C21.7630346,25.2162572 20.7311689,25.1585604 19.8473601,25.0232538 C19.7370728,25.013042 19.6162101,24.9931289 19.4978653,24.9650464 C19.3916068,24.9420698 19.2823267,24.9134767 19.1675071,24.8782459 C19.0642702,24.8476104 18.9640548,24.8154432 18.8653502,24.7848077 C18.7545594,24.7485558 18.6588764,24.7097508 18.5702437,24.6668612 C18.484129,24.6270351 18.3944891,24.5810819 18.3048493,24.5335969 C18.2096698,24.4825378 18.1250659,24.4304575 18.0460015,24.3778666 C17.9694551,24.3247651 17.8908944,24.2691107 17.8123336,24.2114139 C17.7312548,24.1516747 17.6557156,24.0807026 17.5877303,24.0020715 C17.3016885,23.7426913 17.0811139,23.4465484 16.9310427,23.1202807 C16.7814751,22.7970765 16.6888136,22.4294509 16.6565836,22.0291475 C16.6258643,21.6160792 16.5971594,21.0278783 16.5719796,20.2808835 C16.5462963,19.5042744 16.5236345,18.5464054 16.5029871,17.4328062 L16.5009728,17.2883089 L16.6424829,17.2852454 C19.66103,17.213252 21.4885754,17.1402375 22.0737526,17.0682442 C22.4408732,17.0228015 22.6876346,16.8384781 22.8266268,16.5035304 C22.9751872,16.1425425 23.0250431,15.6625868 22.976698,15.0789812 L22.7299366,3.79491743 C22.7299366,3.61672113 22.6956921,3.4630332 22.6226709,3.32262065 C22.554182,3.18322927 22.4524558,3.06477213 22.3220248,2.96929159 C22.1910902,2.87330046 22.0314506,2.80539184 21.8476385,2.7676081 C21.5741866,2.69612534 21.0433977,2.61136722 20.2643365,2.51384431 C19.4480094,2.4112155 18.3431225,2.28305713 16.9839202,2.13243275 C16.7814751,2.09720196 16.5896054,2.07984186 16.4078077,2.07984186 C15.9067309,2.07984186 15.4454381,2.21106378 15.0345048,2.46942289 L14.9871669,2.49852658 L14.9589656,2.54601155 L14.6432116,3.18373986 L14.6432116,3.20058937 C14.5938593,3.72700881 14.7081754,4.13394993 14.9901884,4.45868588 L15.0188933,4.49646963 L15.0591809,4.51331913 C15.4615531,4.65526347 15.8785296,4.77116765 16.2914773,4.85541518 C16.7134898,4.94170508 17.1490992,4.99531715 17.5887375,5.01574079 L18.5113231,5.0785435 C18.6669339,5.08824473 18.8230483,5.10100951 18.9776519,5.11785902 L19.4293764,5.16381222 C19.5794476,5.17912995 19.7300225,5.19802182 19.8866405,5.21895606 L20.011532,5.23529498 L20.011532,7.33076093 L14.8642897,7.20311315 L14.8240022,7.20311315 L14.1315593,7.55491043 L13.7835753,8.25288849 L13.7835753,8.27178036 C13.7352302,8.79666803 13.8490427,9.20360915 14.1315593,9.52783451 L14.1522067,9.54978993 C14.2871701,9.66467293 14.4296874,9.75453697 14.5878162,9.82499854 C14.7444342,9.89546012 14.9126348,9.94090273 15.0893966,9.96081578 L15.0974541,9.96081578 L20.1449846,10.1369697 L20.2446963,14.4187868 L5.63944061,14.4187868 L5.34231969,10.2717658 L8.28734195,10.2717658 C8.37446385,10.2763611 8.45252104,10.2784035 8.53007463,10.2784035 C9.20187007,10.2778929 9.81373772,10.1201202 10.3475482,9.80865963 L10.3908573,9.78210889 L10.4195622,9.7356451 L10.7363234,9.09689561 L10.7363234,9.07953551 C10.7846685,8.55311606 10.6703524,8.14617494 10.3878358,7.82246017 L10.3671884,7.7923353 L9.69539295,7.45177102 L9.6520838,7.45177102 L5.27232002,7.51559491 L5.09908342,5.34251911 L5.21944257,5.31392601 C6.10476219,5.10815779 7.02432625,4.96570287 7.95345861,4.89115656 C8.46108215,4.85184105 8.96669131,4.77167824 9.4587034,4.65373169 C9.94719034,4.53680633 10.4281233,4.38465017 10.8894162,4.20134796 L10.9347397,4.17837136 L10.9750273,4.11658983 L11.3502054,3.41656941 L11.3502054,3.38797631 C11.3970397,2.86104627 11.2832273,2.45410515 11.0017178,2.13141157 L10.9800632,2.10026551 L10.2886276,1.75 L10.2266854,1.75919064 C9.84193903,1.84037463 9.41942301,1.91951625 8.97777039,1.9915096 C8.54669326,2.06299236 8.08237888,2.12681625 7.56015109,2.187066 C7.0575635,2.24476279 6.5272782,2.29990663 5.98541022,2.35096575 C4.32203668,2.49342067 3.25995529,2.67212756 2.82837457,2.88146992 C2.33132652,3.11021474 2.16816181,3.75355955 2.34089482,4.79516543 L2.3429092,4.81201494 C2.67276378,11.8321322 2.86815855,15.5369814 2.93916542,16.1384577 C2.96787032,16.366692 3.02880529,16.5622484 3.12045954,16.7184892 C3.210603,16.8772831 3.33096215,17.0008461 3.48506216,17.0968373 C3.63966575,17.1928284 3.8179383,17.2443981 4.0299517,17.2540993 C4.56829452,17.2852454 6.19692003,17.3010737 8.87151189,17.3010737 L9.04273412,17.3010737 L9.01201483,17.4721217 C8.88611614,18.1767375 8.71287954,18.8037434 8.49683738,19.3352687 C8.23597528,19.9699335 7.67648149,20.8093453 6.83245664,21.8310381 C5.9874246,22.8568157 5.00692557,23.6538484 3.91916085,24.2012021 C2.82988535,24.7526405 1.6585239,25.1805158 0.438313754,25.4710422 L0.363781727,25.4878917 L0.010761788,26.1986345 L0.010761788,26.2165052 C-0.0375833106,26.7424141 0.0767327038,27.1493552 0.358242184,27.47307 L0.377882381,27.492983 C0.648312776,27.7186643 0.964066701,27.8570345 1.31809383,27.9060512 L1.37600723,27.9060512 C2.81074875,27.691603 4.16088635,27.2341133 5.3896576,26.5478789 C6.62094683,25.8585808 7.79734423,24.8685447 8.88510895,23.6017681 C9.42697693,22.9716987 9.88424099,22.3702223 10.2473328,21.8126568 C10.6033743,21.261729 10.869776,20.743479 11.0369694,20.2732246 C11.3381191,19.4062409 11.6095567,18.443266 11.8447355,17.4139143 L11.8704188,17.3010737 L13.7805538,17.3010737 L13.7835753,17.4425074 C13.8062371,18.4039505 13.8283953,19.1540089 13.8530714,19.8034808 C13.8787548,20.5065647 13.909474,21.135613 13.9437185,21.673776 C13.9799773,22.2175556 14.0192577,22.6735135 14.0585381,23.0273531 C14.2060914,24.1593336 14.6880316,25.1457956 15.4897545,25.9586567 C16.2854342,26.7643695 17.2890986,27.3045749 18.4720427,27.5680399 C18.7600989,27.6288003 19.0572199,27.6829229 19.3523264,27.7293867 C19.6444114,27.7753399 19.945561,27.8161872 20.2446963,27.8534603 C20.5533999,27.8902229 20.859082,27.9208584 21.1521741,27.9458773 C21.4855539,27.9729387 21.7846892,27.9908094 22.0661986,28 L22.086846,28 C22.6977065,27.9591527 23.3241784,27.9382185 23.9476287,27.9382185 C24.6007912,27.9382185 25.0938104,27.8733734 25.4140967,27.7457256 C25.8084114,27.5848894 25.9650294,27.1922449 25.8915046,26.5437941 C25.8290588,25.988271 25.7978359,25.343905 25.7978359,24.6311198" id="Fill-13" fill="#EA5F49"></path>
                    <path d="M47.052978,5.18391638 L46.8117881,7.93462302 L42.6825129,7.86485145 L42.481262,5.25519381 L47.052978,5.18391638 Z M34.3399351,10.4795286 L34.3601639,10.4785247 L56.031986,10.355546 L56.672047,10.041323 L56.9900028,9.42241399 C57.03461,8.95911066 56.9303537,8.59419027 56.6689349,8.30757467 L56.6570051,8.29502583 L55.8929777,7.93010544 L49.3699573,7.86635731 L49.5686148,5.12217606 L49.832627,5.11263894 C50.1184241,5.10259987 50.416151,5.09456861 50.7242517,5.08954907 C51.0333898,5.08452953 51.3503081,5.08754125 51.6693012,5.09707837 C51.7232448,5.09858424 51.777707,5.09908619 51.832688,5.09908619 C52.5194309,5.09908619 53.1444499,4.98263292 53.6916658,4.753742 L53.704633,4.74822051 L54.0199953,4.13131933 C54.0661585,3.67152967 53.9619022,3.28753504 53.7004835,2.95724946 L53.6947779,2.94871625 L53.0505674,2.64152054 L45.1374632,2.76851485 L45.141094,2.47436994 C45.1504304,1.69031815 45.0249079,0.970516452 44.7666013,0.335042983 L44.760377,0.323498046 L44.7432603,0.313458971 L44.1130544,0.00977694143 C43.6348241,-0.0338930363 43.2582566,0.0685055322 42.9631231,0.321490231 L42.9543054,0.330525399 C42.8490117,0.449990395 42.7629095,0.583510098 42.6980735,0.727570829 C42.6311628,0.872635468 42.5896677,1.02020988 42.570995,1.17882727 L42.570995,1.20944645 L42.629088,2.82021609 L37.6667999,2.88597203 L37.6496832,2.88446617 C36.4966398,2.76801289 35.4483713,2.91357949 34.5313309,3.31865618 L34.5142142,3.32568353 L34.1972959,3.94208276 C34.1526887,4.40438218 34.2579824,4.76829866 34.5204385,5.05541621 L34.5323683,5.06947092 L35.1677611,5.37265099 L39.9199806,5.30689505 L40.0413536,7.99435552 L32.571209,7.92960348 C32.1033524,7.89446672 31.7262662,7.99686529 31.4254272,8.24483045 L31.4166095,8.25235976 L31.1012472,8.86474335 C31.0556026,9.32503496 31.1608963,9.70902959 31.4212777,10.0388132 L31.4212777,10.0388132 C31.8652746,10.2250381 32.330019,10.3550441 32.8123989,10.4288313 C33.2937414,10.5016146 33.8082799,10.518681 34.3399351,10.4795286 L34.3399351,10.4795286 Z" id="Fill-15" fill="#EA5F49"></path>
                    <g id="Group-19" transform="translate(32.818182, 10.500000)">
                        <mask id="mask-2" fill="white">
                            <use xlink:href="#path-1"></use>
                        </mask>
                        <g id="Clip-18"></g>
                        <path d="M12.9725081,6.4965264 L17.6946798,6.4965264 L17.5125036,7.53683278 L13.0450698,7.53683278 L12.9725081,6.4965264 Z M12.8546596,2.61902083 L18.0775586,2.80085238 L17.9530201,3.97230738 L12.9112681,3.97230738 L12.8546596,2.61902083 Z M6.20986003,7.60423585 L6.07348519,6.4965264 L10.4868837,6.4965264 L10.5594454,7.53160773 L6.20986003,7.60423585 Z M5.88925051,3.97230738 L5.76882895,2.74755693 L10.368006,2.6733613 L10.4256437,3.97230738 L5.88925051,3.97230738 Z M23.8511031,14.8999656 L23.8428692,14.8973531 C23.2598024,14.6397584 22.6144664,14.5305549 21.923329,14.5707878 C21.6938076,14.5848954 21.2393963,14.5922105 20.5348788,14.5922105 C19.1490016,14.5922105 16.7868865,14.5634727 13.5154343,14.5075647 L13.2277606,14.5023397 L13.2277606,13.4651683 L15.4694542,13.5968395 C16.4302535,13.716493 17.2973916,13.5879569 18.0471959,13.2122762 L18.0564591,13.2028711 L18.3698639,12.5622806 C18.3878757,12.3266311 18.3708931,12.1029992 18.3168578,11.90079 C18.2653956,11.7111209 18.1779099,11.5470545 18.0502836,11.3976182 L18.0363888,11.3887356 C17.6684341,11.2570645 17.2814383,11.1619687 16.8805478,11.1060607 C16.4863473,11.0517203 16.074135,11.0282076 15.6593497,11.0376126 C14.9296157,11.0590353 14.1767236,11.0376126 13.4336094,10.9733446 L13.1665206,10.9498319 L13.1665206,10.0594843 L18.6956196,10.0934471 C18.7259823,10.0944921 18.7511988,10.0944921 18.7748714,10.0944921 C19.1165805,10.0944921 19.4011664,10.0344041 19.6203954,9.91422805 C19.8154372,9.80815965 19.9157885,9.64722828 19.9379172,9.40792123 C19.9579875,9.19108189 20.002245,8.76158322 20.0876722,7.97155648 C20.1720702,7.20242992 20.2847725,6.2263916 20.4237204,5.07061174 C20.5693584,3.77845822 20.6614758,2.81705002 20.6969847,2.21773741 C20.7309498,1.64402752 20.7160257,1.18631361 20.6506687,0.857135807 C20.5956042,0.695159425 20.4196034,0.279768382 19.3517627,0.279768382 L4.54042618,0.216545343 C4.08807342,0.235355504 3.74224741,0.366504122 3.49111186,0.616783757 C3.24512254,0.862883356 3.12418636,1.1967637 3.12418636,1.63827997 L3.12418636,1.66336018 C3.29143852,2.76114205 3.42163789,4.10084347 3.5152991,5.64693416 C3.60793106,7.20869998 3.76283229,8.37545243 3.97485657,9.11375123 C4.07623711,9.49622449 4.23422607,9.76897181 4.45808665,9.95341589 C4.67319866,10.1300224 4.93153892,10.2068305 5.24494373,10.1895879 C5.40087421,10.1801828 5.62319092,10.1686877 5.90829152,10.1577151 C6.19184826,10.1467425 6.5479667,10.1362924 6.97921996,10.1258424 C7.40738549,10.1148698 7.90451037,10.1038972 8.46853611,10.0934471 C9.03359109,10.082997 9.67069316,10.0725469 10.3824154,10.0615743 L10.679867,10.0563493 L10.679867,10.9414718 L7.94104853,10.9414718 C7.5828716,10.9414718 7.24116257,10.9843172 6.92569927,11.0684404 C6.6179553,11.1499511 6.32770848,11.2795322 6.06216351,11.4519587 L6.03540316,11.4723363 L5.7256007,12.1061342 C5.68031397,12.5837033 5.78272375,12.961474 6.03797627,13.2593016 L6.064222,13.2744542 L6.89173422,13.658495 L10.7421362,13.4683034 L10.7421362,14.5012947 L10.4544625,14.5075647 C7.19124424,14.5754903 4.99792516,14.6094531 3.75151061,14.6094531 C3.43707655,14.6094531 3.18542638,14.6073631 2.99758934,14.603183 C2.95539033,14.602138 2.91422057,14.601093 2.87202157,14.601093 C1.97760848,14.601093 1.15730097,14.8085273 0.435800892,15.2176483 L0.423449963,15.2286209 L0.114162125,15.8613738 C0.0688753869,16.3420779 0.174372902,16.7208936 0.434771648,17.0218562 L0.441461734,17.0291712 C0.69671426,17.240263 0.983358728,17.3656641 1.31528994,17.4137345 L1.32506775,17.4137345 L20.759254,17.0955293 L20.7772657,17.0976193 C21.9037734,17.2188404 22.9350759,17.0923943 23.8480154,16.7198486 L24.1706834,16.060448 C24.2149409,15.5776539 24.1094434,15.1983156 23.8511031,14.8999656 L23.8511031,14.8999656 Z" id="Fill-17" fill="#EA5F49" mask="url(#mask-2)"></path>
                    </g>
                </g>
                <g id="Group-8" transform="translate(195.000000, 2.000000)">
                    <g id="Group-22" transform="translate(0.000000, 22.176471)">
                        <mask id="mask-4" fill="white">
                            <use xlink:href="#path-3"></use>
                        </mask>
                        <g id="Clip-21"></g>
                        <path d="M18.5977547,3.04285546 L18.6676642,3.36356134 L9.07475885,3.71302353 L10.7678947,1.85653613 L18.8396313,1.92135966 L18.5701992,2.48478824 C18.5523391,2.68754454 18.5615243,2.8751916 18.5977547,3.04285546 M27.2767342,0.51717479 C27.1685531,0.415309244 27.0471045,0.33830084 26.9052444,0.28322521 L26.8853432,0.274452101 L0.648372016,0.0663344538 L0.647861728,0.0663344538 C0.359548971,0.204267227 0.155433745,0.408973109 0.0268411523,0.691662185 L0.00949135802,0.737964706 C-0.0257185185,1.04843529 0.0365366255,1.29213277 0.199828807,1.48562857 L0.221260905,1.51292269 L0.884125103,1.85751092 L7.28313745,1.85751092 L5.50019095,3.66087227 C5.16340082,3.98157815 4.90978765,4.34225042 4.73935144,4.73557815 L4.73833086,4.74288908 C4.69495638,5.18641849 4.79548313,5.53783025 5.04603457,5.81564538 L5.06899753,5.83757815 C5.32005926,6.03107395 5.60275885,6.14804874 5.93087407,6.19288908 L5.95740905,6.19288908 L21.563549,5.65383025 L22.2866272,6.30986387 C22.4096066,6.40880504 22.5412609,6.48776303 22.6877136,6.54966218 C22.8305942,6.60863697 22.9852115,6.64860336 23.1469728,6.66761176 L23.1740181,6.66761176 C23.2418864,6.65835126 23.306693,6.64762857 23.3663967,6.63641849 C23.4276313,6.62325882 23.4868247,6.60668739 23.5455078,6.5867042 C23.6092938,6.56525882 23.6705284,6.53942689 23.7327835,6.51067059 C23.8006519,6.47752773 23.8685202,6.44438487 23.9353679,6.40977983 C23.9950716,6.37858655 24.0537547,6.34300672 24.1088658,6.30498992 L24.1149893,6.30060336 L24.4257547,5.70354454 L24.4257547,5.67868739 L24.3655407,4.98268739 L24.3543144,4.9724521 C24.0588576,4.69999832 23.7567671,4.42218319 23.4526354,4.14729244 C23.1464626,3.86898992 22.8367177,3.5902 22.5203391,3.31043529 C22.2065119,3.0296958 21.8814584,2.74310756 21.5523226,2.4594437 L20.9955984,1.9759479 L26.9011621,1.96912437 C27.1961086,1.84825042 27.4002239,1.65280504 27.5257547,1.37304034 L27.5339193,1.35598151 L27.5237136,0.874435294 C27.4670716,0.741863866 27.3844049,0.621964706 27.2767342,0.51717479" id="Fill-20" fill="#E8B100" mask="url(#mask-4)"></path>
                    </g>
                    <path d="M5.83640042,18.7715689 C5.68775163,18.8208966 5.55995645,18.8895265 5.44713309,18.9800322 C5.3385874,19.0662486 5.25303414,19.1679066 5.19100803,19.2832907 L5.17282796,19.3296159 C5.15892556,19.4587259 5.1685503,19.5801151 5.20170218,19.6916387 C5.23538878,19.8070227 5.29206781,19.9061072 5.37494753,19.9914656 L5.38564169,20.0004733 C5.98558391,20.2419648 7.03200721,20.3483412 8.47892669,20.3140262 L23.1181586,20.4705882 L23.408505,20.4285524 L23.4528857,20.410966 C23.598861,20.3624961 23.7293297,20.2930083 23.8432225,20.2025026 C23.9549764,20.1128548 24.0421338,20.0081942 24.1020211,19.8906654 L24.1111111,19.8747948 L24.1020211,19.4492893 C24.0421338,19.3313316 23.9565805,19.2288157 23.8416183,19.1361653 C23.7298644,19.0473753 23.598861,18.9761718 23.4528857,18.9281309 L23.4314974,18.9199811 L5.85618461,18.7647059 L5.83640042,18.7715689 Z" id="Fill-23" fill="#E8B100"></path>
                    <path d="M13.1144778,10.8405118 L13.1405313,11.3998377 C13.0146062,11.4092009 12.8989938,11.421028 12.7850098,11.4353192 C12.6715686,11.4505959 12.5570418,11.4624231 12.4474001,11.4688295 C12.3632691,11.4737574 12.2894508,11.479671 12.2248599,11.4880486 C12.1461567,11.4988901 12.0652823,11.5057893 11.9903786,11.5057893 L11.7086753,11.5057893 L11.4964479,10.8405118 L13.1144778,10.8405118 Z M8.88838559,15.5230797 L11.3944051,15.5230797 L11.4177447,16.0833912 L8.88838559,16.2563634 L8.88838559,15.5230797 Z M0.755899036,8.87917524 L0.755356255,8.87966804 C0.403634217,9.03982744 0.166981735,9.25518022 0.0291153813,9.53903195 L0.01066083,9.58831176 C-0.0278766155,9.90123858 0.037799876,10.1486232 0.212032552,10.3447569 L0.235914913,10.3649616 C0.560497904,10.4758412 0.912762722,10.5625737 1.27425482,10.6202311 C1.63249022,10.6769028 2.00972297,10.70105 2.39401186,10.691194 C2.91616711,10.6798596 3.43886513,10.6902084 3.97567546,10.7212547 L4.69540297,10.7616641 L4.16619157,11.206168 C3.68040264,11.6132193 3.24129288,11.8561688 2.82226601,11.948322 C2.24854657,12.0621584 1.6759127,12.1380493 1.11033498,12.1784588 L1.08536706,12.1888075 C0.77598193,12.3090503 0.559412342,12.5027199 0.426431016,12.7811509 L0.406890903,12.8338803 C0.369439019,13.1458215 0.436201073,13.3922206 0.608805406,13.5863831 L0.632687767,13.6154581 L1.3459019,13.9678088 L2.54490495,13.8155342 L2.54490495,14.1861184 L2.5237365,14.2629949 C2.48357071,14.5788785 2.5492472,14.82922 2.72456544,15.0273248 L2.74030609,15.0435871 C3.0442634,15.1815706 3.36993196,15.2845654 3.70537057,15.3486292 C4.0456942,15.4141713 4.40284405,15.4432464 4.77356342,15.4333905 C5.36845131,15.4131857 5.99319215,15.4181137 6.61793299,15.44916 L6.92677534,15.4634512 L6.86164163,16.5155752 L6.3134329,16.5825957 C6.00404777,16.6205412 5.69466264,16.6589794 5.3858203,16.6964321 C4.96787899,16.7471903 4.55916496,16.7925277 4.17216216,16.8319516 C3.28471535,16.9319896 2.361445,16.9842262 1.43328963,16.9842262 L1.41646342,16.9901398 C1.10816385,17.1123537 0.891594266,17.3065162 0.757527379,17.5839615 L0.737987265,17.6366909 C0.700535382,17.9476466 0.766211873,18.1940456 0.939358987,18.3891937 L0.962698567,18.4172832 L1.67482714,18.7647059 L1.69762394,18.7647059 C3.75204973,18.6474199 5.81516001,18.4557215 7.83104835,18.197988 C9.83119605,17.9377906 11.8888785,17.7658041 13.946561,17.6849852 L13.9682722,17.6771004 C14.2814568,17.5539009 14.4985692,17.3577672 14.6315505,17.0734227 L14.640235,17.0571603 L14.6299222,16.5106472 C14.5691307,16.3741421 14.4828286,16.257349 14.367759,16.152383 C14.2543178,16.0493881 14.1213365,15.9685692 13.9720717,15.9118975 L13.9367909,15.9030271 L13.3028228,15.9473789 L13.1345607,15.4210705 C13.4021517,15.2919574 13.5888684,15.1061725 13.7066518,14.8543527 L13.7153363,14.8375975 L13.7077374,14.3536698 C13.5731277,14.0688324 13.3554726,13.8712204 13.0428308,13.749992 L13.0238334,13.7426001 L8.88078666,13.7426001 L9.02245248,12.6761849 C8.9280086,12.5150399 8.8113107,12.3775492 8.67561547,12.2671624 C8.54317692,12.1582541 8.39065548,12.0695504 8.21913671,12.0010514 L8.1995966,11.999573 C7.84733178,11.9591636 7.56942795,12.0158354 7.35231558,12.1715596 L7.3061792,12.211969 C7.25950004,12.2632201 7.21770591,12.3198918 7.17916847,12.385434 C7.13303209,12.4652673 7.08743849,12.5460862 7.04564436,12.6269051 C7.01090638,12.6944184 6.98648124,12.7604534 6.96965503,12.8358515 C6.94957214,12.9260335 6.93003202,13.017694 6.91537694,13.1108329 C6.89963629,13.1995365 6.89258014,13.2892258 6.89258014,13.3872926 L6.89258014,13.6854355 L4.2448948,13.5267545 L4.91197256,13.0723946 C5.03409826,12.9896045 5.161109,12.8984369 5.28866252,12.8038196 L5.32394328,12.7762229 C5.43629893,12.6924472 5.54974014,12.607686 5.66426691,12.5199679 C5.77987925,12.4150019 5.89766271,12.3006727 6.02413066,12.1715596 C6.13322963,12.0601872 6.23418688,11.9379733 6.32374573,11.8098458 C6.41873239,11.6767903 6.50937681,11.538314 6.59459341,11.3978665 C6.67763889,11.2618542 6.754171,11.1174644 6.82907477,10.9538554 L6.90994913,10.7749697 L9.5880302,10.8493822 L9.5880302,11.1204212 C9.5880302,11.2352431 9.59780025,11.3456299 9.61679759,11.4496103 C9.63742326,11.5634467 9.66239118,11.6674271 9.69170135,11.7674651 C9.72263987,11.8684887 9.75683506,11.9616276 9.79754363,12.0513169 C9.83336717,12.1350925 9.87570409,12.2109835 9.92618271,12.280468 C9.9804608,12.3563589 10.0352817,12.4238722 10.0911881,12.4825152 C10.4342257,12.8289523 10.8565092,13.0265644 11.3792072,13.0783082 C11.8731379,13.1266024 12.8626275,13.1216744 14.2895985,13.0620458 L14.3020825,13.0620458 C14.476858,12.9974893 14.6266655,12.9087856 14.7477056,12.7993844 C14.8687458,12.6885048 14.9637324,12.5564349 15.0375507,12.3947972 L15.0353795,11.901999 C14.9116255,11.6373664 14.7346789,11.4574951 14.4893419,11.3372524 L13.708823,10.9577978 L14.7162243,10.7922176 L14.7753875,10.7656065 L14.8046976,10.7656065 C14.9637324,10.7020356 15.0967138,10.6202311 15.2090694,10.5172363 C15.3301096,10.4073423 15.4278101,10.2728084 15.5,10.1156058 L15.4907727,9.54593112 C15.4299813,9.41238283 15.341508,9.29164728 15.2269812,9.18717408 C15.1119116,9.08417927 14.9811014,9.00483877 14.8302083,8.94718139 L14.8122966,8.94077501 L8.75540426,9.06545294 L8.75540426,8.19172184 L13.3755555,8.0704935 C13.5269913,8.01382171 13.656716,7.93546681 13.7734139,7.83000801 C13.8868551,7.7270132 13.9753284,7.60578486 14.0355771,7.47174376 L14.0458899,7.45153904 L14.0458899,6.96761127 C13.9004246,6.66207642 13.6805983,6.455594 13.3728416,6.33485846 L13.3549298,6.32845208 L11.2554532,6.35801997 C10.8993889,6.49206106 10.5031588,6.54281927 10.0749047,6.5083234 L9.93052496,6.5083234 L9.81816931,6.44081006 L9.6846452,6.38019589 L8.76408876,6.39399424 L8.81185348,5.81742041 C8.67507269,5.64592666 8.56977319,5.46309855 8.49649776,5.27140008 C8.42702181,5.21571389 8.34723301,5.16643407 8.26147362,5.12306784 L7.48204022,5.11764706 C7.39248137,5.14622935 7.30726476,5.18368201 7.22530484,5.23099063 L7.18893852,5.2654865 C7.07604009,5.38425085 6.97833953,5.52174153 6.90723522,5.66613139 C6.83993039,5.80559326 6.80139294,5.95983908 6.79325123,6.12147687 L6.77913893,6.39399424 L2.54490495,6.32845208 L2.52807875,6.32845208 L2.14378985,6.39547263 C1.83549029,6.51620817 1.61457845,6.72219779 1.47019873,7.02822544 L1.47888322,7.58804412 C1.61349289,7.87238865 1.83114804,8.0695079 2.14433263,8.19270744 L2.16061606,8.19862101 L6.79325123,8.19862101 L6.79325123,9.00582436 L0.755899036,8.87917524 Z" id="Fill-25" fill="#E8B100"></path>
                    <path d="M28.9393374,14.509285 L28.9308497,14.4979125 L28.2794171,14.1962929 C27.7919036,14.1527805 27.4051818,14.2531556 27.1017458,14.5023626 L27.096441,14.5102739 L26.5659584,15.3523365 L26.3840029,14.693718 C26.2619919,14.2531556 26.1776452,13.7878703 26.1320237,13.3077512 C26.0996642,12.9690472 26.0699572,12.4389879 26.0434331,11.7348792 C26.0169089,11.0653825 25.9930372,10.1704129 25.969696,8.9960743 L25.9691655,8.97382367 L25.9723484,8.95058413 C26.0105432,8.7063217 26.0015249,8.46205927 25.9442328,8.22521371 C25.8901236,7.99331274 25.7877405,7.78020119 25.6397358,7.58983472 L25.6227604,7.56560626 L24.9787546,7.26893124 L21.6128427,7.33667204 L21.6409583,7.02466882 C21.7014333,6.36209461 21.586849,5.78852291 21.2876569,5.26934164 L21.2728034,5.25154114 L20.6192488,4.94942708 C20.3487027,4.9242097 20.1036198,4.95239383 19.8924877,5.03447392 L19.4749979,5.19665626 L19.4749979,4.32146496 L19.7826778,4.32838738 C23.7453826,4.40947855 25.9617388,4.45892438 26.5574707,4.47919718 C26.5935435,4.48018609 26.6312078,4.48117501 26.669933,4.48117501 C27.2534638,4.48117501 27.7743977,4.34964909 28.2173506,4.09104736 L28.2258383,4.08511386 L28.2380394,4.0668189 L28.555268,3.46802983 C28.602481,3.01411706 28.4942625,2.65365691 28.2263688,2.36983781 L28.2168201,2.35945419 L27.5637961,2.0588235 L19.6956787,1.93323108 L19.717959,1.63902836 C19.7561537,1.11935262 19.6325513,0.68769047 19.3397249,0.318824534 L19.3360115,0.31387995 L18.681396,0.00978805854 C18.1917606,-0.0337242772 17.8076912,0.0676396867 17.5037247,0.317835617 L17.4909931,0.328219243 C17.3451104,0.508202086 17.2390139,0.707963263 17.1748255,0.919591441 C17.1074542,1.14259216 17.0729729,1.39081026 17.0729729,1.65831223 L17.0729729,1.94213133 L11.2785118,1.87537945 L11.2525182,1.6241946 C11.2037138,1.13270299 11.0318374,0.693623971 10.7416635,0.314868867 L10.740072,0.312891033 L10.0865175,0.00978805854 C9.59794305,-0.0337242772 9.21228222,0.0676396867 8.90937668,0.317835617 L8.90301089,0.323769117 C8.83192622,0.406838122 8.76826831,0.494357252 8.71256765,0.584348673 C8.65845842,0.674340095 8.61548934,0.765814891 8.58631279,0.858773063 C8.55448384,0.954203527 8.52955116,1.05457857 8.51098427,1.1598982 L8.51735006,1.18214883 L8.67861676,1.87537945 L0.992454865,1.93916458 L0.334126001,2.25215672 L0.0105316356,2.85935159 C-0.0361508302,3.31425328 0.0720676132,3.67372451 0.341022274,3.95655469 L0.3463271,3.96248819 C0.6110379,4.16323828 0.905986207,4.28289721 1.24920843,4.32838738 L1.26087904,4.32838738 L7.41288536,4.37783321 C7.66221216,4.31305917 7.93116683,4.29674204 8.21444452,4.33036521 L8.27014519,4.34223221 L8.39162569,4.38079996 C8.39480859,4.3827778 8.39905245,4.38426117 8.40276583,4.38525009 L8.95658963,4.39019467 L8.99213196,4.63050143 C9.00061968,4.68686969 9.01282078,4.74175457 9.02767429,4.79565053 C9.16294734,4.93508778 9.2738182,5.09825904 9.35869541,5.2817031 L9.41439608,5.41372348 L9.41439608,5.4562469 C9.41598753,5.4562469 9.41704849,5.45822473 9.41863994,5.46020256 L9.44251166,5.47948644 L9.79316063,5.64364661 L11.0546482,5.62535166 C11.1416473,5.58480607 11.225994,5.53585469 11.3060969,5.48047536 L11.3421697,5.44685219 C11.5342044,5.20357867 11.637118,4.92519862 11.6556849,4.59490043 L11.6700079,4.32838738 L14.8571472,4.32838738 C15.1329981,4.32838738 15.4199892,4.33036521 15.7175899,4.33530979 C16.0130687,4.34124329 16.2098777,4.34272667 16.3106694,4.34272667 L16.8464568,4.34272667 L16.8464568,4.66956365 C16.8464568,5.08194192 16.9743031,5.43992977 17.237953,5.76528337 L17.2480321,5.77418362 L17.9015866,6.0772866 C18.1662975,6.10151506 18.4235815,6.07184755 18.6697254,5.98778963 L19.1317757,5.82807958 L19.0734226,6.28298127 C19.0437156,6.52625479 19.0278011,6.76903384 19.0278011,7.00439602 L19.0278011,7.3134325 L18.6973105,7.283765 C17.6538513,7.18882899 16.7515004,7.28772066 16.0173126,7.57895664 L16.0051115,7.5829123 L15.6831086,8.19060163 C15.6358956,8.64154765 15.7626809,9.01832492 16.0708913,9.34170069 L16.0852143,9.35406215 L16.1080251,9.3629624 C16.3642482,9.44504249 16.6369162,9.51525558 16.9048099,9.56667924 C17.1716426,9.61859737 17.4575727,9.66013188 17.7572954,9.69128275 C18.042695,9.71897242 18.3450701,9.72886159 18.651689,9.71996134 L18.9853625,9.70957771 L18.9625518,10.0196031 C18.9296619,10.4695602 18.8522114,11.0124755 18.7328528,11.6315374 L18.6569938,12.0236428 L17.3180558,11.3051948 L16.7292202,11.3136006 C16.4257842,11.4342485 16.2141216,11.6305484 16.0846839,11.909423 L16.0655865,11.9598577 C16.0289832,12.2649385 16.0899887,12.5072231 16.2507249,12.7005563 L17.9323546,13.8002317 L17.7631307,14.0301549 C17.5228221,14.3564974 17.2517455,14.6887734 16.9546753,15.0220383 C16.6655623,15.3454141 16.3499251,15.67324 16.0157211,15.9966158 L16.0072334,16.0139218 L15.6831086,16.6230945 C15.6353651,17.0779962 15.7435836,17.4374674 16.0120078,17.7212865 L16.0236784,17.7331535 L16.6692756,18.0332897 C17.1997582,18.0768021 17.6267967,17.9581321 17.9758542,17.6673906 L18.0755849,17.5803659 C18.3668199,17.2802297 18.6543414,16.9716876 18.9317838,16.6636401 C19.2405246,16.3219694 19.5508569,15.9501367 19.8553539,15.5580312 L20.034657,15.3261302 L21.8446636,16.5865046 L22.3751461,16.5865046 C22.7035148,16.4544842 22.925787,16.2532397 23.0536333,15.9743651 L23.0621211,15.958048 L23.0621211,15.4190884 L23.0515114,15.4072214 C22.4785902,14.7748092 21.8266272,14.2022264 21.1141891,13.7038123 L20.965654,13.5994816 L20.9980134,13.428399 C21.0521226,13.1495245 21.1051709,12.8617498 21.1608715,12.5650747 C21.207554,12.3015284 21.2568889,12.0369932 21.3041018,11.7744358 L21.3216078,11.6844444 C21.3629854,11.4129868 21.4022411,11.1311455 21.4393749,10.8463375 C21.4770391,10.5689463 21.5067462,10.2727658 21.5279655,9.96719052 L21.5454714,9.71056663 L23.3485816,9.66606538 L23.3575998,9.94592881 C23.3798801,10.6396539 23.4154224,11.3417848 23.4631659,12.0300708 C23.5103788,12.7198402 23.5671405,13.4274101 23.6318593,14.1325077 C23.7034745,14.8791399 23.9013445,15.5916544 24.2201645,16.2478006 C24.539515,16.9054302 24.9835289,17.5205364 25.5394746,18.0758132 C25.6227604,18.1638268 25.7033937,18.2389844 25.7850881,18.3067252 C25.8667824,18.3729826 25.955373,18.4357789 26.0471464,18.4901693 C26.1442248,18.5499987 26.2428945,18.6019169 26.3436862,18.6464181 C26.4407645,18.6899304 26.5389038,18.7235536 26.6428784,18.7497599 L26.6704635,18.7576712 C27.1532026,18.796239 27.551595,18.6765801 27.8958782,18.3897942 L27.9255852,18.3685325 C28.0895043,18.0797688 28.2491796,17.7870495 28.3993061,17.4982858 C28.5510242,17.2055665 28.7016812,16.9004856 28.8459725,16.5904603 C28.9897332,16.2834016 29.1287197,15.9783208 29.2666451,15.67324 L29.2671756,15.6663176 C29.3138581,15.2133937 29.2067006,14.8336497 28.9393374,14.509285" id="Fill-27" fill="#E8B100"></path>
                    <path d="M33.1301924,9.8441537 C33.2533734,9.94322207 33.4058573,10.0345908 33.5729928,10.1059406 C33.7347017,10.1731839 33.9078063,10.2163017 34.0879652,10.2352941 L34.1259506,10.2352941 C34.4987494,10.1860166 34.8482144,10.0525566 35.1634926,9.83799401 L35.1765162,9.83029439 L35.1993073,9.79282294 C35.9427344,8.47054247 36.6910454,7.13132284 37.4404416,5.78799676 C38.1914657,4.4395376 38.9012487,3.06489976 39.5502551,1.70360791 L39.5725037,1.66049006 C39.6788626,1.1451292 39.5659919,0.721137091 39.2273798,0.364901592 L39.165518,0.326916827 L38.4834101,0.0102060157 C37.9602979,-0.0359916715 37.5468005,0.0743694701 37.2206693,0.346935825 L37.1864825,0.385947205 C36.4425128,1.83296143 35.7414122,3.16499474 35.0413969,4.45647676 C34.320761,5.79107661 33.557256,7.13902246 32.7742156,8.46643601 L32.7497965,8.51058046 C32.6629729,9.03928733 32.7807274,9.46841251 33.1095718,9.82516132 L33.1301924,9.8441537 Z" id="Fill-29" fill="#E8B100"></path>
                    <path d="M51.2001242,16.6338834 C51.0326704,15.695115 50.707613,14.8041368 50.2343545,13.986973 L50.2213701,13.9685194 L50.1918194,13.9500658 L49.6254315,13.6562275 C49.1969467,13.6145886 48.8566662,13.7144274 48.587576,13.9628414 L48.5719052,13.9789291 C48.3766917,14.2301822 48.2625186,14.5102985 48.2240132,14.8363123 L48.2222222,14.8476684 L48.2343111,14.8713269 C48.3587822,15.1651651 48.4662391,15.4433888 48.5607118,15.7216125 C48.6574231,16.0064606 48.7465228,16.2965135 48.8239814,16.5856201 C48.9023355,16.881351 48.9659142,17.1846527 49.0124789,17.487008 C49.1038173,17.9478751 49.2063492,18.399752 49.3155972,18.8213461 C49.4243974,19.2471987 49.552898,19.6815683 49.6975172,20.1116794 L49.7109493,20.1448012 L49.7503502,20.1689329 L50.3006196,20.4599321 L50.3149472,20.4608785 C50.7438797,20.5044101 51.0855034,20.4017323 51.3568323,20.1495329 L51.3814579,20.124455 L51.6666667,19.5202175 L51.6630848,19.4970322 C51.519361,18.5450151 51.3635484,17.5821151 51.2001242,16.6338834" id="Fill-31" fill="#E8B100"></path>
                    <path d="M51.2993112,9.21018865 L51.3367102,9.19292151 L51.65657,8.49909639 C51.7013504,7.99991904 51.597519,7.58236818 51.3381865,7.22132796 L51.3219474,7.19778186 L51.3057084,7.18993316 C50.8146005,6.93301903 50.2654258,6.82313723 49.6749153,6.86290398 C49.4318219,6.88435709 49.1956177,6.89220579 48.9761446,6.88749657 C48.759132,6.8822641 48.5381827,6.86395047 48.3005023,6.82993943 L48.1179361,6.80325385 L48.1179361,1.82770104 C48.1179361,1.54253159 48.0810292,1.27253629 48.0081996,1.02504061 C47.9373383,0.783823882 47.8280939,0.564583517 47.684403,0.373075227 L47.6652114,0.345866399 L47.0200787,0.0104652676 C46.5476704,-0.0366269349 46.17122,0.074824611 45.8744884,0.352668606 L45.8498838,0.38040068 L45.54085,1.03655204 L45.54085,1.06219112 L45.6033457,6.79959113 L42.3087894,6.79959113 L42.2950109,6.80743983 L41.6656251,7.14179446 L41.3433048,7.84085205 C41.2990166,8.34055264 41.4018638,8.73508065 41.65972,9.0505984 L41.6843246,9.07623749 C41.8043951,9.18454956 41.9402125,9.27454799 42.0883322,9.3441398 C42.2359598,9.41373161 42.391953,9.45873083 42.5543434,9.47599797 L45.6013774,9.47599797 L45.6008853,9.7004708 C45.5615179,19.3585583 45.5211664,24.6171876 45.4813069,25.3308961 L45.4793385,25.3513027 C45.396175,25.9232113 45.5019748,26.4171562 45.8006746,26.8592996 L45.8208504,26.8922642 C46.0767383,27.1141208 46.3621517,27.245979 46.6933296,27.2941176 L46.7282682,27.2941176 C46.8941032,27.2731878 47.0560015,27.231328 47.2090421,27.1659222 C47.3674957,27.0989466 47.5165996,27.0089482 47.663243,26.8912177 L47.684403,26.8739506 L47.695229,26.838893 C47.785774,26.5427354 47.9112574,25.4768819 47.9909764,22.100371 C48.0554404,19.3590815 48.0982524,15.1977006 48.1179361,9.73029586 L48.1189203,9.48593965 L48.347251,9.50843926 C49.6311192,9.63349522 50.6285897,9.53198536 51.2993112,9.21018865" id="Fill-33" fill="#E8B100"></path>
                    <path d="M41.3166747,4.99754379 L41.323459,4.96721522 C41.3675566,4.47321941 41.264339,4.08203229 41.0060525,3.77155001 L40.9808538,3.74636188 L40.3581557,3.42251447 C39.8963415,3.37522247 39.5091541,3.48368565 39.1752716,3.75355849 L39.1466808,3.7808028 C37.9012846,5.89300759 36.8012653,7.76669619 35.7879877,9.50364922 C34.6632543,11.4210315 33.6388311,13.4057535 32.7433089,15.3997283 L32.7321633,15.4362254 C32.6880656,15.9261089 32.7903141,16.3378577 33.0461776,16.6920337 L33.0616845,16.7141376 L33.6974665,17.0446675 C34.1592808,17.0904174 34.5493757,16.9608785 34.8842274,16.6447417 L34.9026418,16.6185255 L36.0234984,14.6147839 L36.4077782,14.734042 L36.0971561,24.1770213 C35.9842466,25.1968836 36.1078171,26.1206198 36.4625369,26.9225277 L36.4741671,26.9466877 L37.1060724,27.2833862 L37.1206101,27.2839003 C37.5872702,27.3301642 37.9570124,27.2196448 38.2492202,26.9456596 L38.2700575,26.9158451 C38.5889177,26.1175355 38.7134574,25.2410914 38.6383459,24.3111866 L38.6373767,24.2993636 L38.6378613,24.2880547 L38.9039012,9.70926663 L38.913593,9.67739593 C39.0449169,9.27232964 39.2048316,8.86983357 39.389945,8.48327285 C39.5755429,8.09362787 39.7863396,7.71426375 40.015066,7.35494734 C40.480757,6.60495785 40.9197955,5.80973254 41.3166747,4.99754379" id="Fill-35" fill="#E8B100"></path>
                    <path d="M42.7230112,13.9510681 L42.140544,13.6553887 C41.6674604,13.6130816 41.280972,13.7315414 40.9678617,14.0196996 L40.9359582,14.0530752 C40.8056095,14.2707216 40.6839204,14.494479 40.5754484,14.7196466 C40.4651533,14.9452844 40.3685312,15.1840843 40.2864936,15.4318157 C40.2076463,15.6724959 40.1342682,15.9296289 40.0690939,16.1966336 C39.9063859,16.9431184 39.7673777,17.6759709 39.6566269,18.369807 C39.5435973,19.0833863 39.6406752,19.6470105 39.9524182,20.092175 L39.9633565,20.1025167 C40.1985311,20.3027702 40.4733571,20.427341 40.7823655,20.4705882 L40.8119902,20.4705882 C41.1255562,20.4264008 41.4186129,20.3046505 41.6829564,20.1081576 L41.6993639,20.0949954 L41.9905975,19.4838933 C42.0275144,18.4544211 42.1277826,17.6016985 42.2882117,16.9431184 C42.4591235,16.2868887 42.7088825,15.6677952 43.0315638,15.1004103 L43.0461483,15.0693851 C43.0880786,14.6166994 42.9900892,14.2584995 42.7471667,13.9759823 L42.7230112,13.9510681 Z" id="Fill-37" fill="#E8B100"></path>
                    <path d="M53.8427655,4.33121429 L53.8781481,4.34288243 C54.942307,4.57274483 56.0670453,4.70284461 57.2244856,4.72559749 L57.2255578,4.72559749 C57.5037938,4.72559749 57.7927518,4.73784904 58.0795654,4.76293554 C58.3594097,4.78685523 58.6317486,4.81310855 58.9008709,4.84286232 C59.190365,4.87611652 59.4535902,4.91462139 59.7071656,4.96129396 C59.9666381,5.00796652 60.2250384,5.06047316 60.4759333,5.11764706 L60.5370488,5.11764706 C60.9439488,5.06163998 61.3009916,4.91228776 61.6290849,4.66375634 L61.6435596,4.6526716 L61.9893442,3.88665808 C62.0375932,3.32367023 61.9223317,2.87969743 61.6365903,2.52848636 L61.62426,2.515068 L61.592094,2.49756578 C60.9401961,2.15918967 60.2062749,1.9643317 59.4128466,1.91882594 C59.0054105,1.89490625 58.3937201,1.86398568 57.5954669,1.83014806 C56.7741614,1.79572705 55.7368075,1.75255492 54.4860857,1.70588235 L54.4566002,1.70588235 L54.4249703,1.72046753 L53.7500202,2.08626378 L53.3983384,2.86686248 C53.3500894,3.4275167 53.4862589,3.89365897 53.8148883,4.29387624 L53.8427655,4.33121429 Z" id="Fill-39" fill="#E8B100"></path>
                    <path d="M61.62724,9.19804338 L61.6096014,9.1779515 L61.5715681,9.17073903 C60.5876625,8.91521145 59.5287927,8.77559861 58.4236214,8.75447637 C57.3333328,8.73335413 56.2254055,8.67101777 55.1318096,8.56489139 C54.5756411,8.51594962 54.0315992,8.51697997 53.5195274,8.57210387 C53.0217869,8.62671258 52.5394802,8.74108178 52.0858364,8.91109004 L52.0472519,8.92757569 L52.0185891,8.9734264 L51.6779428,9.62254887 C51.6277829,10.1145425 51.7446389,10.5261686 52.0351253,10.88061 L52.0527639,10.9027626 L52.0946557,10.9228545 C52.7649242,11.1691089 53.5040936,11.2850236 54.2928716,11.2659621 C54.6059576,11.2546282 54.9405406,11.2515371 55.2679579,11.2566889 C55.5882095,11.2618407 55.9172805,11.2705987 56.2540683,11.2809022 L56.4828195,11.2881147 L56.4117137,23.5627114 L55.1825207,22.9378022 C54.6588735,22.8904059 54.2311364,22.9980778 53.8756075,23.267 L53.8463935,23.2870919 L53.491967,23.9640339 C53.4418071,24.4601489 53.5603167,24.8527135 53.8535592,25.1623346 L53.8921437,25.1978817 C54.1892446,25.3725266 54.4835895,25.5631419 54.7669102,25.7599394 C55.0469236,25.9551913 55.3341028,26.1628074 55.621282,26.3760905 C56.1857186,26.7944139 56.8174025,27.092186 57.4986951,27.2606487 C57.7974496,27.3265913 58.0736046,27.296711 58.2984973,27.156583 C58.5360678,27.0107881 58.7096982,26.7825648 58.8282078,26.4605795 C58.8667924,26.3415737 58.9103378,26.1880511 58.9549856,26.0108304 C58.9974286,25.837731 59.0338083,25.6486612 59.0602662,25.4461969 C59.0894802,25.2138522 59.1137334,24.9773862 59.1335768,24.7429808 C59.1572788,24.4823015 59.176571,24.2025606 59.1914536,23.90891 C59.2090923,23.6188656 59.2217701,23.3082141 59.2344478,22.9316201 C59.2790956,21.262448 59.3005927,17.5789356 59.3005927,11.6734667 L59.3005927,11.4205151 L59.8038453,11.4859425 C60.1334674,11.5245807 60.4680504,11.5101558 60.7745219,11.4426676 C61.0787885,11.3772402 61.3610068,11.2566889 61.6145623,11.0866806 L61.6338545,11.0738012 L61.9888322,10.3973744 C62.0389921,9.90125939 61.9204825,9.50921003 61.62724,9.19804338" id="Fill-41" fill="#E8B100"></path>
                    <path d="M50.3388265,4.73804332 C50.4004651,4.94044816 50.4704614,5.13548253 50.5456813,5.31690984 C50.6203788,5.50570765 50.7070906,5.68826888 50.8032049,5.86175875 C50.8987969,6.0369495 51.0053584,6.21837682 51.1213224,6.40377286 L51.1343814,6.42361647 L51.1547535,6.44005832 L51.7852425,6.81538608 L51.8139723,6.81652 C52.0620935,6.83636361 52.2919321,6.81425216 52.4966973,6.7479178 C52.6899707,6.68725304 52.8680956,6.58066449 53.0274155,6.43098696 L53.0681596,6.36465259 L53.3888889,5.66842527 L53.3805311,5.63837637 C53.3188926,5.33732042 53.2515081,5.04023319 53.173154,4.7181997 C53.0984565,4.41827767 53.0185354,4.12572612 52.9370471,3.85018339 C52.7698918,3.2707499 52.5740067,2.69698601 52.35566,2.14590054 L52.3436457,2.10564635 L52.3300644,2.09940979 L51.633758,1.73258644 C51.1030398,1.64640846 50.670003,1.76830494 50.3100967,2.10564635 L50.2730091,2.1521371 L49.9444444,2.86423932 L49.9491457,2.88975254 C50.0327234,3.54005607 50.1638358,4.15917679 50.3388265,4.73804332" id="Fill-43" fill="#E8B100"></path>
                    <path d="M80.5946563,2.36428866 L80.5704599,2.34093953 L79.9243637,2.04121296 L79.8975932,2.04121296 L71.5014316,2.20703942 L71.6625695,1.56565314 C71.728981,1.09295241 71.6023358,0.687916495 71.2780007,0.328149302 L71.2527746,0.305753199 L70.5953524,0.0098387262 C70.1006126,-0.0340004549 69.7083216,0.0684498053 69.3968569,0.321478123 L69.3752345,0.337203046 L69.365453,0.364364278 C68.9875768,1.45510217 68.6184525,2.56156498 68.2704358,3.65230286 C67.9208746,4.74685285 67.5517503,5.85712777 67.1723297,6.95072473 L67.1666667,6.99265786 C67.2160892,7.34718341 67.3494269,7.67407122 67.56668,7.96331451 L67.5774912,7.97618036 L68.2534468,8.28257811 C68.7481866,8.32546427 69.1409925,8.22396704 69.4509127,7.97093872 L69.4663573,7.95664333 L69.4725351,7.94187143 C69.5569652,7.75746097 69.6408805,7.57638609 69.7247957,7.39578772 C69.8138592,7.20375305 69.8890226,7.03173191 69.9559489,6.8678115 L69.9822046,6.80443529 C70.0470716,6.64623303 70.1114238,6.48993682 70.1762908,6.33649968 C70.2648395,6.10920306 70.3497844,5.865705 70.4285515,5.61887135 C70.5042297,5.38061493 70.5752746,5.12568056 70.6370527,4.85740383 L70.6720603,4.70491972 L75.1082443,4.48429428 L75.1303814,4.67632895 C75.1720817,5.03276056 75.2132671,5.36489 75.2544525,5.67367032 C75.3018157,6.01151793 75.3445456,6.28360676 75.3883051,6.52901087 C75.4315498,6.77775057 75.4799426,7.01886607 75.5339985,7.24473315 C75.589084,7.47107675 75.6415954,7.65786978 75.6941068,7.81511902 C75.747133,7.97713338 75.8027333,8.11293954 75.8614225,8.21920191 L75.8820152,8.26399411 L76.4534629,8.52941176 L77.2473117,8.52369361 C77.4388239,8.4712772 77.6118027,8.38312232 77.7610998,8.26018201 L77.7888999,8.23492683 L78.1101462,7.63928578 L78.1101462,7.61450711 C78.1101462,7.14800105 78.00049,6.18020347 77.7847814,4.74018167 L77.7471997,4.49477756 L78.0154197,4.50954946 C78.9570213,4.56530146 79.8131631,4.43426043 80.5606784,4.12071498 L80.5998045,4.10356052 L80.934436,3.47456357 C80.9802548,3.01568171 80.8690542,2.65257893 80.5946563,2.36428866" id="Fill-45" fill="#E8B100"></path>
                    <path d="M76.4311798,14.0045898 L71.4335568,14.0744904 L71.4335568,13.0334519 L76.5345427,12.9635513 L76.4311798,14.0045898 Z M76.1920636,17.5759227 L71.5497806,17.7178583 L71.5497806,16.8048819 L76.2520808,16.7317798 L76.1920636,17.5759227 Z M78.8428234,10.5863978 C78.6989727,10.4151147 78.5098708,10.3019931 78.2821865,10.2475667 L78.2469383,10.2352941 L77.015633,10.2454324 C76.7974753,10.3089298 76.5559775,10.3265384 76.2982845,10.300926 L76.1877767,10.300926 L76.1234725,10.2529027 L70.3389574,10.3019931 L70.3313361,10.300926 C70.2679846,10.29559 70.2065384,10.2934557 70.1460449,10.2934557 C69.9555141,10.2934557 69.7830837,10.3185345 69.6330407,10.3665578 C69.4448916,10.4247194 69.2934196,10.5277027 69.1676692,10.6808436 C69.0443006,10.833451 68.9685646,11.0175404 68.9361743,11.2459178 C68.8604383,11.8824934 68.8756808,13.2511575 68.9819017,15.3092229 C69.0876463,17.3758256 69.1362317,19.8138087 69.1271814,22.5543385 C69.1171786,25.316212 69.1838644,27.1048132 69.3258098,27.8705181 C69.3682029,28.069548 69.4282201,28.248835 69.5053851,28.3950393 C69.5787395,28.5385756 69.6711469,28.6575667 69.7797494,28.7536133 C69.8893047,28.8469919 70.0126734,28.9158253 70.1498555,28.9563783 C70.2908483,28.9995993 70.4532758,29.0097375 70.6309458,28.9910618 L70.6538095,28.9857259 L76.0177279,26.7232947 L76.5983706,27.4276365 L77.1975899,27.7557957 C77.6520059,27.8048862 78.0325912,27.6922983 78.3603042,27.4110952 L78.3807862,27.3945538 L78.6880171,26.69288 C78.7294576,26.1998407 78.5941807,25.7996465 78.2731363,25.4672186 L78.2402698,25.4223968 L76.111088,21.7021916 L76.0801268,21.6813815 L75.4761441,21.3500208 C75.0231571,21.3019974 74.6416192,21.4135182 74.3129536,21.6947213 L74.2929478,21.7112627 L74.2853266,21.7283377 L73.9866696,22.4294779 L73.9866696,22.4566911 C73.9866696,23.1028713 74.1419522,23.7010282 74.4482304,24.2346205 L74.5963681,24.4928791 L71.7765123,25.3882469 L71.6145611,20.4391788 L71.8274793,20.4413131 C72.7167818,20.4525186 73.5151058,20.4589217 74.2000641,20.4589217 C76.0505945,20.4589217 77.1704393,20.4162343 77.5281609,20.3313931 C78.0835582,20.2011966 78.4207977,19.7385721 78.5594089,18.9205752 C78.6837302,18.1543367 78.901888,15.8807002 79.2100715,12.1642301 C79.2367459,11.8168616 79.2195981,11.5036429 79.1576756,11.2347124 C79.0981347,10.9780545 78.9947717,10.766752 78.8428234,10.5863978 L78.8428234,10.5863978 Z" id="Fill-47" fill="#E8B100"></path>
                    <path d="M92.8779785,10.0029388 C92.8041656,9.82981743 92.6765308,9.7084335 92.4858475,9.62983243 C92.2695347,9.54028691 92.0014503,9.49501667 91.6892833,9.49501667 L89.3872434,9.5104384 C89.3857057,9.51143335 89.3826301,9.51342325 89.3805798,9.51541315 C89.2893388,9.51541315 89.1945098,9.51342325 89.0976303,9.51342325 C89.3108676,9.18857199 89.4846355,8.71547315 89.5707505,8.03840951 C89.5804897,7.96130086 89.5856156,7.8906594 89.587666,7.82449521 C89.6481515,7.55337126 89.6932594,7.27578014 89.7235022,6.988737 L89.9639067,4.81526819 L90.174581,4.82919749 C91.0306056,4.88640713 91.828195,4.75009895 92.548896,4.42475021 L92.5709373,4.41330829 L92.9082213,3.74768657 C92.9543543,3.26861803 92.8441476,2.89053694 92.5704247,2.59055944 L92.5458204,2.5592185 L92.5130147,2.5512589 C91.8569,2.42987497 91.1920714,2.33784207 90.5359567,2.27466273 C89.8639517,2.21048844 89.164267,2.17268033 88.4538178,2.16173588 C87.173369,2.1413394 85.8908699,2.11596817 84.6432268,2.08611966 L84.4156371,2.07915501 L84.4310148,1.85976848 C84.4689464,1.28468724 84.3438745,0.778257562 84.0598999,0.354408758 L84.0199179,0.320580449 L83.3627781,0.0106534476 C82.8717172,-0.036109214 82.4800988,0.0708479375 82.1689569,0.336002178 L82.1499911,0.350926432 L82.14384,0.38375979 C81.8885704,1.30010897 81.6748206,2.27167788 81.5061786,3.27259783 C81.4872128,3.38502721 81.468247,3.49795406 81.448256,3.61237334 L81.448256,3.65018145 L81.4400545,3.6631158 C81.2939665,4.49887401 81.1289127,5.35453122 80.9489937,6.21367076 L80.9489937,6.22212783 C80.9387419,6.41067091 80.9459182,6.57981245 80.9694973,6.73751206 C80.9915387,6.8887445 81.0340836,7.03748956 81.0955943,7.17728007 C81.1550547,7.31756806 81.2339935,7.44641411 81.3390744,7.57675259 L81.3565024,7.60013393 L82.0300452,7.92001043 C82.5226437,7.96528067 82.9142622,7.85832351 83.2228411,7.59416422 L83.2576972,7.56779804 C83.5073283,7.10763355 83.6447023,6.60617863 83.6646933,6.07835752 C83.6857095,5.64207184 83.740044,5.20877101 83.8241087,4.78840453 L83.8589648,4.61229834 L87.4030092,4.68244233 L86.8181444,8.14785404 C86.8504376,8.39111937 86.9206624,8.61946045 87.0231803,8.83287728 C87.0770022,9.03982693 87.153378,9.29055439 87.2543582,9.51143335 C86.7058873,9.5144182 86.30658,9.51690557 86.30658,9.51690557 C86.3096556,9.52188033 86.3127311,9.52486518 86.3158067,9.52983993 L82.292491,9.55521116 C82.0828419,9.55521116 81.9075362,9.59102937 81.7537594,9.66366074 C81.6066462,9.73280978 81.4913135,9.82782753 81.4016103,9.95617611 C81.3078064,10.0904944 81.2370691,10.2556561 81.1929864,10.4441992 C81.1453155,10.6382145 81.1263497,10.8620783 81.1355763,11.108826 C81.3329233,15.2662256 81.494389,18.7813848 81.6035706,21.2737352 C81.7107018,23.7282774 81.7609356,25.0018137 81.7609356,25.2828872 C81.7609356,25.8803548 81.9131747,26.4360345 82.2135522,26.9325147 L82.2309803,26.9608708 L82.2560972,26.9752975 L82.8886327,27.2822397 L82.9050356,27.2842296 C83.396609,27.3290024 83.7882274,27.2220452 84.0983441,26.956891 L84.126024,26.9285349 L84.4458799,26.3012188 L84.4458799,26.266893 L83.7641357,12.1027813 L90.2017483,12.037612 L90.1740684,12.2764001 C90.0633491,13.2305574 89.9659571,14.1130782 89.8777917,14.9697304 C89.7916766,15.8248901 89.6209843,16.6596534 89.3687902,17.4516338 L89.2780619,17.7381795 L88.0950051,16.8919743 L88.0663001,16.8869995 C87.5578112,16.8452116 87.1595291,16.9521688 86.8545383,17.2143382 L86.8248081,17.2436892 L86.4993137,17.8749851 L86.503927,17.8993614 C86.6305367,18.7699429 87.0129285,19.5037187 87.6398255,20.0837747 C88.2656974,20.6722877 88.9105351,21.0523587 89.5584484,21.2135407 C89.6722432,21.2438867 89.7798871,21.2583134 89.8818924,21.2583134 C90.4185737,21.2583134 90.8916939,20.8344646 91.287413,19.9982089 C91.3499489,19.87782 91.4042834,19.7569335 91.453492,19.6315698 C91.5042384,19.5027237 91.5565225,19.3664155 91.6072689,19.22762 C91.6605782,19.0858396 91.7113246,18.9390844 91.7636087,18.7843696 C91.8169181,18.6202029 91.8615134,18.4679755 91.8984198,18.3222153 C91.939427,18.1605358 91.9840223,17.9908968 92.0316931,17.8137957 C92.0773136,17.6416693 92.1183207,17.4630757 92.1526642,17.2824922 C92.1777811,17.1581235 92.2008477,17.0347496 92.2249394,16.9113758 L92.262871,16.7128832 C92.2910634,16.5586659 92.3238692,16.3944992 92.3561623,16.2243627 L92.3792288,16.107456 C92.648851,14.47723 92.8374839,13.1211128 92.9400018,12.0823848 C93.0630233,10.759101 92.9738327,10.2213303 92.8779785,10.0029388" id="Fill-49" fill="#E8B100"></path>
                </g>
                <g id="Group-23" transform="translate(0.000000, 3.000000)" fill="#F1CFE1">
                    <path d="M13.4305616,19.7856579 L13.3818219,19.7571857 L12.7291579,19.4374982 L12.6484853,19.408027 L12.5672524,19.408027 L5.52352362,19.3056271 C8.12017382,16.5053642 9.75211385,14.7266028 10.4143017,13.9698425 C10.7616422,13.5732301 11.0798509,13.1706236 11.3683675,12.7635216 C11.656324,12.356919 11.9145885,11.9503164 12.1431609,11.5427148 C12.5997456,10.7200189 12.8815395,9.81340509 12.9919042,8.8243718 C13.0983472,7.84532874 13.0288791,6.87677544 12.7778976,5.91671383 C12.5269161,4.93817029 11.9846168,4.11947051 11.1481985,3.46011498 C10.7442751,3.14042745 10.3644415,2.87169013 10.0070169,2.65340349 C9.64847194,2.43561636 9.29945078,2.2677804 8.9627546,2.15239319 C8.74594691,2.08396008 8.51233243,2.02102159 8.26135092,1.96307823 C8.01205009,1.90463535 7.74818337,1.85618271 7.47031099,1.81722079 C7.19355906,1.7792579 6.89271738,1.75028622 6.56610529,1.73030575 C5.60979851,1.67186287 4.6148361,1.77326376 3.58345897,2.03550744 C3.23443781,2.12342151 2.91454843,2.21982728 2.62042948,2.32672279 C2.32743097,2.43361831 2.05572108,2.55100357 1.80473957,2.68287468 C1.55487852,2.81324725 1.33246856,2.95660713 1.13694949,3.11195528 C1.01818145,3.19887033 0.911738402,3.28578538 0.81874079,3.37270042 C0.726303404,3.46011498 0.638908057,3.54703003 0.558235429,3.63444459 C0.476442349,3.72185915 0.408654932,3.80677614 0.354312954,3.88919559 C0.299970976,3.97111551 0.253472169,4.05603251 0.215376762,4.14294756 C0.177841581,4.23086163 0.153191611,4.3187757 0.14198708,4.40519124 L0.14198708,4.43466243 L0.14198708,4.4631346 C0.196889285,4.92917908 0.376722017,5.3207963 0.680364824,5.64148285 L0.712297739,5.68494037 L0.762718132,5.71391205 L1.47980816,6.06257126 L1.54367399,6.09154295 L1.6092205,6.09154295 C2.17448912,6.13999559 2.64676012,6.02410886 3.02883465,5.74238422 C3.44172164,5.45216789 3.83388025,5.22139346 4.20138889,5.05205897 C4.57169866,4.88272448 4.89775053,4.77333141 5.18066495,4.72487876 C5.77842671,4.60849252 6.41428388,4.59950131 7.08879669,4.69640659 C7.72913567,4.78332164 8.33754174,5.07353797 8.91401489,5.56805462 C9.48992781,6.04259079 9.81653991,6.72142728 9.89273073,7.60356505 C9.9806863,8.49519355 9.81653991,9.31489235 9.40309269,10.0601639 C9.18572478,10.4482845 8.9521103,10.8289125 8.70336969,11.2015483 C8.45238819,11.5741841 8.18572033,11.9358306 7.90392636,12.2844898 C7.70728683,12.5272525 7.50392458,12.7665186 7.29103848,13.0042862 C7.08039329,13.2420538 6.85686288,13.484317 6.6232484,13.7305763 C6.39019414,13.9778347 6.14257399,14.22809 5.88206863,14.479844 C5.1100764,15.2356053 4.2943865,16.0792806 3.43611938,17.008872 C2.60978517,17.920481 1.66524315,18.7201993 0.599692196,19.408027 L0.550952484,19.4374982 L0.516778662,19.4949421 L0.0618746785,20.2227307 L0.0120145127,20.2801746 L0.0120145127,20.3386174 C-0.0434479188,20.8521155 0.093247367,21.2737035 0.419299237,21.6028817 L0.468599176,21.6468387 L0.534145686,21.6748114 C1.27308455,21.9665263 2.46860807,22.1118842 4.12071626,22.1118842 L12.2395199,22.2857143 L12.2563267,22.2857143 L12.2725732,22.2857143 C12.6854602,22.2377612 13.0658541,22.1023935 13.4148752,21.8796112 L13.4798615,21.8351547 L13.5123547,21.7777108 L13.8389668,21.1962791 L13.8708997,21.1523221 L13.8708997,21.0938792 C13.9246814,20.5803811 13.7891066,20.1587932 13.4630547,19.8291154 L13.4305616,19.7856579 Z" id="Fill-51"></path>
                    <path d="M26.4629302,10.8965766 C26.452405,11.401118 26.4187244,11.9250257 26.3634671,12.4693189 C26.3445217,12.6502404 26.3203138,12.8357485 26.2976846,13.0202374 C26.2976846,13.0472482 26.2966321,13.0727301 26.2961058,13.1002506 C26.2729504,14.5680075 25.8377334,16.296699 25.1025484,17.5825153 C25.0172943,17.7420319 24.9230937,17.888298 24.8231044,18.0269195 C24.101602,19.0747348 23.1485453,19.6995508 22.0444521,19.3912199 C22.0397157,19.389691 22.0349794,19.3881621 22.0297168,19.3866332 C21.7534303,19.3749115 21.5039831,19.3198706 21.285059,19.2179431 C20.989301,19.0890047 20.7319599,18.9289784 20.5125095,18.7363353 C20.2930591,18.5431826 20.0962379,18.3133359 19.9220459,18.0457761 C19.9241509,18.0422086 19.9257297,18.0386411 19.9273085,18.034564 C19.2847451,17.0545305 19.0584534,15.4629315 18.7495388,12.6838765 C18.7048067,12.2924746 18.6779675,11.9071884 18.6642847,11.5275082 C18.6079749,10.5627638 18.6190264,9.78811432 18.6969128,9.20661755 C18.7690104,8.69239299 18.8811038,8.17307204 19.0342454,7.64865471 C19.1879133,7.12525666 19.3863133,6.59574296 19.6320767,6.06164252 C20.1114994,5.0240199 20.7440638,4.23255235 21.5308224,3.68825915 C21.6018675,3.63933392 21.6734388,3.5919376 21.7444839,3.54810875 C21.8160553,3.50326062 21.892363,3.46452814 21.975512,3.42885349 C22.0560298,3.39470776 22.1370738,3.36005239 22.2202229,3.32539702 C22.3012669,3.29074164 22.3849422,3.26118265 22.4733539,3.2362104 C22.558608,3.21123814 22.6480722,3.18728516 22.7406939,3.16180327 C23.0638175,3.06853955 23.356418,3.03949019 23.623758,3.05783716 C23.7242737,3.05376005 23.8237368,3.05019259 23.9195161,3.05019259 C23.9105697,3.06446245 23.9016233,3.07873231 23.8926768,3.09249253 C25.7545844,3.4747209 26.1861175,6.3658963 26.1861175,6.3658963 C26.4108305,7.20883727 26.4681928,8.04158548 26.4576676,8.9619914 C26.4708241,9.27083192 26.4776655,9.57916281 26.4776655,9.88851297 C26.4776655,10.2248739 26.4729292,10.5607253 26.4629302,10.8965766 M28.6669067,4.1928006 C28.2390574,3.12510935 27.728059,2.25974432 27.1354904,1.59721514 C26.5234501,0.915829363 25.9003584,0.489262501 25.267794,0.321591655 C25.0730778,0.262473667 24.8746778,0.213038798 24.6710152,0.173287047 C24.4657739,0.134044934 24.25948,0.0988799243 24.0500286,0.0693209303 C23.8405771,0.040271574 23.6284944,0.0203956987 23.4148329,0.0102029422 C22.7506929,-0.0290391706 22.1323375,0.0448583145 21.5618717,0.232914673 C20.9992999,0.420461394 20.4125201,0.751725982 19.8004798,1.22670844 C19.1879133,1.70118126 18.5442974,2.33415144 17.8706848,3.12510935 C17.1965458,3.9354335 16.6702859,4.90527428 16.2919051,6.03157388 C15.9145767,7.14003616 15.7003889,8.29640439 15.6493417,9.50322677 C15.5982945,10.6896636 15.609346,11.7334019 15.6793385,12.6313838 C15.7198605,13.0773169 15.7840643,13.599186 15.8714234,14.1969912 C15.9582563,14.7958156 16.0729809,15.4756725 16.2161236,16.2370714 C16.5118817,17.7899379 17.0376153,19.0054241 17.7938508,19.885059 C18.5295622,20.7463469 19.1879133,21.3441521 19.7689042,21.680513 C20.3619992,22.0163644 21.0256129,22.2090075 21.7597455,22.2579327 C22.6885942,22.3384555 23.5316626,22.2436628 24.2873718,21.9771223 C25.0525537,21.6998793 25.9003584,21.0128875 26.8302596,19.9151276 C27.7596346,18.8173677 28.4227221,17.4484805 28.8216271,15.8069371 C29.2194796,14.1847599 29.4399825,12.6966174 29.479452,11.3420001 C29.5205003,9.99706583 29.4999956,8.74131822 29.4184058,7.57424759 C29.3363093,6.38781073 29.0863358,5.26049185 28.6669067,4.1928006" id="Fill-53"></path>
                    <path d="M44.665443,19.7856579 L44.6167034,19.7571857 L43.9646011,19.4374982 L43.8833685,19.408027 L43.8021358,19.408027 L36.758423,19.3056271 C39.3550673,16.5053642 40.9870036,14.7266028 41.6497502,13.9698425 C41.9982103,13.5732301 42.3147376,13.1706236 42.6032536,12.7635216 C42.8912094,12.356919 43.1494733,11.9503164 43.377485,11.5427148 C43.8340686,10.7200189 44.1169824,9.81340509 44.2262264,8.8243718 C44.3332294,7.84532874 44.2632012,6.87677544 44.0133407,5.91671383 C43.7634803,4.93817029 43.2195015,4.11947051 42.3825249,3.46011498 C41.9791626,3.14042745 41.5998901,2.87169013 41.2424664,2.65340349 C40.8828017,2.43561636 40.5349018,2.2677804 40.1976462,2.15239319 C39.980839,2.08396008 39.747225,2.02102159 39.4968043,1.96307823 C39.2469438,1.90463535 38.9836379,1.85618271 38.7057662,1.81722079 C38.4284546,1.7792579 38.1276136,1.75028622 37.8010023,1.73030575 C36.8446977,1.67186287 35.8502978,1.77326376 34.8178025,2.03550744 C34.4687821,2.12342151 34.1500139,2.21982728 33.8553354,2.32672279 C33.5623376,2.43361831 33.2906283,2.55100357 33.041328,2.68287468 C32.7897869,2.81324725 32.5673774,2.95660713 32.3729793,3.11195528 C32.2519706,3.19887033 32.1466482,3.28578538 32.0536508,3.37270042 C31.9617739,3.46011498 31.874939,3.54703003 31.7931461,3.63444459 C31.7113532,3.72185915 31.6441261,3.80677614 31.5897843,3.88919559 C31.5354424,3.97111551 31.4895039,4.05603251 31.4508484,4.14294756 C31.4133133,4.23086163 31.3886634,4.3187757 31.3768987,4.40519124 L31.3768987,4.43466243 L31.3768987,4.4631346 C31.4318007,4.92917908 31.6110728,5.3207963 31.914715,5.64148285 L31.9483285,5.68494037 L31.9981885,5.71391205 L32.7147167,6.06257126 L32.7785824,6.09154295 L32.844689,6.09154295 C33.4099563,6.13999559 33.8827865,6.02410886 34.2626192,5.74238422 C34.6760655,5.45216789 35.0687834,5.22139346 35.4368515,5.05205897 C35.8066002,4.88272448 36.1326513,4.77333141 36.4161253,4.72487876 C37.0133255,4.60849252 37.6491812,4.59950131 38.3236925,4.69640659 C38.96403,4.78332164 39.5724347,5.07353797 40.1494668,5.56805462 C40.7259386,6.04259079 41.0508693,6.72142728 41.1276202,7.60356505 C41.2150153,8.49519355 41.0508693,9.31489235 40.6379833,10.0601639 C40.4200556,10.4482845 40.1875621,10.8289125 39.9382618,11.2015483 C39.6878411,11.5741841 39.4211739,11.9358306 39.1393805,12.2844898 C38.9433017,12.5272525 38.7393797,12.7665186 38.5264941,13.0042862 C38.3158493,13.2420538 38.0923194,13.484317 37.8587055,13.7305763 C37.6256518,13.9778347 37.3780322,14.22809 37.1169672,14.479844 C36.3449767,15.2356053 35.5287284,16.0792806 34.6704633,17.008872 C33.8446911,17.920481 32.9001513,18.7201993 31.8346027,19.408027 L31.7864234,19.4374982 L31.7528098,19.4949421 L31.2967864,20.2227307 L31.2474866,20.2801746 L31.2474866,20.3386174 C31.1914641,20.8521155 31.3287193,21.2737035 31.6547704,21.6028817 L31.70351,21.6468387 L31.7696166,21.6748114 C32.5079936,21.9665263 33.7040746,22.1118842 35.3567393,22.1118842 L43.474404,22.2857143 L43.491771,22.2857143 L43.5080175,22.2857143 C43.9203433,22.2377612 44.3007363,22.1023935 44.6503169,21.8796112 L44.7141826,21.8351547 L44.7472359,21.7777108 L45.073287,21.1962791 L45.1063403,21.1523221 L45.1063403,21.0938792 C45.1595617,20.5803811 45.0251077,20.1587932 44.6984963,19.8291154 L44.665443,19.7856579 Z" id="Fill-55"></path>
                    <path d="M58.6226358,21.1630179 L58.5927961,21.1171837 L58.5482893,21.1019056 L57.8412389,20.6725387 L57.767904,20.6267045 L57.6804077,20.6267045 L55.5754408,20.7952902 L55.3392516,1.30730431 L55.3392516,1.27622131 L55.3392516,1.24566515 C55.2613648,0.826834922 55.1136833,0.502834182 54.8977244,0.272609267 C54.6822713,0.0429111816 54.4025868,-0.0419085242 54.0596826,0.0192038104 C53.1553863,0.151965089 52.3613455,0.515478114 51.6750312,1.10868922 C51.0160278,1.67029051 50.192653,2.52902417 49.2008605,3.68383656 L49.1432041,3.76075381 L49.1290428,3.85294914 C49.078467,4.41455043 49.2008605,4.87025878 49.4957177,5.21691323 L49.5255575,5.26380114 L49.5847312,5.29383048 L50.1729284,5.59991899 L50.2462634,5.63100198 L50.3347711,5.63100198 L51.0418215,5.56936282 L51.1293177,5.55461156 L51.2031585,5.4929724 L52.4245653,4.41981873 L52.6015808,20.9175149 L50.3934391,20.8105683 C49.8441854,20.718373 49.377876,20.8463928 48.9950168,21.1941009 L48.9515216,21.2399352 L48.9206703,21.2857694 L48.6278361,21.8990001 L48.5979964,21.9448343 L48.5979964,22.0070003 C48.5479263,22.5475284 48.6905502,23.0137734 49.0243508,23.4015206 L49.0683518,23.4473548 L49.1133643,23.4784378 C49.7020672,23.7850532 50.3302193,23.9589072 50.9973148,24 L51.011476,24 L51.0256372,24 L57.4740583,23.8161362 L57.489231,23.8161362 C57.9004127,23.7639799 58.2686049,23.5953942 58.5927961,23.3098521 L58.6367971,23.2792959 L58.6661311,23.2171299 L58.9604825,22.6038993 L58.9893108,22.5585918 L58.9893108,22.4974795 C59.0388751,21.9553709 58.9159758,21.5101992 58.6226358,21.1630179" id="Fill-57"></path>
                </g>
            </g>
        </g>
    </g>
</svg>