<?xml version="1.0" encoding="UTF-8"?>
<svg width="699px" height="108px" viewBox="0 0 699 108" version="1.1" xmlns="http://www.w3.org/2000/svg" xmlns:xlink="http://www.w3.org/1999/xlink">
    <title>banner title</title>
    <defs>
        <filter x="-6.4%" y="-33.5%" width="112.9%" height="167.0%" filterUnits="objectBoundingBox" id="filter-1">
            <feGaussianBlur stdDeviation="1.07142857" in="SourceGraphic"></feGaussianBlur>
        </filter>
        <polygon id="path-2" points="0.609374069 0.684463127 5.65598039 0.684463127 5.65598039 6.31858407 0.609374069 6.31858407"></polygon>
        <polygon id="path-4" points="0.795126146 0.66159587 5.84169738 0.66159587 5.84169738 6.31858407 0.795126146 6.31858407"></polygon>
        <polygon id="path-6" points="0.361125617 0.649911504 59.5958661 0.649911504 59.5958661 51.3705835 0.361125617 51.3705835"></polygon>
        <filter x="-6.4%" y="-33.5%" width="112.9%" height="167.0%" filterUnits="objectBoundingBox" id="filter-8">
            <feGaussianBlur stdDeviation="1.07142857" in="SourceGraphic"></feGaussianBlur>
        </filter>
        <polygon id="path-9" points="0.609374069 0.684463127 5.65598039 0.684463127 5.65598039 6.31858407 0.609374069 6.31858407"></polygon>
        <polygon id="path-11" points="0.795126146 0.66159587 5.84169738 0.66159587 5.84169738 6.31858407 0.795126146 6.31858407"></polygon>
        <polygon id="path-13" points="0.361125617 0.649911504 59.5958661 0.649911504 59.5958661 51.3705835 0.361125617 51.3705835"></polygon>
    </defs>
    <g id="2021桃園兒童節" stroke="none" stroke-width="1" fill="none" fill-rule="evenodd">
        <g id="01_index" transform="translate(-367.000000, -1689.000000)">
            <g id="banner" transform="translate(-10.000000, 1689.000000)">
                <g id="banner-title" transform="translate(377.000000, 0.000000)">
                    <g id="Group-30">
                        <g id="star" transform="translate(0.000000, 39.000000)" fill="#FFFFFF" fill-rule="nonzero" opacity="0.44">
                            <g transform="translate(539.000000, 0.000000)">
                                <path d="M44.9191744,21.2706013 L54.2226726,26.9733455 L54.6706188,37.7261102 C54.6706188,40.371359 56.6002333,38.5506033 56.6002333,38.5506033 L64.8700095,31.5080578 L75.2072298,34.2563682 C77.7915349,34.8747381 76.4132389,32.1607815 76.4132389,32.1607815 L72.5540099,22.8508798 L77.8949071,14.5715945 C80.5136696,11.4110375 76.5855259,12.132469 76.5855259,12.132469 L66.627337,12.9226082 L60.5972918,5.60523162 C60.5972918,5.60523162 58.3231033,1.75759697 57.5650405,5.60523162 L55.2219372,15.3617338 L45.401578,19.1063068 C42.6794433,20.1025693 44.9191744,21.2706013 44.9191744,21.2706013 Z" id="Path-Copy-119" transform="translate(61.423869, 21.528331) rotate(15.000000) translate(-61.423869, -21.528331) "></path>
                                <path d="M5.17556239,36.364324 L4.72955145,38.9056929 L2.24127986,39.9664381 C1.6309491,40.2095256 2.24127986,40.4747119 2.24127986,40.4747119 L4.58870589,41.6680503 L4.91734553,44.1652214 C4.91734553,44.7839894 5.5276763,44.1652214 5.5276763,44.1652214 L7.33519434,42.5078069 L9.68262036,42.9276853 C10.6685393,43.2149704 10.1286313,42.4415104 10.1286313,42.4415104 L9.00186681,40.2316244 L10.1521056,38.2648259 C10.1521056,38.2648259 10.8563334,37.4250693 9.84694018,37.623959 L7.3586686,37.9775408 L5.55115056,36.1433355 C5.24598517,35.7676548 5.17556239,36.364324 5.17556239,36.364324 Z" id="Path-Copy-120" transform="translate(6.180548, 40.229703) rotate(31.000000) translate(-6.180548, -40.229703) "></path>
                                <path d="M30.9031827,36.174657 L29.947965,41.7507496 L24.6508487,44.098578 C23.3048602,44.6016841 24.6508487,45.1886413 24.6508487,45.1886413 L29.861127,47.7880228 L30.5558308,53.2802643 C30.5558308,54.6638061 31.8584003,53.2802643 31.8584003,53.2802643 L35.7661091,49.5908196 L40.9763874,50.5970318 C43.0604987,51.2259144 41.931605,49.4650431 41.931605,49.4650431 L39.5001418,44.8113117 L41.975024,40.6187609 C41.975024,40.6187609 43.4512695,38.7740385 41.3237392,39.1513681 L35.983204,39.9479527 L32.1189143,35.9650295 C31.0334396,34.7491897 30.9031827,36.174657 30.9031827,36.174657 Z" id="Path-Copy-121"></path>
                            </g>
                            <g transform="translate(616.000000, 0.000000)">
                                <path d="M44.9191744,21.2706013 L54.2226726,26.9733455 L54.6706188,37.7261102 C54.6706188,40.371359 56.6002333,38.5506033 56.6002333,38.5506033 L64.8700095,31.5080578 L75.2072298,34.2563682 C77.7915349,34.8747381 76.4132389,32.1607815 76.4132389,32.1607815 L72.5540099,22.8508798 L77.8949071,14.5715945 C80.5136696,11.4110375 76.5855259,12.132469 76.5855259,12.132469 L66.627337,12.9226082 L60.5972918,5.60523162 C60.5972918,5.60523162 58.3231033,1.75759697 57.5650405,5.60523162 L55.2219372,15.3617338 L45.401578,19.1063068 C42.6794433,20.1025693 44.9191744,21.2706013 44.9191744,21.2706013 Z" id="Path-Copy-119" transform="translate(61.423869, 21.528331) rotate(15.000000) translate(-61.423869, -21.528331) "></path>
                                <path d="M5.17556239,36.364324 L4.72955145,38.9056929 L2.24127986,39.9664381 C1.6309491,40.2095256 2.24127986,40.4747119 2.24127986,40.4747119 L4.58870589,41.6680503 L4.91734553,44.1652214 C4.91734553,44.7839894 5.5276763,44.1652214 5.5276763,44.1652214 L7.33519434,42.5078069 L9.68262036,42.9276853 C10.6685393,43.2149704 10.1286313,42.4415104 10.1286313,42.4415104 L9.00186681,40.2316244 L10.1521056,38.2648259 C10.1521056,38.2648259 10.8563334,37.4250693 9.84694018,37.623959 L7.3586686,37.9775408 L5.55115056,36.1433355 C5.24598517,35.7676548 5.17556239,36.364324 5.17556239,36.364324 Z" id="Path-Copy-120" transform="translate(6.180548, 40.229703) rotate(31.000000) translate(-6.180548, -40.229703) "></path>
                                <path d="M30.9031827,36.174657 L29.947965,41.7507496 L24.6508487,44.098578 C23.3048602,44.6016841 24.6508487,45.1886413 24.6508487,45.1886413 L29.861127,47.7880228 L30.5558308,53.2802643 C30.5558308,54.6638061 31.8584003,53.2802643 31.8584003,53.2802643 L35.7661091,49.5908196 L40.9763874,50.5970318 C43.0604987,51.2259144 41.931605,49.4650431 41.931605,49.4650431 L39.5001418,44.8113117 L41.975024,40.6187609 C41.975024,40.6187609 43.4512695,38.7740385 41.3237392,39.1513681 L35.983204,39.9479527 L32.1189143,35.9650295 C31.0334396,34.7491897 30.9031827,36.174657 30.9031827,36.174657 Z" id="Path-Copy-121"></path>
                            </g>
                            <g transform="translate(120.500000, 27.000000) scale(-1, 1) translate(-120.500000, -27.000000) translate(79.000000, 0.000000)">
                                <path d="M44.9191744,21.2706013 L54.2226726,26.9733455 L54.6706188,37.7261102 C54.6706188,40.371359 56.6002333,38.5506033 56.6002333,38.5506033 L64.8700095,31.5080578 L75.2072298,34.2563682 C77.7915349,34.8747381 76.4132389,32.1607815 76.4132389,32.1607815 L72.5540099,22.8508798 L77.8949071,14.5715945 C80.5136696,11.4110375 76.5855259,12.132469 76.5855259,12.132469 L66.627337,12.9226082 L60.5972918,5.60523162 C60.5972918,5.60523162 58.3231033,1.75759697 57.5650405,5.60523162 L55.2219372,15.3617338 L45.401578,19.1063068 C42.6794433,20.1025693 44.9191744,21.2706013 44.9191744,21.2706013 Z" id="Path-Copy-119" transform="translate(61.423869, 21.528331) rotate(15.000000) translate(-61.423869, -21.528331) "></path>
                                <path d="M5.17556239,36.364324 L4.72955145,38.9056929 L2.24127986,39.9664381 C1.6309491,40.2095256 2.24127986,40.4747119 2.24127986,40.4747119 L4.58870589,41.6680503 L4.91734553,44.1652214 C4.91734553,44.7839894 5.5276763,44.1652214 5.5276763,44.1652214 L7.33519434,42.5078069 L9.68262036,42.9276853 C10.6685393,43.2149704 10.1286313,42.4415104 10.1286313,42.4415104 L9.00186681,40.2316244 L10.1521056,38.2648259 C10.1521056,38.2648259 10.8563334,37.4250693 9.84694018,37.623959 L7.3586686,37.9775408 L5.55115056,36.1433355 C5.24598517,35.7676548 5.17556239,36.364324 5.17556239,36.364324 Z" id="Path-Copy-120" transform="translate(6.180548, 40.229703) rotate(31.000000) translate(-6.180548, -40.229703) "></path>
                                <path d="M30.9031827,36.174657 L29.947965,41.7507496 L24.6508487,44.098578 C23.3048602,44.6016841 24.6508487,45.1886413 24.6508487,45.1886413 L29.861127,47.7880228 L30.5558308,53.2802643 C30.5558308,54.6638061 31.8584003,53.2802643 31.8584003,53.2802643 L35.7661091,49.5908196 L40.9763874,50.5970318 C43.0604987,51.2259144 41.931605,49.4650431 41.931605,49.4650431 L39.5001418,44.8113117 L41.975024,40.6187609 C41.975024,40.6187609 43.4512695,38.7740385 41.3237392,39.1513681 L35.983204,39.9479527 L32.1189143,35.9650295 C31.0334396,34.7491897 30.9031827,36.174657 30.9031827,36.174657 Z" id="Path-Copy-121"></path>
                            </g>
                            <g id="srat" transform="translate(41.500000, 27.000000) scale(-1, 1) translate(-41.500000, -27.000000) ">
                                <path d="M44.9191744,21.2706013 L54.2226726,26.9733455 L54.6706188,37.7261102 C54.6706188,40.371359 56.6002333,38.5506033 56.6002333,38.5506033 L64.8700095,31.5080578 L75.2072298,34.2563682 C77.7915349,34.8747381 76.4132389,32.1607815 76.4132389,32.1607815 L72.5540099,22.8508798 L77.8949071,14.5715945 C80.5136696,11.4110375 76.5855259,12.132469 76.5855259,12.132469 L66.627337,12.9226082 L60.5972918,5.60523162 C60.5972918,5.60523162 58.3231033,1.75759697 57.5650405,5.60523162 L55.2219372,15.3617338 L45.401578,19.1063068 C42.6794433,20.1025693 44.9191744,21.2706013 44.9191744,21.2706013 Z" id="Path-Copy-119" transform="translate(61.423869, 21.528331) rotate(15.000000) translate(-61.423869, -21.528331) "></path>
                                <path d="M5.17556239,36.364324 L4.72955145,38.9056929 L2.24127986,39.9664381 C1.6309491,40.2095256 2.24127986,40.4747119 2.24127986,40.4747119 L4.58870589,41.6680503 L4.91734553,44.1652214 C4.91734553,44.7839894 5.5276763,44.1652214 5.5276763,44.1652214 L7.33519434,42.5078069 L9.68262036,42.9276853 C10.6685393,43.2149704 10.1286313,42.4415104 10.1286313,42.4415104 L9.00186681,40.2316244 L10.1521056,38.2648259 C10.1521056,38.2648259 10.8563334,37.4250693 9.84694018,37.623959 L7.3586686,37.9775408 L5.55115056,36.1433355 C5.24598517,35.7676548 5.17556239,36.364324 5.17556239,36.364324 Z" id="Path-Copy-120" transform="translate(6.180548, 40.229703) rotate(31.000000) translate(-6.180548, -40.229703) "></path>
                                <path d="M30.9031827,36.174657 L29.947965,41.7507496 L24.6508487,44.098578 C23.3048602,44.6016841 24.6508487,45.1886413 24.6508487,45.1886413 L29.861127,47.7880228 L30.5558308,53.2802643 C30.5558308,54.6638061 31.8584003,53.2802643 31.8584003,53.2802643 L35.7661091,49.5908196 L40.9763874,50.5970318 C43.0604987,51.2259144 41.931605,49.4650431 41.931605,49.4650431 L39.5001418,44.8113117 L41.975024,40.6187609 C41.975024,40.6187609 43.4512695,38.7740385 41.3237392,39.1513681 L35.983204,39.9479527 L32.1189143,35.9650295 C31.0334396,34.7491897 30.9031827,36.174657 30.9031827,36.174657 Z" id="Path-Copy-121"></path>
                            </g>
                        </g>
                        <g id="cat" transform="translate(482.000000, 0.000000)">
                            <ellipse id="Oval-Copy-17" fill-opacity="0.3" fill="#202230" style="mix-blend-mode: darken;" filter="url(#filter-1)" cx="32" cy="99.1571429" rx="25" ry="4.8"></ellipse>
                            <g id="Group-74-Copy-2">
                                <path d="M17.79669,76.6569717 C13.17249,75.8184053 6.15879,74.0555204 5.31729,70.9919097 C5.08599,70.1488301 5.16879,68.8580336 6.86889,67.5031487 C8.28369,66.3766354 8.96859,65.2230425 8.90289,64.0748655 C8.77599,61.7577504 5.80419,59.828777 5.77359,59.8080159 C5.23269,59.4695204 5.06889,58.753715 5.40729,58.2112195 C5.74749,57.6678212 6.46119,57.5035381 7.00119,57.8438389 C7.16499,57.9467416 11.01699,60.4055735 11.21409,63.9457858 C11.32209,65.8901044 10.34469,67.6990248 8.30889,69.3210956 C7.77699,69.7435381 7.48539,70.1479274 7.54749,70.3753965 C7.90929,71.6950779 13.48749,73.8063876 21.20949,74.8471487 C21.83949,74.9301929 22.28769,75.5187239 22.20129,76.151485 C22.11669,76.7878566 21.53439,77.2337681 20.90259,77.1462106 C20.17089,77.0496265 19.07469,76.888954 17.79669,76.6569717" id="Fill-1" fill="#1D1D1C"></path>
                                <polygon id="Fill-3" fill="#1A1A1E" points="25.84521 77.3815327 26.30061 88.0716743 31.00401 88.069869 31.06341 82.8001699 31.18581 82.8001699 31.24611 88.069869 35.94951 88.0716743 36.40401 77.3815327 31.12191 75.8668779"></polygon>
                                <path d="M31.24656,88.0696885 L31.40406,96.905777 C31.40406,96.905777 32.12406,98.9250159 33.04746,96.905777 L35.48556,96.905777 L35.94996,88.0714938 L31.24656,88.0696885 Z" id="Fill-5" fill="#1A1A1E"></path>
                                <path d="M31.00356,88.0696885 L30.84696,96.905777 C30.77406,97.7651044 29.58246,98.7300425 29.12796,96.905777 L26.76546,96.905777 L26.30016,88.0714938 L31.00356,88.0696885 Z" id="Fill-7" fill="#1A1A1E"></path>
                                <polygon id="Fill-9" fill="#1A1A1E" points="31.00446 88.0415257 31.00446 88.090269 31.00356 88.090269 30.99096 88.7744814 26.33616 88.7744814 26.30016 88.090269 26.30016 88.090269 26.29836 88.0415257"></polygon>
                                <polygon id="Fill-11" fill="#1A1A1E" points="31.24656 88.0899982 31.24656 88.0899982 31.24656 88.0412549 35.95086 88.0412549 35.94906 88.0809717 35.94996 88.0836796 35.91396 88.7742106 31.25916 88.7742106"></polygon>
                                <g id="Group-15" transform="translate(25.200000, 95.031504)">
                                    <mask id="mask-3" fill="white">
                                        <use xlink:href="#path-2"></use>
                                    </mask>
                                    <g id="Clip-14"></g>
                                    <path d="M1.56591,1.87436283 C0.80001,2.70390265 0.24381,4.45776106 0.89991,5.83882301 C1.39581,6.81188496 2.12391,6.07080531 2.67741,5.66009735 C3.29031,5.14919469 3.99051,4.80347788 4.54401,4.13822124 C4.90131,3.69862832 5.32161,3.17147788 5.56371,2.51885841 C5.63841,2.31576106 5.67351,2.06933628 5.64741,1.87436283 C5.64741,2.38526549 4.37031,3.39443363 3.94461,1.87436283 C2.59731,-0.802911504 1.56591,1.87436283 1.56591,1.87436283" id="Fill-13" fill="#1A1A1E" mask="url(#mask-3)"></path>
                                </g>
                                <g id="Group-18" transform="translate(30.600000, 95.031504)">
                                    <mask id="mask-5" fill="white">
                                        <use xlink:href="#path-4"></use>
                                    </mask>
                                    <g id="Clip-17"></g>
                                    <path d="M4.88556,1.87436283 C5.65146,2.70390265 6.20676,4.45776106 5.55156,5.83882301 C5.05566,6.81188496 4.32756,6.07080531 3.77316,5.66009735 C3.16116,5.14919469 2.46186,4.80347788 1.90746,4.13822124 C1.54926,3.69862832 1.12986,3.17147788 0.88776,2.51885841 C0.81306,2.31576106 0.77706,2.06933628 0.80406,1.87436283 C0.80406,1.87436283 1.59246,3.55510619 2.42406,1.87436283 C3.70386,-0.854362832 4.88556,1.87436283 4.88556,1.87436283" id="Fill-16" fill="#1A1A1E" mask="url(#mask-5)"></path>
                                </g>
                                <path d="M11.00313,50.8501593 L15.24483,55.2957345 L18.51363,54.4986903 L19.87893,58.7186018 C19.87893,58.7186018 15.21603,60.6566018 12.48633,59.9714867 C9.75753,59.2890796 7.56783,52.2465664 7.56783,52.2465664 L11.00313,50.8501593 Z" id="Fill-19" fill="#EFF0ED"></path>
                                <path d="M44.15067,70.4671062 C44.15067,70.4671062 43.64577,62.8234248 40.23477,59.8582035 L40.34817,53.9277611 C40.34817,53.9277611 46.41417,52.9149823 47.58957,70.0735487" id="Fill-21" fill="#EFF0ED"></path>
                                <path d="M52.82154,20.2639699 C51.92964,17.7464655 50.22414,14.3001292 47.36664,11.3114389 C47.36664,11.3114389 54.50094,5.25552743 55.32624,5.60936814 C56.84724,6.26559823 53.03934,20.8543062 53.03934,20.8543062 L53.03664,20.8543062 C52.96194,20.6521115 52.88994,20.4535274 52.82154,20.2639699" id="Fill-23" fill="#E98A73"></path>
                                <path d="M15.96942,12.2925345 C13.81212,14.396623 11.89152,16.8518442 10.32462,19.5110655 C10.22742,19.1211186 7.01352,6.13642832 8.40312,4.89979115 C9.81612,3.64058761 15.96942,12.2925345 15.96942,12.2925345" id="Fill-25" fill="#E98A73"></path>
                                <g id="Group-29" transform="translate(0.900000, 0.252743)">
                                    <mask id="mask-7" fill="white">
                                        <use xlink:href="#path-6"></use>
                                    </mask>
                                    <g id="Clip-28"></g>
                                    <path d="M51.92154,20.0112265 C51.02964,17.4937221 49.32414,14.0473858 46.46664,11.0586956 C46.46664,11.0586956 53.60094,5.00278407 54.42624,5.35662478 C55.94724,6.01285487 52.13934,20.6015628 52.13934,20.6015628 L52.13664,20.6015628 C52.06194,20.3993681 51.98994,20.2007841 51.92154,20.0112265 M9.42444,19.2584124 C9.32724,18.8684655 6.11334,5.88377522 7.50294,4.64713805 C8.91594,3.38793451 15.06924,12.0398814 15.06924,12.0398814 C12.91194,14.1439699 10.99134,16.5991912 9.42444,19.2584124 M53.81244,24.4577044 C54.72144,20.2964655 58.77954,1.8642531 55.84014,0.989580531 C52.90074,0.116713274 43.15464,8.22887257 43.15464,8.22887257 L43.15194,8.23158053 C39.99924,6.06791681 35.91954,4.58304956 30.69234,4.64984602 C26.67114,4.69768673 22.62474,6.24754513 18.97074,8.79664248 C18.74844,8.58000531 8.88444,-1.0838177 6.08904,0.923686726 C3.25674,2.95466018 7.34004,23.4286779 7.34004,23.4286779 C3.58254,32.4714743 0.45774,35.5612619 0.36414,37.8576159 C0.34974,38.1527841 0.38664,38.4344124 0.48114,38.7151381 C0.89064,39.9436513 3.79404,43.3096513 8.68284,46.2559168 C9.42804,46.7090496 10.22004,47.1495451 11.05614,47.5692796 C15.69204,49.9080584 21.68424,51.6736513 28.73304,51.3270319 C36.77274,50.931669 44.23104,48.4033327 49.79844,45.4110319 L49.79844,45.4074212 C52.23744,44.097669 54.31914,42.698554 55.92294,41.349085 C58.24404,39.4029611 59.58144,37.5651558 59.5958661,36.2590142 C59.60664,35.508908 56.26224,29.6488726 53.81244,24.4577044" id="Fill-27" fill="#1D1D1C" mask="url(#mask-7)"></path>
                                </g>
                                <path d="M20.23866,32.450623 C20.23866,31.5651186 19.52316,30.8466053 18.64026,30.8466053 C17.75646,30.8466053 17.04006,31.5651186 17.04006,32.450623 C17.04006,33.3352248 17.75646,34.0528354 18.64026,34.0528354 C19.52316,34.0528354 20.23866,33.3352248 20.23866,32.450623" id="Fill-30" fill="#FEFEFE"></path>
                                <path d="M45.92034,32.450623 C45.92034,31.5651186 45.20304,30.8466053 44.32104,30.8466053 C43.43904,30.8466053 42.72264,31.5651186 42.72264,32.450623 C42.72264,33.3352248 43.43904,34.0528354 44.32104,34.0528354 C45.20304,34.0528354 45.92034,33.3352248 45.92034,32.450623" id="Fill-32" fill="#FEFEFE"></path>
                                <path d="M39.74382,40.2272655 C39.74382,40.2272655 40.09932,40.1676903 40.72032,40.0629823 C41.34222,39.9510531 42.22872,39.7948938 43.29252,39.6053363 C43.82442,39.5024336 44.40042,39.4031416 45.00792,39.2776726 C45.61542,39.1558142 46.25532,39.0294425 46.91862,38.8958496 C47.58012,38.7658673 48.26232,38.6169292 48.95442,38.4634779 C49.64832,38.3199558 50.34492,38.1385221 51.04782,37.9823628 C51.74982,37.8180796 52.44552,37.6402566 53.13312,37.4723628 C53.81712,37.2855133 54.48942,37.1022743 55.14012,36.9244513 C55.78632,36.7330885 56.41182,36.5480442 57.00312,36.3720265 C57.59172,36.1815664 58.14612,36.0001327 58.65822,35.8331416 C59.16492,35.6499027 59.62842,35.4802035 60.03972,35.3303628 C60.45552,35.1895487 60.80022,35.0279735 61.09362,34.9124336 C61.67592,34.6750354 62.00892,34.5378319 62.00892,34.5378319 L62.01702,34.5333186 C62.10522,34.498115 62.20242,34.5405398 62.23932,34.6271947 C62.27352,34.7138496 62.23572,34.8077257 62.15382,34.8465398 C62.15382,34.8465398 61.82712,35.0045044 61.25382,35.2780088 C60.96402,35.4079912 60.62022,35.5903274 60.20892,35.7500973 C59.79942,35.9188938 59.33592,36.1084513 58.83102,36.3142566 C58.31892,36.4974956 57.76362,36.6960796 57.17592,36.9063982 C56.58552,37.1049823 55.95822,37.304469 55.30842,37.5066637 C54.65412,37.6899027 53.97912,37.8821681 53.29242,38.0771416 C52.60122,38.2522566 51.90012,38.4400088 51.19632,38.6088053 C50.48982,38.7721858 49.78512,38.939177 49.08672,39.0799912 C48.38742,39.2271239 47.70072,39.3688407 47.03472,39.4943097 C46.36782,39.6279027 45.72342,39.7371239 45.10782,39.8391239 C44.49492,39.9456372 43.91352,40.0295841 43.37802,40.1153363 C41.23152,40.4348761 39.78702,40.5657611 39.78702,40.5657611 C39.69342,40.5747876 39.61062,40.5052832 39.60162,40.4114071 C39.59352,40.3220442 39.65652,40.241708 39.74382,40.2272655" id="Fill-34" fill="#FEFEFE"></path>
                                <path d="M38.78586,39.1474195 C38.78586,39.1474195 40.07286,38.5652071 42.00336,37.6932425 C42.96726,37.2518442 44.09136,36.7391363 45.29556,36.1894195 C46.49886,35.6369947 47.77596,35.0349239 49.04676,34.4229239 C50.32026,33.8172425 51.59016,33.1998265 52.76196,32.5869239 C53.05446,32.4370832 53.34336,32.2881451 53.62776,32.1437204 C53.90766,31.9938796 54.18216,31.8476496 54.44856,31.7050301 C54.71496,31.561508 54.97416,31.4224991 55.22526,31.2889062 C55.47186,31.1462867 55.71036,31.0090832 55.93806,30.8772956 C56.16756,30.7464106 56.38716,30.6218442 56.59596,30.5017912 C56.79936,30.3754195 56.99376,30.256269 57.17556,30.1443398 C57.53646,29.9159681 57.86316,29.7300212 58.10616,29.5458796 C58.61016,29.1965522 58.89726,28.9961628 58.89726,28.9961628 L58.90806,28.9871363 C58.98456,28.9338796 59.09166,28.9537381 59.14566,29.0295611 C59.19606,29.1053841 59.17986,29.2064814 59.11056,29.2615434 C59.11056,29.2615434 58.82976,29.4835965 58.33836,29.8726407 C58.09716,30.0721274 57.77856,30.2752248 57.42126,30.5243575 C57.24306,30.6462159 57.05046,30.7771009 56.85066,30.9143044 C56.64366,31.0424814 56.42586,31.176977 56.19906,31.3159858 C55.97226,31.4558973 55.73556,31.6039327 55.48986,31.7537735 C55.24146,31.8954903 54.98406,32.0435257 54.71946,32.1951717 C54.19116,32.5020743 53.63136,32.8198088 53.04096,33.1249062 C51.86736,33.7513487 50.59836,34.3841097 49.32486,35.0051363 C48.68856,35.3183575 48.04146,35.6035965 47.41056,35.9005699 C46.77516,36.1885168 46.14966,36.4701451 45.54486,36.7445522 C44.33346,37.2861451 43.18776,37.7582336 42.20766,38.1671363 C41.22846,38.5769416 40.40226,38.8919681 39.82536,39.1203398 C39.24576,39.3387823 38.91546,39.465154 38.91546,39.465154 C38.82636,39.4976496 38.72826,39.4525168 38.69406,39.3649593 C38.66256,39.2792071 38.70486,39.185331 38.78586,39.1474195" id="Fill-36" fill="#FEFEFE"></path>
                                <path d="M22.86837,39.2162018 C22.86837,39.2162018 21.41757,39.2044673 19.25217,39.0600425 C18.71127,39.0176177 18.12447,38.9824142 17.50527,38.9264496 C16.88427,38.8759009 16.23087,38.8199363 15.55677,38.7414053 C14.88177,38.6709982 14.18607,38.5843434 13.47867,38.4958832 C12.77127,38.4128389 12.05487,38.302715 11.33757,38.1998124 C10.62207,38.0878832 9.90837,37.9579009 9.20547,37.8396531 C8.50437,37.7015469 7.81497,37.567954 7.14897,37.4352637 C6.48387,37.288131 5.84397,37.1400956 5.23917,36.9911575 C4.63617,36.8286796 4.06647,36.6770336 3.53997,36.5353168 C3.02067,36.3719363 2.54367,36.2220956 2.12247,36.0876 C1.69947,35.962131 1.34217,35.8086796 1.04247,35.7021664 C0.44847,35.4746973 0.10917,35.3456177 0.10917,35.3456177 C0.02187,35.3113168 -0.02313,35.2129274 0.01197,35.1253699 C0.04347,35.0405204 0.13527,34.9953876 0.21987,35.0224673 L0.23067,35.0260779 C0.23067,35.0260779 0.57267,35.1352991 1.17387,35.323954 C1.47357,35.4151221 1.82997,35.5496177 2.25657,35.6543257 C2.67777,35.7707681 3.15477,35.9007504 3.67407,36.0415646 C4.19877,36.1679363 4.76757,36.3015292 5.36787,36.4450513 C5.97267,36.571423 6.60987,36.7041133 7.26957,36.8431221 C7.93287,36.9658832 8.61777,37.0940602 9.31347,37.2249451 C10.01277,37.335069 10.72197,37.4587327 11.43387,37.5625381 C12.14757,37.6600248 12.85677,37.7836885 13.56147,37.871246 C14.26257,37.9669274 14.95467,38.0599009 15.62517,38.1348212 C16.29567,38.2133522 16.94457,38.2891752 17.56017,38.360485 C18.17397,38.4345027 18.75807,38.4877593 19.29537,38.5464319 C20.37177,38.6466265 21.26817,38.7323788 21.89637,38.7901487 C22.52457,38.8452106 22.88277,38.8749982 22.88277,38.8749982 C22.97817,38.8831221 23.04747,38.9652637 23.03847,39.0600425 C23.03217,39.1485027 22.95567,39.2162018 22.86837,39.2162018" id="Fill-38" fill="#FEFEFE"></path>
                                <path d="M23.6484,38.0472637 C23.6484,38.0472637 23.3082,37.9488743 22.7124,37.7773699 C22.1193,37.5986442 21.2688,37.3513168 20.2608,37.0218478 C19.2501,36.6959894 18.0702,36.320485 16.8174,35.8781841 C16.1937,35.6552283 15.5466,35.4250513 14.8914,35.1894584 C14.2371,34.9466442 13.5684,34.7146619 12.9096,34.4546973 C11.5893,33.9383788 10.2744,33.4130336 9.0531,32.8840779 C8.4393,32.6277239 7.8552,32.3560248 7.3044,32.0942549 C7.0281,31.9660779 6.7599,31.8379009 6.5007,31.7160425 C6.2442,31.5869628 5.9958,31.4605912 5.7582,31.3396354 C5.5215,31.220485 5.2929,31.1049451 5.076,30.9939186 C4.8645,30.8729628 4.6638,30.7592283 4.4757,30.6509097 C4.0995,30.4315646 3.7656,30.2555469 3.5091,30.0741133 C2.9871,29.7274938 2.6892,29.5298124 2.6892,29.5298124 C2.6118,29.4792637 2.5902,29.3718478 2.6424,29.2942195 C2.691,29.2183965 2.7909,29.1958301 2.8683,29.2400602 L2.8809,29.2472814 C2.8809,29.2472814 3.1833,29.4232991 3.7134,29.7311044 C3.9708,29.894485 4.311,30.0542549 4.6899,30.2519363 C4.8807,30.3485204 5.0832,30.4523257 5.2965,30.5615469 C5.5143,30.6626442 5.7438,30.7691575 5.9823,30.8819894 C6.2208,30.9939186 6.4692,31.1103611 6.7266,31.2313168 C6.9885,31.3450513 7.2567,31.4623965 7.5348,31.5842549 C7.812,31.704308 8.0973,31.8279717 8.3889,31.9534407 C8.6823,32.0762018 8.9829,32.1989628 9.2871,32.3253345 C10.5048,32.8398478 11.8206,33.3507504 13.1391,33.8508212 C14.4558,34.3581133 15.7779,34.8527681 17.0226,35.3049982 C18.2664,35.7536177 19.4292,36.1733522 20.4255,36.5326088 C22.4199,37.2457062 23.7501,37.7214053 23.7501,37.7214053 C23.8392,37.7511929 23.8869,37.8486796 23.8554,37.9389451 C23.8266,38.0237947 23.7339,38.0698301 23.6484,38.0472637" id="Fill-40" fill="#FEFEFE"></path>
                                <path d="M26.38314,39.6084053 C26.38314,39.6120159 26.41014,39.6463168 26.45064,39.6923522 C26.49744,39.7492195 26.57484,39.8286531 26.67384,39.9306531 C26.87454,40.1328478 27.18414,40.4027416 27.59184,40.6654142 C28.00224,40.9244761 28.51164,41.1681929 29.09034,41.3415027 C29.38014,41.4299628 29.68974,41.4823168 30.00204,41.5464053 C30.32244,41.5843168 30.64554,41.6213257 30.97764,41.6258389 L31.22334,41.6393788 L31.46364,41.6303522 C31.63554,41.6213257 31.83624,41.6258389 31.96854,41.5987593 C32.25924,41.5716796 32.56524,41.5220336 32.85234,41.4480159 C33.13494,41.3649717 33.40584,41.2783168 33.64884,41.1618743 C33.88914,41.0427239 34.11414,40.9199628 34.30404,40.7800513 C34.49574,40.6437504 34.66584,40.5047416 34.80354,40.3675381 C34.94394,40.2312372 35.05644,40.1039628 35.14464,39.9947416 C35.23194,39.8846177 35.29764,39.7961575 35.33814,39.7365823 C35.37324,39.682423 35.39304,39.6553434 35.39304,39.6553434 L35.42994,39.5975735 C35.53704,39.4350956 35.75664,39.3899628 35.91864,39.4991841 C36.05094,39.5867416 36.10404,39.7510248 36.05814,39.8972549 C36.05814,39.8972549 36.04194,39.9514142 36.01044,40.0525115 C35.97714,40.1436796 35.93214,40.2763699 35.85294,40.4343345 C35.77374,40.5895912 35.67474,40.780954 35.52894,40.9786354 C35.38854,41.1790248 35.21214,41.392954 34.98894,41.6005646 C34.77114,41.8117858 34.51014,42.0148832 34.21044,42.1963168 C33.91164,42.3750425 33.58044,42.5375204 33.22224,42.6584761 C32.86584,42.771308 32.49054,42.8696973 32.07924,42.9184407 C31.86324,42.9554496 31.70664,42.9509363 31.52214,42.9644761 L31.22334,42.9798212 L30.93444,42.9716973 C30.54744,42.9707947 30.16134,42.9094142 29.78064,42.8561575 C29.40084,42.7803345 29.03274,42.6828478 28.68444,42.5528655 C27.98694,42.2974142 27.38574,41.9219097 26.94024,41.5292549 C26.48844,41.1402106 26.18964,40.7394319 26.00964,40.4433611 C25.91784,40.2953257 25.85754,40.1698566 25.81704,40.0832018 C25.77114,39.9839097 25.75404,39.9396796 25.75584,39.941485 L25.75494,39.9378743 C25.68924,39.7501221 25.78824,39.5461221 25.97454,39.4802283 C26.12754,39.4278743 26.29134,39.4856442 26.38314,39.6084053" id="Fill-42" fill="#FEFEFE"></path>
                                <path d="M31.25187,35.9528336 C31.25187,35.9528336 31.36167,36.3057717 31.43817,36.8338248 C31.51737,37.3618779 31.57407,38.0659487 31.56867,38.7718248 C31.56777,39.4749929 31.50927,40.180869 31.43097,40.7089221 C31.35627,41.2369752 31.25097,41.5890106 31.25097,41.5890106 C31.19427,41.7857894 30.98817,41.8977186 30.79287,41.839046 C30.66867,41.8011345 30.57777,41.7045504 30.54267,41.5890106 C30.54267,41.5890106 30.43917,41.2369752 30.36447,40.7089221 C30.28617,40.180869 30.22677,39.4749929 30.22587,38.7718248 C30.22047,38.0659487 30.27717,37.3618779 30.35727,36.8338248 C30.43377,36.3057717 30.54267,35.9528336 30.54267,35.9528336 C30.60297,35.7560549 30.81177,35.6468336 31.00797,35.7082142 C31.12767,35.7461257 31.21677,35.8418071 31.25187,35.9528336" id="Fill-44" fill="#FEFEFE"></path>
                                <path d="M26.85816,34.3361788 C27.02826,32.4424088 35.11836,32.4351876 34.93566,34.4589398 C34.81776,35.7732053 31.35906,37.1894708 30.65076,37.1253823 C29.94426,37.0621965 26.76636,35.3417363 26.85816,34.3361788" id="Fill-46" fill="#E98A73"></path>
                                <path d="M32.96349,33.5217133 C32.59269,33.0938549 31.51989,33.3691646 31.03659,33.4070761 C30.62439,33.4377664 30.20859,33.4431823 29.79729,33.4847044 C29.57589,33.5072708 29.29239,33.6056602 29.07819,33.5948283 C29.05749,33.593023 29.05119,33.6192 29.06289,33.6318372 C29.42919,34.0705274 30.14919,33.9865805 30.65679,33.9856779 C31.20939,33.9856779 32.56479,34.1878726 32.96349,33.7112708 C33.01209,33.6516956 33.01479,33.5803858 32.96349,33.5217133" id="Fill-48" fill="#FEFEFE"></path>
                                <path d="M8.07462,51.1066938 C8.72982,49.534269 9.60282,50.8006938 9.60282,50.8006938 C9.60282,50.8006938 10.43352,49.9774726 10.98342,49.9404637 C11.03832,49.7472956 11.08872,49.5478088 11.12922,49.3411009 C11.46762,47.5917558 11.08872,46.0473133 10.28412,45.8893487 C9.85212,45.8054018 9.38592,46.1357735 8.99352,46.7297204 C8.12592,45.8929593 7.05312,45.5427292 6.15852,45.9227469 C4.78962,46.5040566 4.35492,48.5756496 5.18832,50.5497558 C5.44482,51.1581451 5.79402,51.6852956 6.19272,52.1068354 C6.43392,52.0743398 6.61122,52.0671186 6.61122,52.0671186 C6.61122,52.0671186 6.80562,50.5876673 8.07462,51.1066938" id="Fill-50" fill="#FBE0B9"></path>
                                <path d="M48.20985,84.1425982 C45.94095,85.9298549 43.83495,84.7925097 42.37605,85.6048991 C40.91715,86.4181912 37.67535,89.3436956 34.27245,88.6937841 C30.86865,88.0420673 26.65485,87.2305805 24.54795,87.3939611 C22.44195,87.5555363 17.41725,86.5797664 15.95925,83.9792177 C15.04755,82.3535363 12.67965,81.3633239 11.03265,80.8497133 L8.34165,83.3293062 C8.34165,83.3293062 19.20015,90.156085 31.19265,90.9684743 C43.18515,91.7817664 53.39565,83.6542619 53.39565,83.6542619 L52.15635,82.4835186 C50.80545,82.7967398 49.26285,83.3121558 48.20985,84.1425982" id="Fill-52" fill="#2D3033"></path>
                                <path d="M15.95934,83.9795788 C17.41734,86.5801274 22.44204,87.5558973 24.54804,87.3934195 C26.65494,87.2309416 30.86874,88.0424283 34.27254,88.6941451 C37.67544,89.343154 40.91724,86.4176496 42.37614,85.6052602 C43.83504,84.7919681 45.94104,85.9302159 48.20994,84.1429593 C49.26294,83.3125168 50.80554,82.7961982 52.15644,82.4838796 L32.16564,65.7748354 L18.39024,76.339508 L11.03274,80.8491717 C12.67974,81.363685 15.04764,82.3529947 15.95934,83.9795788" id="Fill-54" fill="#EFF0ED"></path>
                                <path d="M27.49095,51.8665487 L16.43175,50.976531 L20.46735,66.5202478 L13.48965,77.2329558 C13.48965,77.2329558 20.65905,84.1427788 27.14175,83.1670088 L30.38265,68.0511504 L33.94845,83.1670088 C33.94845,83.1670088 43.53345,81.6595752 47.66355,76.0901947 L39.97395,66.2368142 L43.24905,49.9556283 L35.09415,51.7681593 L30.94065,51.0018053 L27.49095,51.8665487 Z" id="Fill-56" fill="#1A1A1E"></path>
                                <path d="M39.87036,47.3197858 C39.40866,46.2149363 37.63386,46.6319628 36.49266,46.9948301 C34.58376,47.5996088 32.76216,48.4941398 31.10616,49.6278743 L30.71106,49.8661752 C28.79676,48.4724761 26.47926,47.6447416 24.11046,47.5201752 C23.35356,47.4777504 22.43016,47.6068301 22.12326,48.305485 C21.84066,48.9472726 22.26366,49.6648832 22.70196,50.2073788 C23.35446,51.0053257 24.08706,51.7292549 24.88896,52.3692372 C23.80266,52.7943876 22.98546,53.8432726 22.83516,55.0013788 C22.80456,55.236069 22.79916,55.4852018 22.88826,55.7072549 C23.13666,56.3246708 23.95566,56.4555558 24.61806,56.3860513 C27.20466,56.1107416 29.33226,54.2927947 31.27536,52.557892 C32.77386,54.367715 34.65306,56.3454319 36.98946,56.1603876 C37.29906,56.1387239 37.61856,56.0647062 37.85796,55.874246 C38.25486,55.5556088 38.35026,54.9688832 38.22066,54.475131 C38.09376,53.9831841 36.94176,52.4856796 36.63936,52.0776796 C38.03796,51.4015912 38.86416,50.5296265 39.24936,50.1866177 C40.08276,49.4527593 40.62996,49.1557858 39.87036,47.3197858" id="Fill-58" fill="#FEFEFE"></path>
                                <path d="M47.32479,70.9412708 C46.39869,72.0533416 45.71829,70.9412708 45.71829,70.9412708 C45.71829,70.9412708 44.80569,72.0849345 43.97499,70.9412708 C43.83639,71.1127752 43.60059,71.2319257 43.34949,71.2933062 C43.28829,71.3925982 43.22889,71.4945982 43.17219,71.6020142 C42.48549,72.9009345 42.41349,74.2115894 43.01289,74.5302265 C43.33239,74.6999257 43.78059,74.5509876 44.23239,74.1781912 C44.71659,75.0474478 45.47889,75.5809168 46.27629,75.4960673 C47.49579,75.366085 48.33549,73.8369876 48.15009,72.0795186 C48.12309,71.8285805 48.07629,71.5911823 48.01419,71.361908 C47.74329,71.3077487 47.47869,71.1642265 47.32479,70.9412708" id="Fill-60" fill="#FBE0B9"></path>
                                <path d="M7.59213,53.5581239 L8.17353,55.6270088 C8.17353,55.6270088 9.39033,54.6187434 10.34253,54.4598761 C11.29473,54.3001062 12.19383,53.7693451 12.40533,53.346 C12.61683,52.9208496 13.93893,52.6563717 13.93893,52.6563717 L11.77083,51.2229558 C11.77083,51.2229558 8.96733,51.9134867 7.59213,53.5581239" id="Fill-62" fill="#1A1A1E"></path>
                                <path d="M43.98282,69.0487646 C44.03592,68.7824814 43.29522,67.6162513 43.29522,67.6162513 C43.29522,67.6162513 43.77132,67.1920035 44.40582,67.2443575 C45.04122,67.2985168 45.88722,67.2985168 46.20402,67.0845876 C46.52172,66.8733664 46.89162,66.9257204 47.42082,67.0322336 C47.95002,67.1387469 47.63322,67.1920035 48.21462,67.3517735 L47.36862,68.9422513 L43.98282,69.0487646 Z" id="Fill-64" fill="#1A1A1E"></path>
                                <path d="M6.91011,54.162 C3.99951,52.2844779 7.02351,50.9413274 7.02351,50.9413274 C7.02351,50.9413274 7.21791,49.4627788 8.48691,49.9818053 C9.14121,48.4084779 10.01601,49.6749027 10.01601,49.6749027 C10.01601,49.6749027 12.81861,48.5438761 12.23901,51.533469 C12.23901,51.533469 10.62621,53.1149204 9.96291,53.4470973 C9.26271,53.7991327 6.91011,54.162 6.91011,54.162" id="Fill-66" fill="#1A1A1E"></path>
                                <path d="M43.17858,69.0575204 C41.22198,70.8610248 43.39278,71.9135204 43.97508,71.1959097 C44.80578,72.3404761 45.71838,71.1959097 45.71838,71.1959097 C45.71838,71.1959097 46.39878,72.3088832 47.32488,71.1959097 C47.89368,72.0245469 50.11488,70.891715 48.35178,68.8896265 C48.07908,68.2288832 45.56538,68.2722106 45.56538,68.2722106 C45.56538,68.2722106 43.27938,68.4355912 43.17858,69.0575204" id="Fill-68" fill="#1A1A1E"></path>
                                <path d="M7.74243,54.0403221 C7.74243,54.0403221 10.18053,53.7938973 12.23883,51.5336496 C12.23883,51.5336496 12.51513,52.0021274 10.38393,53.2369593 C8.25183,54.4717912 7.74243,54.0403221 7.74243,54.0403221" id="Fill-70" fill="#FEFEFE"></path>
                                <path d="M43.82856,68.6150389 C43.82856,68.6150389 45.87426,67.6167027 47.65716,68.510331 C47.65716,68.510331 46.81836,68.2124549 45.73476,68.3180655 C44.65026,68.4218708 44.09136,68.5978885 43.82856,68.6150389" id="Fill-72" fill="#FEFEFE"></path>
                            </g>
                        </g>
                        <g id="cat-copy-2" transform="translate(160.000000, 0.000000)">
                            <ellipse id="Oval-Copy-17" fill-opacity="0.3" fill="#202230" style="mix-blend-mode: darken;" filter="url(#filter-8)" cx="32" cy="99.1571429" rx="25" ry="4.8"></ellipse>
                            <g id="Group-74-Copy-2">
                                <path d="M17.79669,76.6569717 C13.17249,75.8184053 6.15879,74.0555204 5.31729,70.9919097 C5.08599,70.1488301 5.16879,68.8580336 6.86889,67.5031487 C8.28369,66.3766354 8.96859,65.2230425 8.90289,64.0748655 C8.77599,61.7577504 5.80419,59.828777 5.77359,59.8080159 C5.23269,59.4695204 5.06889,58.753715 5.40729,58.2112195 C5.74749,57.6678212 6.46119,57.5035381 7.00119,57.8438389 C7.16499,57.9467416 11.01699,60.4055735 11.21409,63.9457858 C11.32209,65.8901044 10.34469,67.6990248 8.30889,69.3210956 C7.77699,69.7435381 7.48539,70.1479274 7.54749,70.3753965 C7.90929,71.6950779 13.48749,73.8063876 21.20949,74.8471487 C21.83949,74.9301929 22.28769,75.5187239 22.20129,76.151485 C22.11669,76.7878566 21.53439,77.2337681 20.90259,77.1462106 C20.17089,77.0496265 19.07469,76.888954 17.79669,76.6569717" id="Fill-1" fill="#1D1D1C"></path>
                                <polygon id="Fill-3" fill="#1A1A1E" points="25.84521 77.3815327 26.30061 88.0716743 31.00401 88.069869 31.06341 82.8001699 31.18581 82.8001699 31.24611 88.069869 35.94951 88.0716743 36.40401 77.3815327 31.12191 75.8668779"></polygon>
                                <path d="M31.24656,88.0696885 L31.40406,96.905777 C31.40406,96.905777 32.12406,98.9250159 33.04746,96.905777 L35.48556,96.905777 L35.94996,88.0714938 L31.24656,88.0696885 Z" id="Fill-5" fill="#1A1A1E"></path>
                                <path d="M31.00356,88.0696885 L30.84696,96.905777 C30.77406,97.7651044 29.58246,98.7300425 29.12796,96.905777 L26.76546,96.905777 L26.30016,88.0714938 L31.00356,88.0696885 Z" id="Fill-7" fill="#1A1A1E"></path>
                                <polygon id="Fill-9" fill="#1A1A1E" points="31.00446 88.0415257 31.00446 88.090269 31.00356 88.090269 30.99096 88.7744814 26.33616 88.7744814 26.30016 88.090269 26.30016 88.090269 26.29836 88.0415257"></polygon>
                                <polygon id="Fill-11" fill="#1A1A1E" points="31.24656 88.0899982 31.24656 88.0899982 31.24656 88.0412549 35.95086 88.0412549 35.94906 88.0809717 35.94996 88.0836796 35.91396 88.7742106 31.25916 88.7742106"></polygon>
                                <g id="Group-15" transform="translate(25.200000, 95.031504)">
                                    <mask id="mask-10" fill="white">
                                        <use xlink:href="#path-9"></use>
                                    </mask>
                                    <g id="Clip-14"></g>
                                    <path d="M1.56591,1.87436283 C0.80001,2.70390265 0.24381,4.45776106 0.89991,5.83882301 C1.39581,6.81188496 2.12391,6.07080531 2.67741,5.66009735 C3.29031,5.14919469 3.99051,4.80347788 4.54401,4.13822124 C4.90131,3.69862832 5.32161,3.17147788 5.56371,2.51885841 C5.63841,2.31576106 5.67351,2.06933628 5.64741,1.87436283 C5.64741,2.38526549 4.37031,3.39443363 3.94461,1.87436283 C2.59731,-0.802911504 1.56591,1.87436283 1.56591,1.87436283" id="Fill-13" fill="#1A1A1E" mask="url(#mask-10)"></path>
                                </g>
                                <g id="Group-18" transform="translate(30.600000, 95.031504)">
                                    <mask id="mask-12" fill="white">
                                        <use xlink:href="#path-11"></use>
                                    </mask>
                                    <g id="Clip-17"></g>
                                    <path d="M4.88556,1.87436283 C5.65146,2.70390265 6.20676,4.45776106 5.55156,5.83882301 C5.05566,6.81188496 4.32756,6.07080531 3.77316,5.66009735 C3.16116,5.14919469 2.46186,4.80347788 1.90746,4.13822124 C1.54926,3.69862832 1.12986,3.17147788 0.88776,2.51885841 C0.81306,2.31576106 0.77706,2.06933628 0.80406,1.87436283 C0.80406,1.87436283 1.59246,3.55510619 2.42406,1.87436283 C3.70386,-0.854362832 4.88556,1.87436283 4.88556,1.87436283" id="Fill-16" fill="#1A1A1E" mask="url(#mask-12)"></path>
                                </g>
                                <path d="M11.00313,50.8501593 L15.24483,55.2957345 L18.51363,54.4986903 L19.87893,58.7186018 C19.87893,58.7186018 15.21603,60.6566018 12.48633,59.9714867 C9.75753,59.2890796 7.56783,52.2465664 7.56783,52.2465664 L11.00313,50.8501593 Z" id="Fill-19" fill="#EFF0ED"></path>
                                <path d="M44.15067,70.4671062 C44.15067,70.4671062 43.64577,62.8234248 40.23477,59.8582035 L40.34817,53.9277611 C40.34817,53.9277611 46.41417,52.9149823 47.58957,70.0735487" id="Fill-21" fill="#EFF0ED"></path>
                                <path d="M52.82154,20.2639699 C51.92964,17.7464655 50.22414,14.3001292 47.36664,11.3114389 C47.36664,11.3114389 54.50094,5.25552743 55.32624,5.60936814 C56.84724,6.26559823 53.03934,20.8543062 53.03934,20.8543062 L53.03664,20.8543062 C52.96194,20.6521115 52.88994,20.4535274 52.82154,20.2639699" id="Fill-23" fill="#E98A73"></path>
                                <path d="M15.96942,12.2925345 C13.81212,14.396623 11.89152,16.8518442 10.32462,19.5110655 C10.22742,19.1211186 7.01352,6.13642832 8.40312,4.89979115 C9.81612,3.64058761 15.96942,12.2925345 15.96942,12.2925345" id="Fill-25" fill="#E98A73"></path>
                                <g id="Group-29" transform="translate(0.900000, 0.252743)">
                                    <mask id="mask-14" fill="white">
                                        <use xlink:href="#path-13"></use>
                                    </mask>
                                    <g id="Clip-28"></g>
                                    <path d="M51.92154,20.0112265 C51.02964,17.4937221 49.32414,14.0473858 46.46664,11.0586956 C46.46664,11.0586956 53.60094,5.00278407 54.42624,5.35662478 C55.94724,6.01285487 52.13934,20.6015628 52.13934,20.6015628 L52.13664,20.6015628 C52.06194,20.3993681 51.98994,20.2007841 51.92154,20.0112265 M9.42444,19.2584124 C9.32724,18.8684655 6.11334,5.88377522 7.50294,4.64713805 C8.91594,3.38793451 15.06924,12.0398814 15.06924,12.0398814 C12.91194,14.1439699 10.99134,16.5991912 9.42444,19.2584124 M53.81244,24.4577044 C54.72144,20.2964655 58.77954,1.8642531 55.84014,0.989580531 C52.90074,0.116713274 43.15464,8.22887257 43.15464,8.22887257 L43.15194,8.23158053 C39.99924,6.06791681 35.91954,4.58304956 30.69234,4.64984602 C26.67114,4.69768673 22.62474,6.24754513 18.97074,8.79664248 C18.74844,8.58000531 8.88444,-1.0838177 6.08904,0.923686726 C3.25674,2.95466018 7.34004,23.4286779 7.34004,23.4286779 C3.58254,32.4714743 0.45774,35.5612619 0.36414,37.8576159 C0.34974,38.1527841 0.38664,38.4344124 0.48114,38.7151381 C0.89064,39.9436513 3.79404,43.3096513 8.68284,46.2559168 C9.42804,46.7090496 10.22004,47.1495451 11.05614,47.5692796 C15.69204,49.9080584 21.68424,51.6736513 28.73304,51.3270319 C36.77274,50.931669 44.23104,48.4033327 49.79844,45.4110319 L49.79844,45.4074212 C52.23744,44.097669 54.31914,42.698554 55.92294,41.349085 C58.24404,39.4029611 59.58144,37.5651558 59.5958661,36.2590142 C59.60664,35.508908 56.26224,29.6488726 53.81244,24.4577044" id="Fill-27" fill="#1D1D1C" mask="url(#mask-14)"></path>
                                </g>
                                <path d="M20.23866,32.450623 C20.23866,31.5651186 19.52316,30.8466053 18.64026,30.8466053 C17.75646,30.8466053 17.04006,31.5651186 17.04006,32.450623 C17.04006,33.3352248 17.75646,34.0528354 18.64026,34.0528354 C19.52316,34.0528354 20.23866,33.3352248 20.23866,32.450623" id="Fill-30" fill="#FEFEFE"></path>
                                <path d="M45.92034,32.450623 C45.92034,31.5651186 45.20304,30.8466053 44.32104,30.8466053 C43.43904,30.8466053 42.72264,31.5651186 42.72264,32.450623 C42.72264,33.3352248 43.43904,34.0528354 44.32104,34.0528354 C45.20304,34.0528354 45.92034,33.3352248 45.92034,32.450623" id="Fill-32" fill="#FEFEFE"></path>
                                <path d="M39.74382,40.2272655 C39.74382,40.2272655 40.09932,40.1676903 40.72032,40.0629823 C41.34222,39.9510531 42.22872,39.7948938 43.29252,39.6053363 C43.82442,39.5024336 44.40042,39.4031416 45.00792,39.2776726 C45.61542,39.1558142 46.25532,39.0294425 46.91862,38.8958496 C47.58012,38.7658673 48.26232,38.6169292 48.95442,38.4634779 C49.64832,38.3199558 50.34492,38.1385221 51.04782,37.9823628 C51.74982,37.8180796 52.44552,37.6402566 53.13312,37.4723628 C53.81712,37.2855133 54.48942,37.1022743 55.14012,36.9244513 C55.78632,36.7330885 56.41182,36.5480442 57.00312,36.3720265 C57.59172,36.1815664 58.14612,36.0001327 58.65822,35.8331416 C59.16492,35.6499027 59.62842,35.4802035 60.03972,35.3303628 C60.45552,35.1895487 60.80022,35.0279735 61.09362,34.9124336 C61.67592,34.6750354 62.00892,34.5378319 62.00892,34.5378319 L62.01702,34.5333186 C62.10522,34.498115 62.20242,34.5405398 62.23932,34.6271947 C62.27352,34.7138496 62.23572,34.8077257 62.15382,34.8465398 C62.15382,34.8465398 61.82712,35.0045044 61.25382,35.2780088 C60.96402,35.4079912 60.62022,35.5903274 60.20892,35.7500973 C59.79942,35.9188938 59.33592,36.1084513 58.83102,36.3142566 C58.31892,36.4974956 57.76362,36.6960796 57.17592,36.9063982 C56.58552,37.1049823 55.95822,37.304469 55.30842,37.5066637 C54.65412,37.6899027 53.97912,37.8821681 53.29242,38.0771416 C52.60122,38.2522566 51.90012,38.4400088 51.19632,38.6088053 C50.48982,38.7721858 49.78512,38.939177 49.08672,39.0799912 C48.38742,39.2271239 47.70072,39.3688407 47.03472,39.4943097 C46.36782,39.6279027 45.72342,39.7371239 45.10782,39.8391239 C44.49492,39.9456372 43.91352,40.0295841 43.37802,40.1153363 C41.23152,40.4348761 39.78702,40.5657611 39.78702,40.5657611 C39.69342,40.5747876 39.61062,40.5052832 39.60162,40.4114071 C39.59352,40.3220442 39.65652,40.241708 39.74382,40.2272655" id="Fill-34" fill="#FEFEFE"></path>
                                <path d="M38.78586,39.1474195 C38.78586,39.1474195 40.07286,38.5652071 42.00336,37.6932425 C42.96726,37.2518442 44.09136,36.7391363 45.29556,36.1894195 C46.49886,35.6369947 47.77596,35.0349239 49.04676,34.4229239 C50.32026,33.8172425 51.59016,33.1998265 52.76196,32.5869239 C53.05446,32.4370832 53.34336,32.2881451 53.62776,32.1437204 C53.90766,31.9938796 54.18216,31.8476496 54.44856,31.7050301 C54.71496,31.561508 54.97416,31.4224991 55.22526,31.2889062 C55.47186,31.1462867 55.71036,31.0090832 55.93806,30.8772956 C56.16756,30.7464106 56.38716,30.6218442 56.59596,30.5017912 C56.79936,30.3754195 56.99376,30.256269 57.17556,30.1443398 C57.53646,29.9159681 57.86316,29.7300212 58.10616,29.5458796 C58.61016,29.1965522 58.89726,28.9961628 58.89726,28.9961628 L58.90806,28.9871363 C58.98456,28.9338796 59.09166,28.9537381 59.14566,29.0295611 C59.19606,29.1053841 59.17986,29.2064814 59.11056,29.2615434 C59.11056,29.2615434 58.82976,29.4835965 58.33836,29.8726407 C58.09716,30.0721274 57.77856,30.2752248 57.42126,30.5243575 C57.24306,30.6462159 57.05046,30.7771009 56.85066,30.9143044 C56.64366,31.0424814 56.42586,31.176977 56.19906,31.3159858 C55.97226,31.4558973 55.73556,31.6039327 55.48986,31.7537735 C55.24146,31.8954903 54.98406,32.0435257 54.71946,32.1951717 C54.19116,32.5020743 53.63136,32.8198088 53.04096,33.1249062 C51.86736,33.7513487 50.59836,34.3841097 49.32486,35.0051363 C48.68856,35.3183575 48.04146,35.6035965 47.41056,35.9005699 C46.77516,36.1885168 46.14966,36.4701451 45.54486,36.7445522 C44.33346,37.2861451 43.18776,37.7582336 42.20766,38.1671363 C41.22846,38.5769416 40.40226,38.8919681 39.82536,39.1203398 C39.24576,39.3387823 38.91546,39.465154 38.91546,39.465154 C38.82636,39.4976496 38.72826,39.4525168 38.69406,39.3649593 C38.66256,39.2792071 38.70486,39.185331 38.78586,39.1474195" id="Fill-36" fill="#FEFEFE"></path>
                                <path d="M22.86837,39.2162018 C22.86837,39.2162018 21.41757,39.2044673 19.25217,39.0600425 C18.71127,39.0176177 18.12447,38.9824142 17.50527,38.9264496 C16.88427,38.8759009 16.23087,38.8199363 15.55677,38.7414053 C14.88177,38.6709982 14.18607,38.5843434 13.47867,38.4958832 C12.77127,38.4128389 12.05487,38.302715 11.33757,38.1998124 C10.62207,38.0878832 9.90837,37.9579009 9.20547,37.8396531 C8.50437,37.7015469 7.81497,37.567954 7.14897,37.4352637 C6.48387,37.288131 5.84397,37.1400956 5.23917,36.9911575 C4.63617,36.8286796 4.06647,36.6770336 3.53997,36.5353168 C3.02067,36.3719363 2.54367,36.2220956 2.12247,36.0876 C1.69947,35.962131 1.34217,35.8086796 1.04247,35.7021664 C0.44847,35.4746973 0.10917,35.3456177 0.10917,35.3456177 C0.02187,35.3113168 -0.02313,35.2129274 0.01197,35.1253699 C0.04347,35.0405204 0.13527,34.9953876 0.21987,35.0224673 L0.23067,35.0260779 C0.23067,35.0260779 0.57267,35.1352991 1.17387,35.323954 C1.47357,35.4151221 1.82997,35.5496177 2.25657,35.6543257 C2.67777,35.7707681 3.15477,35.9007504 3.67407,36.0415646 C4.19877,36.1679363 4.76757,36.3015292 5.36787,36.4450513 C5.97267,36.571423 6.60987,36.7041133 7.26957,36.8431221 C7.93287,36.9658832 8.61777,37.0940602 9.31347,37.2249451 C10.01277,37.335069 10.72197,37.4587327 11.43387,37.5625381 C12.14757,37.6600248 12.85677,37.7836885 13.56147,37.871246 C14.26257,37.9669274 14.95467,38.0599009 15.62517,38.1348212 C16.29567,38.2133522 16.94457,38.2891752 17.56017,38.360485 C18.17397,38.4345027 18.75807,38.4877593 19.29537,38.5464319 C20.37177,38.6466265 21.26817,38.7323788 21.89637,38.7901487 C22.52457,38.8452106 22.88277,38.8749982 22.88277,38.8749982 C22.97817,38.8831221 23.04747,38.9652637 23.03847,39.0600425 C23.03217,39.1485027 22.95567,39.2162018 22.86837,39.2162018" id="Fill-38" fill="#FEFEFE"></path>
                                <path d="M23.6484,38.0472637 C23.6484,38.0472637 23.3082,37.9488743 22.7124,37.7773699 C22.1193,37.5986442 21.2688,37.3513168 20.2608,37.0218478 C19.2501,36.6959894 18.0702,36.320485 16.8174,35.8781841 C16.1937,35.6552283 15.5466,35.4250513 14.8914,35.1894584 C14.2371,34.9466442 13.5684,34.7146619 12.9096,34.4546973 C11.5893,33.9383788 10.2744,33.4130336 9.0531,32.8840779 C8.4393,32.6277239 7.8552,32.3560248 7.3044,32.0942549 C7.0281,31.9660779 6.7599,31.8379009 6.5007,31.7160425 C6.2442,31.5869628 5.9958,31.4605912 5.7582,31.3396354 C5.5215,31.220485 5.2929,31.1049451 5.076,30.9939186 C4.8645,30.8729628 4.6638,30.7592283 4.4757,30.6509097 C4.0995,30.4315646 3.7656,30.2555469 3.5091,30.0741133 C2.9871,29.7274938 2.6892,29.5298124 2.6892,29.5298124 C2.6118,29.4792637 2.5902,29.3718478 2.6424,29.2942195 C2.691,29.2183965 2.7909,29.1958301 2.8683,29.2400602 L2.8809,29.2472814 C2.8809,29.2472814 3.1833,29.4232991 3.7134,29.7311044 C3.9708,29.894485 4.311,30.0542549 4.6899,30.2519363 C4.8807,30.3485204 5.0832,30.4523257 5.2965,30.5615469 C5.5143,30.6626442 5.7438,30.7691575 5.9823,30.8819894 C6.2208,30.9939186 6.4692,31.1103611 6.7266,31.2313168 C6.9885,31.3450513 7.2567,31.4623965 7.5348,31.5842549 C7.812,31.704308 8.0973,31.8279717 8.3889,31.9534407 C8.6823,32.0762018 8.9829,32.1989628 9.2871,32.3253345 C10.5048,32.8398478 11.8206,33.3507504 13.1391,33.8508212 C14.4558,34.3581133 15.7779,34.8527681 17.0226,35.3049982 C18.2664,35.7536177 19.4292,36.1733522 20.4255,36.5326088 C22.4199,37.2457062 23.7501,37.7214053 23.7501,37.7214053 C23.8392,37.7511929 23.8869,37.8486796 23.8554,37.9389451 C23.8266,38.0237947 23.7339,38.0698301 23.6484,38.0472637" id="Fill-40" fill="#FEFEFE"></path>
                                <path d="M26.38314,39.6084053 C26.38314,39.6120159 26.41014,39.6463168 26.45064,39.6923522 C26.49744,39.7492195 26.57484,39.8286531 26.67384,39.9306531 C26.87454,40.1328478 27.18414,40.4027416 27.59184,40.6654142 C28.00224,40.9244761 28.51164,41.1681929 29.09034,41.3415027 C29.38014,41.4299628 29.68974,41.4823168 30.00204,41.5464053 C30.32244,41.5843168 30.64554,41.6213257 30.97764,41.6258389 L31.22334,41.6393788 L31.46364,41.6303522 C31.63554,41.6213257 31.83624,41.6258389 31.96854,41.5987593 C32.25924,41.5716796 32.56524,41.5220336 32.85234,41.4480159 C33.13494,41.3649717 33.40584,41.2783168 33.64884,41.1618743 C33.88914,41.0427239 34.11414,40.9199628 34.30404,40.7800513 C34.49574,40.6437504 34.66584,40.5047416 34.80354,40.3675381 C34.94394,40.2312372 35.05644,40.1039628 35.14464,39.9947416 C35.23194,39.8846177 35.29764,39.7961575 35.33814,39.7365823 C35.37324,39.682423 35.39304,39.6553434 35.39304,39.6553434 L35.42994,39.5975735 C35.53704,39.4350956 35.75664,39.3899628 35.91864,39.4991841 C36.05094,39.5867416 36.10404,39.7510248 36.05814,39.8972549 C36.05814,39.8972549 36.04194,39.9514142 36.01044,40.0525115 C35.97714,40.1436796 35.93214,40.2763699 35.85294,40.4343345 C35.77374,40.5895912 35.67474,40.780954 35.52894,40.9786354 C35.38854,41.1790248 35.21214,41.392954 34.98894,41.6005646 C34.77114,41.8117858 34.51014,42.0148832 34.21044,42.1963168 C33.91164,42.3750425 33.58044,42.5375204 33.22224,42.6584761 C32.86584,42.771308 32.49054,42.8696973 32.07924,42.9184407 C31.86324,42.9554496 31.70664,42.9509363 31.52214,42.9644761 L31.22334,42.9798212 L30.93444,42.9716973 C30.54744,42.9707947 30.16134,42.9094142 29.78064,42.8561575 C29.40084,42.7803345 29.03274,42.6828478 28.68444,42.5528655 C27.98694,42.2974142 27.38574,41.9219097 26.94024,41.5292549 C26.48844,41.1402106 26.18964,40.7394319 26.00964,40.4433611 C25.91784,40.2953257 25.85754,40.1698566 25.81704,40.0832018 C25.77114,39.9839097 25.75404,39.9396796 25.75584,39.941485 L25.75494,39.9378743 C25.68924,39.7501221 25.78824,39.5461221 25.97454,39.4802283 C26.12754,39.4278743 26.29134,39.4856442 26.38314,39.6084053" id="Fill-42" fill="#FEFEFE"></path>
                                <path d="M31.25187,35.9528336 C31.25187,35.9528336 31.36167,36.3057717 31.43817,36.8338248 C31.51737,37.3618779 31.57407,38.0659487 31.56867,38.7718248 C31.56777,39.4749929 31.50927,40.180869 31.43097,40.7089221 C31.35627,41.2369752 31.25097,41.5890106 31.25097,41.5890106 C31.19427,41.7857894 30.98817,41.8977186 30.79287,41.839046 C30.66867,41.8011345 30.57777,41.7045504 30.54267,41.5890106 C30.54267,41.5890106 30.43917,41.2369752 30.36447,40.7089221 C30.28617,40.180869 30.22677,39.4749929 30.22587,38.7718248 C30.22047,38.0659487 30.27717,37.3618779 30.35727,36.8338248 C30.43377,36.3057717 30.54267,35.9528336 30.54267,35.9528336 C30.60297,35.7560549 30.81177,35.6468336 31.00797,35.7082142 C31.12767,35.7461257 31.21677,35.8418071 31.25187,35.9528336" id="Fill-44" fill="#FEFEFE"></path>
                                <path d="M26.85816,34.3361788 C27.02826,32.4424088 35.11836,32.4351876 34.93566,34.4589398 C34.81776,35.7732053 31.35906,37.1894708 30.65076,37.1253823 C29.94426,37.0621965 26.76636,35.3417363 26.85816,34.3361788" id="Fill-46" fill="#E98A73"></path>
                                <path d="M32.96349,33.5217133 C32.59269,33.0938549 31.51989,33.3691646 31.03659,33.4070761 C30.62439,33.4377664 30.20859,33.4431823 29.79729,33.4847044 C29.57589,33.5072708 29.29239,33.6056602 29.07819,33.5948283 C29.05749,33.593023 29.05119,33.6192 29.06289,33.6318372 C29.42919,34.0705274 30.14919,33.9865805 30.65679,33.9856779 C31.20939,33.9856779 32.56479,34.1878726 32.96349,33.7112708 C33.01209,33.6516956 33.01479,33.5803858 32.96349,33.5217133" id="Fill-48" fill="#FEFEFE"></path>
                                <path d="M8.07462,51.1066938 C8.72982,49.534269 9.60282,50.8006938 9.60282,50.8006938 C9.60282,50.8006938 10.43352,49.9774726 10.98342,49.9404637 C11.03832,49.7472956 11.08872,49.5478088 11.12922,49.3411009 C11.46762,47.5917558 11.08872,46.0473133 10.28412,45.8893487 C9.85212,45.8054018 9.38592,46.1357735 8.99352,46.7297204 C8.12592,45.8929593 7.05312,45.5427292 6.15852,45.9227469 C4.78962,46.5040566 4.35492,48.5756496 5.18832,50.5497558 C5.44482,51.1581451 5.79402,51.6852956 6.19272,52.1068354 C6.43392,52.0743398 6.61122,52.0671186 6.61122,52.0671186 C6.61122,52.0671186 6.80562,50.5876673 8.07462,51.1066938" id="Fill-50" fill="#FBE0B9"></path>
                                <path d="M48.20985,84.1425982 C45.94095,85.9298549 43.83495,84.7925097 42.37605,85.6048991 C40.91715,86.4181912 37.67535,89.3436956 34.27245,88.6937841 C30.86865,88.0420673 26.65485,87.2305805 24.54795,87.3939611 C22.44195,87.5555363 17.41725,86.5797664 15.95925,83.9792177 C15.04755,82.3535363 12.67965,81.3633239 11.03265,80.8497133 L8.34165,83.3293062 C8.34165,83.3293062 19.20015,90.156085 31.19265,90.9684743 C43.18515,91.7817664 53.39565,83.6542619 53.39565,83.6542619 L52.15635,82.4835186 C50.80545,82.7967398 49.26285,83.3121558 48.20985,84.1425982" id="Fill-52" fill="#2D3033"></path>
                                <path d="M15.95934,83.9795788 C17.41734,86.5801274 22.44204,87.5558973 24.54804,87.3934195 C26.65494,87.2309416 30.86874,88.0424283 34.27254,88.6941451 C37.67544,89.343154 40.91724,86.4176496 42.37614,85.6052602 C43.83504,84.7919681 45.94104,85.9302159 48.20994,84.1429593 C49.26294,83.3125168 50.80554,82.7961982 52.15644,82.4838796 L32.16564,65.7748354 L18.39024,76.339508 L11.03274,80.8491717 C12.67974,81.363685 15.04764,82.3529947 15.95934,83.9795788" id="Fill-54" fill="#EFF0ED"></path>
                                <path d="M27.49095,51.8665487 L16.43175,50.976531 L20.46735,66.5202478 L13.48965,77.2329558 C13.48965,77.2329558 20.65905,84.1427788 27.14175,83.1670088 L30.38265,68.0511504 L33.94845,83.1670088 C33.94845,83.1670088 43.53345,81.6595752 47.66355,76.0901947 L39.97395,66.2368142 L43.24905,49.9556283 L35.09415,51.7681593 L30.94065,51.0018053 L27.49095,51.8665487 Z" id="Fill-56" fill="#1A1A1E"></path>
                                <path d="M39.87036,47.3197858 C39.40866,46.2149363 37.63386,46.6319628 36.49266,46.9948301 C34.58376,47.5996088 32.76216,48.4941398 31.10616,49.6278743 L30.71106,49.8661752 C28.79676,48.4724761 26.47926,47.6447416 24.11046,47.5201752 C23.35356,47.4777504 22.43016,47.6068301 22.12326,48.305485 C21.84066,48.9472726 22.26366,49.6648832 22.70196,50.2073788 C23.35446,51.0053257 24.08706,51.7292549 24.88896,52.3692372 C23.80266,52.7943876 22.98546,53.8432726 22.83516,55.0013788 C22.80456,55.236069 22.79916,55.4852018 22.88826,55.7072549 C23.13666,56.3246708 23.95566,56.4555558 24.61806,56.3860513 C27.20466,56.1107416 29.33226,54.2927947 31.27536,52.557892 C32.77386,54.367715 34.65306,56.3454319 36.98946,56.1603876 C37.29906,56.1387239 37.61856,56.0647062 37.85796,55.874246 C38.25486,55.5556088 38.35026,54.9688832 38.22066,54.475131 C38.09376,53.9831841 36.94176,52.4856796 36.63936,52.0776796 C38.03796,51.4015912 38.86416,50.5296265 39.24936,50.1866177 C40.08276,49.4527593 40.62996,49.1557858 39.87036,47.3197858" id="Fill-58" fill="#FEFEFE"></path>
                                <path d="M47.32479,70.9412708 C46.39869,72.0533416 45.71829,70.9412708 45.71829,70.9412708 C45.71829,70.9412708 44.80569,72.0849345 43.97499,70.9412708 C43.83639,71.1127752 43.60059,71.2319257 43.34949,71.2933062 C43.28829,71.3925982 43.22889,71.4945982 43.17219,71.6020142 C42.48549,72.9009345 42.41349,74.2115894 43.01289,74.5302265 C43.33239,74.6999257 43.78059,74.5509876 44.23239,74.1781912 C44.71659,75.0474478 45.47889,75.5809168 46.27629,75.4960673 C47.49579,75.366085 48.33549,73.8369876 48.15009,72.0795186 C48.12309,71.8285805 48.07629,71.5911823 48.01419,71.361908 C47.74329,71.3077487 47.47869,71.1642265 47.32479,70.9412708" id="Fill-60" fill="#FBE0B9"></path>
                                <path d="M7.59213,53.5581239 L8.17353,55.6270088 C8.17353,55.6270088 9.39033,54.6187434 10.34253,54.4598761 C11.29473,54.3001062 12.19383,53.7693451 12.40533,53.346 C12.61683,52.9208496 13.93893,52.6563717 13.93893,52.6563717 L11.77083,51.2229558 C11.77083,51.2229558 8.96733,51.9134867 7.59213,53.5581239" id="Fill-62" fill="#1A1A1E"></path>
                                <path d="M43.98282,69.0487646 C44.03592,68.7824814 43.29522,67.6162513 43.29522,67.6162513 C43.29522,67.6162513 43.77132,67.1920035 44.40582,67.2443575 C45.04122,67.2985168 45.88722,67.2985168 46.20402,67.0845876 C46.52172,66.8733664 46.89162,66.9257204 47.42082,67.0322336 C47.95002,67.1387469 47.63322,67.1920035 48.21462,67.3517735 L47.36862,68.9422513 L43.98282,69.0487646 Z" id="Fill-64" fill="#1A1A1E"></path>
                                <path d="M6.91011,54.162 C3.99951,52.2844779 7.02351,50.9413274 7.02351,50.9413274 C7.02351,50.9413274 7.21791,49.4627788 8.48691,49.9818053 C9.14121,48.4084779 10.01601,49.6749027 10.01601,49.6749027 C10.01601,49.6749027 12.81861,48.5438761 12.23901,51.533469 C12.23901,51.533469 10.62621,53.1149204 9.96291,53.4470973 C9.26271,53.7991327 6.91011,54.162 6.91011,54.162" id="Fill-66" fill="#1A1A1E"></path>
                                <path d="M43.17858,69.0575204 C41.22198,70.8610248 43.39278,71.9135204 43.97508,71.1959097 C44.80578,72.3404761 45.71838,71.1959097 45.71838,71.1959097 C45.71838,71.1959097 46.39878,72.3088832 47.32488,71.1959097 C47.89368,72.0245469 50.11488,70.891715 48.35178,68.8896265 C48.07908,68.2288832 45.56538,68.2722106 45.56538,68.2722106 C45.56538,68.2722106 43.27938,68.4355912 43.17858,69.0575204" id="Fill-68" fill="#1A1A1E"></path>
                                <path d="M7.74243,54.0403221 C7.74243,54.0403221 10.18053,53.7938973 12.23883,51.5336496 C12.23883,51.5336496 12.51513,52.0021274 10.38393,53.2369593 C8.25183,54.4717912 7.74243,54.0403221 7.74243,54.0403221" id="Fill-70" fill="#FEFEFE"></path>
                                <path d="M43.82856,68.6150389 C43.82856,68.6150389 45.87426,67.6167027 47.65716,68.510331 C47.65716,68.510331 46.81836,68.2124549 45.73476,68.3180655 C44.65026,68.4218708 44.09136,68.5978885 43.82856,68.6150389" id="Fill-72" fill="#FEFEFE"></path>
                            </g>
                        </g>
                    </g>
                    <text id="系列活動" font-family="PingFangTC-Semibold, PingFang TC" font-size="46" font-weight="500" letter-spacing="6.9" fill="#E8B100">
                        <tspan x="247.2" y="77">系列活動</tspan>
                    </text>
                </g>
            </g>
        </g>
    </g>
</svg>