<?xml version="1.0" encoding="UTF-8"?>
<svg width="699px" height="90px" viewBox="0 0 699 90" version="1.1" xmlns="http://www.w3.org/2000/svg" xmlns:xlink="http://www.w3.org/1999/xlink">
    <title>news title</title>
    <defs>
        <polygon id="path-1" points="0.848548373 1.03540992 12.0982767 1.03540992 12.0982767 24.4444444 0.848548373 24.4444444"></polygon>
        <polygon id="path-3" points="0.000356382542 0.215565651 59.3029787 0.215565651 59.3029787 20.6818007 0.000356382542 20.6818007"></polygon>
        <polygon id="path-5" points="0.601540948 0.785555556 4.96197216 0.785555556 4.96197216 21.3595827 0.601540948 21.3595827"></polygon>
        <polygon id="path-7" points="0.848548373 1.03540992 12.0982767 1.03540992 12.0982767 24.4444444 0.848548373 24.4444444"></polygon>
        <polygon id="path-9" points="0.000356382542 0.215565651 59.3029787 0.215565651 59.3029787 20.6818007 0.000356382542 20.6818007"></polygon>
        <polygon id="path-11" points="0.601540948 0.785555556 4.96197216 0.785555556 4.96197216 21.3595827 0.601540948 21.3595827"></polygon>
    </defs>
    <g id="2021桃園兒童節" stroke="none" stroke-width="1" fill="none" fill-rule="evenodd">
        <g id="01_index" transform="translate(-367.000000, -900.000000)">
            <g id="news" transform="translate(-91.000000, 900.000000)">
                <g id="news-title" transform="translate(458.000000, 0.000000)">
                    <text id="最新消息" font-family="NotoSansCJKtc-Bold, Noto Sans CJK TC" font-size="46" font-weight="bold" letter-spacing="6.9" fill="#26347C">
                        <tspan x="247.2" y="71">最新消息</tspan>
                    </text>
                    <g id="Group-28-Copy-2" transform="translate(166.000000, 0.000000)">
                        <path d="M46.2981702,83.8123333 L50.0130638,50.5945556 L9.27689362,49.5878889 L10.8675319,82.3734444 C10.8675319,82.3734444 13.9249787,88.9378889 29.3322128,88.9801111 C29.3322128,88.9801111 42.0011489,89.3156667 46.2981702,83.8123333" id="Fill-1" fill="#C8C9C9"></path>
                        <g id="Group-5" transform="translate(22.978723, 64.770222)">
                            <mask id="mask-2" fill="white">
                                <use xlink:href="#path-1"></use>
                            </mask>
                            <g id="Clip-4"></g>
                            <path d="M12.0968936,23.9357778 C12.0968936,23.9357778 12.3368936,1.26466667 6.49391489,1.048 C6.49391489,1.048 0.672638298,-0.264222222 0.852638298,23.9046667 C0.852638298,23.9046667 5.99604255,25.0991111 12.0968936,23.9357778" id="Fill-3" fill="#131E36" mask="url(#mask-2)"></path>
                        </g>
                        <g id="Group-8" transform="translate(0.000000, 38.103556)">
                            <mask id="mask-4" fill="white">
                                <use xlink:href="#path-3"></use>
                            </mask>
                            <g id="Clip-7"></g>
                            <path d="M0.000356382542,10.367 C-0.0213191489,16.017 13.241234,20.6358889 29.6122979,20.6814444 C45.9884681,20.7281111 59.2816596,16.1836667 59.3033853,10.5325556 C59.3237872,4.88144444 46.0650638,0.261444444 29.6888936,0.215888889 C13.3178298,0.171444444 0.0208085106,4.71588889 0.000356382542,10.367" id="Fill-6" fill="#1699B9" mask="url(#mask-4)"></path>
                        </g>
                        <path d="M6.93561702,42.8867778 C7.73093617,47.7201111 17.195617,51.9934444 30.4964681,51.8801111 C43.3479574,51.7767778 53.375617,48.0856667 53.3922128,43.4867778 L34.3709362,21.9401111 C34.3709362,21.9401111 32.1585957,19.1045556 30.7875319,19.399 C30.7875319,19.399 29.9322128,18.8001111 27.1811489,21.4767778 L6.93561702,42.8867778 Z" id="Fill-9" fill="#31BBDD"></path>
                        <path d="M31.2994468,19.548 L40.5981702,51.0135556 C40.5981702,51.0135556 32.3590213,53.3302222 19.2011489,50.8068889 L30.102,19.3991111 C30.102,19.3991111 30.6164681,18.9524444 31.2994468,19.548" id="Fill-11" fill="#31BBDD"></path>
                        <path d="M46.8478723,11.1501111 C46.8478723,11.1501111 35.7504255,4.71233333 34.2121277,1.999 L32.6865957,15.229 C32.6865957,15.229 36.3708511,12.169 46.8478723,11.1501111" id="Fill-13" fill="#31BBDD"></path>
                        <path d="M44.2959574,9.85566667 C44.2959574,9.85566667 35.5780851,4.87122222 34.5734043,2.729 L33.6517021,10.739 C33.6517021,10.739 38.0214894,8.95011111 44.2959574,9.85566667" id="Fill-15" fill="#31BBDD"></path>
                        <g id="Group-19" transform="translate(29.361702, 0.325778)">
                            <mask id="mask-6" fill="white">
                                <use xlink:href="#path-5"></use>
                            </mask>
                            <g id="Clip-18"></g>
                            <path d="M1.59740426,21.3544444 C0.991021277,21.3022222 0.548042553,20.8322222 0.606765957,20.3044444 L2.7552766,1.65 C2.81655319,1.12333333 3.35782979,0.736666667 3.96293617,0.79 C4.57187234,0.843333333 5.01868085,1.31333333 4.95612766,1.84111111 L2.80761702,20.4966667 C2.74634043,21.0244444 2.20506383,21.4088889 1.59740426,21.3544444" id="Fill-17" fill="#FEFEFE" mask="url(#mask-6)"></path>
                        </g>
                        <g id="Group-10" opacity="0.495768229" transform="translate(18.111378, 31.507916)" fill="#FEFEFE">
                            <path d="M15.1702392,4.70297313 L13.8668349,2.99408424 L14.7566221,1.1196398 C15.0030051,0.664084239 14.4515158,0.824084239 14.4515158,0.824084239 L12.1932179,1.37408424 L10.421303,0.0918620173 C9.9668349,-0.219249094 9.99109022,0.359639795 9.99109022,0.359639795 L9.90300511,2.25741757 L8.09917533,3.2496398 C7.30257958,3.58519535 8.13236682,3.77186202 8.13236682,3.77186202 L10.1621541,4.42630646 L10.6625796,6.14408424 C10.6625796,6.14408424 10.7532179,6.98075091 11.2638562,6.36408424 L12.6081115,4.88186202 L14.8753455,5.01075091 C15.5034306,5.07852868 15.1702392,4.70297313 15.1702392,4.70297313" id="Fill-20"></path>
                            <path d="M23.0828349,2.72430646 L21.8853881,1.94986202 L21.9556009,0.664306462 C21.9913455,0.346528684 21.7015583,0.544306462 21.7015583,0.544306462 L20.4900689,1.29097313 L19.1190051,0.856528684 C18.7704945,0.755417573 18.9300689,1.09541757 18.9300689,1.09541757 L19.3411328,2.24430646 L18.5087923,3.17208424 C18.1156009,3.51986202 18.6581541,3.47541757 18.6581541,3.47541757 L20.0292179,3.48875091 L20.7466647,4.42097313 C20.7466647,4.42097313 21.0083668,4.90208424 21.1602817,4.44097313 L21.5994306,3.30430646 L22.9819838,2.96319535 C23.3726221,2.88652868 23.0828349,2.72430646 23.0828349,2.72430646" id="Fill-22"></path>
                            <path d="M4.69692001,7.51275091 L3.86840937,6.43052868 L4.43521788,5.2416398 C4.58968597,4.95386202 4.24245192,5.05386202 4.24245192,5.05386202 L2.81138809,5.40497313 L1.68798384,4.59275091 C1.4007498,4.39497313 1.41606894,4.76052868 1.41606894,4.76052868 L1.35989873,5.96386202 L0.218622136,6.5916398 C-0.285633183,6.80386202 0.240324264,6.92275091 0.240324264,6.92275091 L1.52713277,7.33719535 L1.84245192,8.42497313 C1.84245192,8.42497313 1.90117533,8.95386202 2.22287746,8.56386202 L3.07436682,7.62497313 L4.51053703,7.70830646 C4.90755831,7.75052868 4.69692001,7.51275091 4.69692001,7.51275091" id="Fill-24"></path>
                            <path d="M25.7133881,11.1873065 L22.1580689,11.822862 L19.5959413,9.63175091 C18.9933881,9.05952868 18.9346647,9.83841757 18.9346647,9.83841757 L18.532537,12.9617509 L15.4074306,14.4217509 C14.632537,14.8050842 15.5963668,15.1084176 15.5963668,15.1084176 L18.6614732,16.3161954 L19.2436009,19.1317509 C19.331686,20.3150842 20.1167923,19.3884176 20.1167923,19.3884176 L22.3623243,17.2461954 L25.4708349,17.6206398 C25.4708349,17.6206398 26.8955158,17.9884176 26.1780689,16.9984176 L24.5248775,14.4717509 L26.0465796,11.7339731 C26.5214732,10.9917509 25.7133881,11.1873065 25.7133881,11.1873065" id="Fill-26"></path>
                        </g>
                    </g>
                    <g id="custal" transform="translate(475.000000, 0.000000)">
                        <path d="M46.2981702,83.8123333 L50.0130638,50.5945556 L9.27689362,49.5878889 L10.8675319,82.3734444 C10.8675319,82.3734444 13.9249787,88.9378889 29.3322128,88.9801111 C29.3322128,88.9801111 42.0011489,89.3156667 46.2981702,83.8123333" id="Fill-1" fill="#C8C9C9"></path>
                        <g id="Group-5" transform="translate(22.978723, 64.770222)">
                            <mask id="mask-8" fill="white">
                                <use xlink:href="#path-7"></use>
                            </mask>
                            <g id="Clip-4"></g>
                            <path d="M12.0968936,23.9357778 C12.0968936,23.9357778 12.3368936,1.26466667 6.49391489,1.048 C6.49391489,1.048 0.672638298,-0.264222222 0.852638298,23.9046667 C0.852638298,23.9046667 5.99604255,25.0991111 12.0968936,23.9357778" id="Fill-3" fill="#131E36" mask="url(#mask-8)"></path>
                        </g>
                        <g id="Group-8" transform="translate(0.000000, 38.103556)">
                            <mask id="mask-10" fill="white">
                                <use xlink:href="#path-9"></use>
                            </mask>
                            <g id="Clip-7"></g>
                            <path d="M0.000356382542,10.367 C-0.0213191489,16.017 13.241234,20.6358889 29.6122979,20.6814444 C45.9884681,20.7281111 59.2816596,16.1836667 59.3033853,10.5325556 C59.3237872,4.88144444 46.0650638,0.261444444 29.6888936,0.215888889 C13.3178298,0.171444444 0.0208085106,4.71588889 0.000356382542,10.367" id="Fill-6" fill="#1699B9" mask="url(#mask-10)"></path>
                        </g>
                        <path d="M6.93561702,42.8867778 C7.73093617,47.7201111 17.195617,51.9934444 30.4964681,51.8801111 C43.3479574,51.7767778 53.375617,48.0856667 53.3922128,43.4867778 L34.3709362,21.9401111 C34.3709362,21.9401111 32.1585957,19.1045556 30.7875319,19.399 C30.7875319,19.399 29.9322128,18.8001111 27.1811489,21.4767778 L6.93561702,42.8867778 Z" id="Fill-9" fill="#31BBDD"></path>
                        <path d="M31.2994468,19.548 L40.5981702,51.0135556 C40.5981702,51.0135556 32.3590213,53.3302222 19.2011489,50.8068889 L30.102,19.3991111 C30.102,19.3991111 30.6164681,18.9524444 31.2994468,19.548" id="Fill-11" fill="#31BBDD"></path>
                        <path d="M46.8478723,11.1501111 C46.8478723,11.1501111 35.7504255,4.71233333 34.2121277,1.999 L32.6865957,15.229 C32.6865957,15.229 36.3708511,12.169 46.8478723,11.1501111" id="Fill-13" fill="#31BBDD"></path>
                        <path d="M44.2959574,9.85566667 C44.2959574,9.85566667 35.5780851,4.87122222 34.5734043,2.729 L33.6517021,10.739 C33.6517021,10.739 38.0214894,8.95011111 44.2959574,9.85566667" id="Fill-15" fill="#31BBDD"></path>
                        <g id="Group-19" transform="translate(29.361702, 0.325778)">
                            <mask id="mask-12" fill="white">
                                <use xlink:href="#path-11"></use>
                            </mask>
                            <g id="Clip-18"></g>
                            <path d="M1.59740426,21.3544444 C0.991021277,21.3022222 0.548042553,20.8322222 0.606765957,20.3044444 L2.7552766,1.65 C2.81655319,1.12333333 3.35782979,0.736666667 3.96293617,0.79 C4.57187234,0.843333333 5.01868085,1.31333333 4.95612766,1.84111111 L2.80761702,20.4966667 C2.74634043,21.0244444 2.20506383,21.4088889 1.59740426,21.3544444" id="Fill-17" fill="#FEFEFE" mask="url(#mask-12)"></path>
                        </g>
                        <g id="Group-10" opacity="0.495768229" transform="translate(18.111378, 31.507916)" fill="#FEFEFE">
                            <path d="M15.1702392,4.70297313 L13.8668349,2.99408424 L14.7566221,1.1196398 C15.0030051,0.664084239 14.4515158,0.824084239 14.4515158,0.824084239 L12.1932179,1.37408424 L10.421303,0.0918620173 C9.9668349,-0.219249094 9.99109022,0.359639795 9.99109022,0.359639795 L9.90300511,2.25741757 L8.09917533,3.2496398 C7.30257958,3.58519535 8.13236682,3.77186202 8.13236682,3.77186202 L10.1621541,4.42630646 L10.6625796,6.14408424 C10.6625796,6.14408424 10.7532179,6.98075091 11.2638562,6.36408424 L12.6081115,4.88186202 L14.8753455,5.01075091 C15.5034306,5.07852868 15.1702392,4.70297313 15.1702392,4.70297313" id="Fill-20"></path>
                            <path d="M23.0828349,2.72430646 L21.8853881,1.94986202 L21.9556009,0.664306462 C21.9913455,0.346528684 21.7015583,0.544306462 21.7015583,0.544306462 L20.4900689,1.29097313 L19.1190051,0.856528684 C18.7704945,0.755417573 18.9300689,1.09541757 18.9300689,1.09541757 L19.3411328,2.24430646 L18.5087923,3.17208424 C18.1156009,3.51986202 18.6581541,3.47541757 18.6581541,3.47541757 L20.0292179,3.48875091 L20.7466647,4.42097313 C20.7466647,4.42097313 21.0083668,4.90208424 21.1602817,4.44097313 L21.5994306,3.30430646 L22.9819838,2.96319535 C23.3726221,2.88652868 23.0828349,2.72430646 23.0828349,2.72430646" id="Fill-22"></path>
                            <path d="M4.69692001,7.51275091 L3.86840937,6.43052868 L4.43521788,5.2416398 C4.58968597,4.95386202 4.24245192,5.05386202 4.24245192,5.05386202 L2.81138809,5.40497313 L1.68798384,4.59275091 C1.4007498,4.39497313 1.41606894,4.76052868 1.41606894,4.76052868 L1.35989873,5.96386202 L0.218622136,6.5916398 C-0.285633183,6.80386202 0.240324264,6.92275091 0.240324264,6.92275091 L1.52713277,7.33719535 L1.84245192,8.42497313 C1.84245192,8.42497313 1.90117533,8.95386202 2.22287746,8.56386202 L3.07436682,7.62497313 L4.51053703,7.70830646 C4.90755831,7.75052868 4.69692001,7.51275091 4.69692001,7.51275091" id="Fill-24"></path>
                            <path d="M25.7133881,11.1873065 L22.1580689,11.822862 L19.5959413,9.63175091 C18.9933881,9.05952868 18.9346647,9.83841757 18.9346647,9.83841757 L18.532537,12.9617509 L15.4074306,14.4217509 C14.632537,14.8050842 15.5963668,15.1084176 15.5963668,15.1084176 L18.6614732,16.3161954 L19.2436009,19.1317509 C19.331686,20.3150842 20.1167923,19.3884176 20.1167923,19.3884176 L22.3623243,17.2461954 L25.4708349,17.6206398 C25.4708349,17.6206398 26.8955158,17.9884176 26.1780689,16.9984176 L24.5248775,14.4717509 L26.0465796,11.7339731 C26.5214732,10.9917509 25.7133881,11.1873065 25.7133881,11.1873065" id="Fill-26"></path>
                        </g>
                    </g>
                    <g id="star" transform="translate(539.000000, 28.000000)" fill="#FFFFFF" fill-rule="nonzero" opacity="0.44">
                        <path d="M44.9191744,21.2706013 L54.2226726,26.9733455 L54.6706188,37.7261102 C54.6706188,40.371359 56.6002333,38.5506033 56.6002333,38.5506033 L64.8700095,31.5080578 L75.2072298,34.2563682 C77.7915349,34.8747381 76.4132389,32.1607815 76.4132389,32.1607815 L72.5540099,22.8508798 L77.8949071,14.5715945 C80.5136696,11.4110375 76.5855259,12.132469 76.5855259,12.132469 L66.627337,12.9226082 L60.5972918,5.60523162 C60.5972918,5.60523162 58.3231033,1.75759697 57.5650405,5.60523162 L55.2219372,15.3617338 L45.401578,19.1063068 C42.6794433,20.1025693 44.9191744,21.2706013 44.9191744,21.2706013 Z" id="Path-Copy-119" transform="translate(61.423869, 21.528331) rotate(15.000000) translate(-61.423869, -21.528331) "></path>
                        <path d="M5.17556239,36.364324 L4.72955145,38.9056929 L2.24127986,39.9664381 C1.6309491,40.2095256 2.24127986,40.4747119 2.24127986,40.4747119 L4.58870589,41.6680503 L4.91734553,44.1652214 C4.91734553,44.7839894 5.5276763,44.1652214 5.5276763,44.1652214 L7.33519434,42.5078069 L9.68262036,42.9276853 C10.6685393,43.2149704 10.1286313,42.4415104 10.1286313,42.4415104 L9.00186681,40.2316244 L10.1521056,38.2648259 C10.1521056,38.2648259 10.8563334,37.4250693 9.84694018,37.623959 L7.3586686,37.9775408 L5.55115056,36.1433355 C5.24598517,35.7676548 5.17556239,36.364324 5.17556239,36.364324 Z" id="Path-Copy-120" transform="translate(6.180548, 40.229703) rotate(31.000000) translate(-6.180548, -40.229703) "></path>
                        <path d="M30.9031827,36.174657 L29.947965,41.7507496 L24.6508487,44.098578 C23.3048602,44.6016841 24.6508487,45.1886413 24.6508487,45.1886413 L29.861127,47.7880228 L30.5558308,53.2802643 C30.5558308,54.6638061 31.8584003,53.2802643 31.8584003,53.2802643 L35.7661091,49.5908196 L40.9763874,50.5970318 C43.0604987,51.2259144 41.931605,49.4650431 41.931605,49.4650431 L39.5001418,44.8113117 L41.975024,40.6187609 C41.975024,40.6187609 43.4512695,38.7740385 41.3237392,39.1513681 L35.983204,39.9479527 L32.1189143,35.9650295 C31.0334396,34.7491897 30.9031827,36.174657 30.9031827,36.174657 Z" id="Path-Copy-121"></path>
                    </g>
                    <g id="star" transform="translate(616.000000, 28.000000)" fill="#FFFFFF" fill-rule="nonzero" opacity="0.44">
                        <path d="M44.9191744,21.2706013 L54.2226726,26.9733455 L54.6706188,37.7261102 C54.6706188,40.371359 56.6002333,38.5506033 56.6002333,38.5506033 L64.8700095,31.5080578 L75.2072298,34.2563682 C77.7915349,34.8747381 76.4132389,32.1607815 76.4132389,32.1607815 L72.5540099,22.8508798 L77.8949071,14.5715945 C80.5136696,11.4110375 76.5855259,12.132469 76.5855259,12.132469 L66.627337,12.9226082 L60.5972918,5.60523162 C60.5972918,5.60523162 58.3231033,1.75759697 57.5650405,5.60523162 L55.2219372,15.3617338 L45.401578,19.1063068 C42.6794433,20.1025693 44.9191744,21.2706013 44.9191744,21.2706013 Z" id="Path-Copy-119" transform="translate(61.423869, 21.528331) rotate(15.000000) translate(-61.423869, -21.528331) "></path>
                        <path d="M5.17556239,36.364324 L4.72955145,38.9056929 L2.24127986,39.9664381 C1.6309491,40.2095256 2.24127986,40.4747119 2.24127986,40.4747119 L4.58870589,41.6680503 L4.91734553,44.1652214 C4.91734553,44.7839894 5.5276763,44.1652214 5.5276763,44.1652214 L7.33519434,42.5078069 L9.68262036,42.9276853 C10.6685393,43.2149704 10.1286313,42.4415104 10.1286313,42.4415104 L9.00186681,40.2316244 L10.1521056,38.2648259 C10.1521056,38.2648259 10.8563334,37.4250693 9.84694018,37.623959 L7.3586686,37.9775408 L5.55115056,36.1433355 C5.24598517,35.7676548 5.17556239,36.364324 5.17556239,36.364324 Z" id="Path-Copy-120" transform="translate(6.180548, 40.229703) rotate(31.000000) translate(-6.180548, -40.229703) "></path>
                        <path d="M30.9031827,36.174657 L29.947965,41.7507496 L24.6508487,44.098578 C23.3048602,44.6016841 24.6508487,45.1886413 24.6508487,45.1886413 L29.861127,47.7880228 L30.5558308,53.2802643 C30.5558308,54.6638061 31.8584003,53.2802643 31.8584003,53.2802643 L35.7661091,49.5908196 L40.9763874,50.5970318 C43.0604987,51.2259144 41.931605,49.4650431 41.931605,49.4650431 L39.5001418,44.8113117 L41.975024,40.6187609 C41.975024,40.6187609 43.4512695,38.7740385 41.3237392,39.1513681 L35.983204,39.9479527 L32.1189143,35.9650295 C31.0334396,34.7491897 30.9031827,36.174657 30.9031827,36.174657 Z" id="Path-Copy-121"></path>
                    </g>
                    <g id="star" transform="translate(120.500000, 55.000000) scale(-1, 1) translate(-120.500000, -55.000000) translate(79.000000, 28.000000)" fill="#FFFFFF" fill-rule="nonzero" opacity="0.44">
                        <path d="M44.9191744,21.2706013 L54.2226726,26.9733455 L54.6706188,37.7261102 C54.6706188,40.371359 56.6002333,38.5506033 56.6002333,38.5506033 L64.8700095,31.5080578 L75.2072298,34.2563682 C77.7915349,34.8747381 76.4132389,32.1607815 76.4132389,32.1607815 L72.5540099,22.8508798 L77.8949071,14.5715945 C80.5136696,11.4110375 76.5855259,12.132469 76.5855259,12.132469 L66.627337,12.9226082 L60.5972918,5.60523162 C60.5972918,5.60523162 58.3231033,1.75759697 57.5650405,5.60523162 L55.2219372,15.3617338 L45.401578,19.1063068 C42.6794433,20.1025693 44.9191744,21.2706013 44.9191744,21.2706013 Z" id="Path-Copy-119" transform="translate(61.423869, 21.528331) rotate(15.000000) translate(-61.423869, -21.528331) "></path>
                        <path d="M5.17556239,36.364324 L4.72955145,38.9056929 L2.24127986,39.9664381 C1.6309491,40.2095256 2.24127986,40.4747119 2.24127986,40.4747119 L4.58870589,41.6680503 L4.91734553,44.1652214 C4.91734553,44.7839894 5.5276763,44.1652214 5.5276763,44.1652214 L7.33519434,42.5078069 L9.68262036,42.9276853 C10.6685393,43.2149704 10.1286313,42.4415104 10.1286313,42.4415104 L9.00186681,40.2316244 L10.1521056,38.2648259 C10.1521056,38.2648259 10.8563334,37.4250693 9.84694018,37.623959 L7.3586686,37.9775408 L5.55115056,36.1433355 C5.24598517,35.7676548 5.17556239,36.364324 5.17556239,36.364324 Z" id="Path-Copy-120" transform="translate(6.180548, 40.229703) rotate(31.000000) translate(-6.180548, -40.229703) "></path>
                        <path d="M30.9031827,36.174657 L29.947965,41.7507496 L24.6508487,44.098578 C23.3048602,44.6016841 24.6508487,45.1886413 24.6508487,45.1886413 L29.861127,47.7880228 L30.5558308,53.2802643 C30.5558308,54.6638061 31.8584003,53.2802643 31.8584003,53.2802643 L35.7661091,49.5908196 L40.9763874,50.5970318 C43.0604987,51.2259144 41.931605,49.4650431 41.931605,49.4650431 L39.5001418,44.8113117 L41.975024,40.6187609 C41.975024,40.6187609 43.4512695,38.7740385 41.3237392,39.1513681 L35.983204,39.9479527 L32.1189143,35.9650295 C31.0334396,34.7491897 30.9031827,36.174657 30.9031827,36.174657 Z" id="Path-Copy-121"></path>
                    </g>
                    <g id="srat" transform="translate(41.500000, 55.000000) scale(-1, 1) translate(-41.500000, -55.000000) translate(0.000000, 28.000000)" fill="#FFFFFF" fill-rule="nonzero" opacity="0.44">
                        <path d="M44.9191744,21.2706013 L54.2226726,26.9733455 L54.6706188,37.7261102 C54.6706188,40.371359 56.6002333,38.5506033 56.6002333,38.5506033 L64.8700095,31.5080578 L75.2072298,34.2563682 C77.7915349,34.8747381 76.4132389,32.1607815 76.4132389,32.1607815 L72.5540099,22.8508798 L77.8949071,14.5715945 C80.5136696,11.4110375 76.5855259,12.132469 76.5855259,12.132469 L66.627337,12.9226082 L60.5972918,5.60523162 C60.5972918,5.60523162 58.3231033,1.75759697 57.5650405,5.60523162 L55.2219372,15.3617338 L45.401578,19.1063068 C42.6794433,20.1025693 44.9191744,21.2706013 44.9191744,21.2706013 Z" id="Path-Copy-119" transform="translate(61.423869, 21.528331) rotate(15.000000) translate(-61.423869, -21.528331) "></path>
                        <path d="M5.17556239,36.364324 L4.72955145,38.9056929 L2.24127986,39.9664381 C1.6309491,40.2095256 2.24127986,40.4747119 2.24127986,40.4747119 L4.58870589,41.6680503 L4.91734553,44.1652214 C4.91734553,44.7839894 5.5276763,44.1652214 5.5276763,44.1652214 L7.33519434,42.5078069 L9.68262036,42.9276853 C10.6685393,43.2149704 10.1286313,42.4415104 10.1286313,42.4415104 L9.00186681,40.2316244 L10.1521056,38.2648259 C10.1521056,38.2648259 10.8563334,37.4250693 9.84694018,37.623959 L7.3586686,37.9775408 L5.55115056,36.1433355 C5.24598517,35.7676548 5.17556239,36.364324 5.17556239,36.364324 Z" id="Path-Copy-120" transform="translate(6.180548, 40.229703) rotate(31.000000) translate(-6.180548, -40.229703) "></path>
                        <path d="M30.9031827,36.174657 L29.947965,41.7507496 L24.6508487,44.098578 C23.3048602,44.6016841 24.6508487,45.1886413 24.6508487,45.1886413 L29.861127,47.7880228 L30.5558308,53.2802643 C30.5558308,54.6638061 31.8584003,53.2802643 31.8584003,53.2802643 L35.7661091,49.5908196 L40.9763874,50.5970318 C43.0604987,51.2259144 41.931605,49.4650431 41.931605,49.4650431 L39.5001418,44.8113117 L41.975024,40.6187609 C41.975024,40.6187609 43.4512695,38.7740385 41.3237392,39.1513681 L35.983204,39.9479527 L32.1189143,35.9650295 C31.0334396,34.7491897 30.9031827,36.174657 30.9031827,36.174657 Z" id="Path-Copy-121"></path>
                    </g>
                </g>
            </g>
        </g>
    </g>
</svg>